<mxfile host="app.diagrams.net" modified="2024-01-07T20:38:42.356Z" agent="Mozilla/5.0 (Windows NT 10.0; Win64; x64) AppleWebKit/537.36 (KHTML, like Gecko) Chrome/120.0.0.0 Safari/537.36 Edg/120.0.0.0" etag="mkg3mP3uilD_uwbc5FPZ" version="22.1.17" type="github" pages="9">
  <diagram id="3S6QeXYECyK9SX3h8xR4" name="study routine">
    <mxGraphModel dx="765" dy="533" grid="1" gridSize="10" guides="1" tooltips="1" connect="1" arrows="1" fold="1" page="1" pageScale="1" pageWidth="2336" pageHeight="1654" math="0" shadow="0">
      <root>
        <mxCell id="0" />
        <mxCell id="1" parent="0" />
        <mxCell id="qGcv9CCfLaphZMbWW0hr-281" value="分析工具&lt;br&gt;Toolkit" style="whiteSpace=wrap;html=1;" parent="1" vertex="1">
          <mxGeometry x="1117" y="1082" width="120" height="60" as="geometry" />
        </mxCell>
        <mxCell id="qGcv9CCfLaphZMbWW0hr-282" value="" style="edgeStyle=orthogonalEdgeStyle;rounded=0;orthogonalLoop=1;jettySize=auto;html=1;fontFamily=Times New Roman;fontSize=12;" parent="1" source="qGcv9CCfLaphZMbWW0hr-121" target="qGcv9CCfLaphZMbWW0hr-281" edge="1">
          <mxGeometry relative="1" as="geometry" />
        </mxCell>
        <mxCell id="qGcv9CCfLaphZMbWW0hr-283" value="3D Slicer&lt;br&gt;FIJI&lt;br&gt;ITK-SNAP" style="whiteSpace=wrap;html=1;" parent="1" vertex="1">
          <mxGeometry x="1317" y="1082" width="120" height="60" as="geometry" />
        </mxCell>
        <mxCell id="qGcv9CCfLaphZMbWW0hr-284" value="" style="edgeStyle=orthogonalEdgeStyle;rounded=0;orthogonalLoop=1;jettySize=auto;html=1;fontFamily=Times New Roman;fontSize=12;" parent="1" source="qGcv9CCfLaphZMbWW0hr-281" target="qGcv9CCfLaphZMbWW0hr-283" edge="1">
          <mxGeometry relative="1" as="geometry" />
        </mxCell>
        <mxCell id="qGcv9CCfLaphZMbWW0hr-285" value="基础&lt;br&gt;Fundamental elements" style="whiteSpace=wrap;html=1;strokeColor=default;" parent="1" vertex="1">
          <mxGeometry x="802" y="1366" width="120" height="60" as="geometry" />
        </mxCell>
        <mxCell id="qGcv9CCfLaphZMbWW0hr-291" value="预处理&lt;br&gt;preprocessing" style="whiteSpace=wrap;html=1;" parent="1" vertex="1">
          <mxGeometry x="1117" y="1162" width="120" height="60" as="geometry" />
        </mxCell>
        <mxCell id="qGcv9CCfLaphZMbWW0hr-292" value="" style="edgeStyle=orthogonalEdgeStyle;rounded=0;orthogonalLoop=1;jettySize=auto;html=1;fontFamily=Times New Roman;fontSize=12;" parent="1" source="qGcv9CCfLaphZMbWW0hr-289" target="qGcv9CCfLaphZMbWW0hr-291" edge="1">
          <mxGeometry relative="1" as="geometry" />
        </mxCell>
        <mxCell id="qGcv9CCfLaphZMbWW0hr-294" value="数据增强 Data augmentation&lt;br&gt;正则化Normalization" style="whiteSpace=wrap;html=1;" parent="1" vertex="1">
          <mxGeometry x="1317" y="1162" width="120" height="60" as="geometry" />
        </mxCell>
        <mxCell id="qGcv9CCfLaphZMbWW0hr-295" value="" style="edgeStyle=orthogonalEdgeStyle;rounded=0;orthogonalLoop=1;jettySize=auto;html=1;fontFamily=Times New Roman;fontSize=12;" parent="1" source="qGcv9CCfLaphZMbWW0hr-291" target="qGcv9CCfLaphZMbWW0hr-294" edge="1">
          <mxGeometry relative="1" as="geometry" />
        </mxCell>
        <mxCell id="qGcv9CCfLaphZMbWW0hr-296" value="损失函数&lt;br&gt;Loss functions" style="whiteSpace=wrap;html=1;strokeColor=default;" parent="1" vertex="1">
          <mxGeometry x="682" y="1471" width="120" height="60" as="geometry" />
        </mxCell>
        <mxCell id="qGcv9CCfLaphZMbWW0hr-297" value="" style="edgeStyle=orthogonalEdgeStyle;rounded=0;orthogonalLoop=1;jettySize=auto;html=1;fontFamily=Times New Roman;fontSize=12;" parent="1" source="qGcv9CCfLaphZMbWW0hr-285" target="qGcv9CCfLaphZMbWW0hr-296" edge="1">
          <mxGeometry relative="1" as="geometry" />
        </mxCell>
        <mxCell id="qGcv9CCfLaphZMbWW0hr-332" value="" style="edgeStyle=orthogonalEdgeStyle;rounded=0;orthogonalLoop=1;jettySize=auto;html=1;fontFamily=Times New Roman;fontSize=12;" parent="1" source="qGcv9CCfLaphZMbWW0hr-302" target="qGcv9CCfLaphZMbWW0hr-331" edge="1">
          <mxGeometry relative="1" as="geometry" />
        </mxCell>
        <mxCell id="qGcv9CCfLaphZMbWW0hr-304" value="模型&lt;br&gt;Models" style="whiteSpace=wrap;html=1;strokeColor=default;" parent="1" vertex="1">
          <mxGeometry x="892" y="1471" width="120" height="60" as="geometry" />
        </mxCell>
        <mxCell id="qGcv9CCfLaphZMbWW0hr-305" value="" style="edgeStyle=orthogonalEdgeStyle;rounded=0;orthogonalLoop=1;jettySize=auto;html=1;fontFamily=Times New Roman;fontSize=12;" parent="1" source="qGcv9CCfLaphZMbWW0hr-285" target="qGcv9CCfLaphZMbWW0hr-304" edge="1">
          <mxGeometry relative="1" as="geometry" />
        </mxCell>
        <mxCell id="qGcv9CCfLaphZMbWW0hr-308" value="优化算法&lt;br&gt;Optimization algorithms" style="whiteSpace=wrap;html=1;strokeColor=default;" parent="1" vertex="1">
          <mxGeometry x="962" y="1366" width="120" height="60" as="geometry" />
        </mxCell>
        <mxCell id="qGcv9CCfLaphZMbWW0hr-309" value="" style="edgeStyle=orthogonalEdgeStyle;rounded=0;orthogonalLoop=1;jettySize=auto;html=1;fontFamily=Times New Roman;fontSize=12;" parent="1" source="qGcv9CCfLaphZMbWW0hr-285" target="qGcv9CCfLaphZMbWW0hr-308" edge="1">
          <mxGeometry relative="1" as="geometry" />
        </mxCell>
        <mxCell id="qGcv9CCfLaphZMbWW0hr-324" value="" style="edgeStyle=orthogonalEdgeStyle;rounded=0;orthogonalLoop=1;jettySize=auto;html=1;fontFamily=Times New Roman;fontSize=12;" parent="1" source="qGcv9CCfLaphZMbWW0hr-310" target="qGcv9CCfLaphZMbWW0hr-323" edge="1">
          <mxGeometry relative="1" as="geometry" />
        </mxCell>
        <mxCell id="qGcv9CCfLaphZMbWW0hr-311" value="" style="edgeStyle=orthogonalEdgeStyle;rounded=0;orthogonalLoop=1;jettySize=auto;html=1;fontFamily=Times New Roman;fontSize=12;" parent="1" source="qGcv9CCfLaphZMbWW0hr-144" target="qGcv9CCfLaphZMbWW0hr-310" edge="1">
          <mxGeometry relative="1" as="geometry" />
        </mxCell>
        <mxCell id="qGcv9CCfLaphZMbWW0hr-312" value="非监督学习&lt;br&gt;Non-Supervised learning" style="whiteSpace=wrap;html=1;strokeColor=default;" parent="1" vertex="1">
          <mxGeometry x="324" y="1366" width="120" height="60" as="geometry" />
        </mxCell>
        <mxCell id="qGcv9CCfLaphZMbWW0hr-313" value="" style="edgeStyle=orthogonalEdgeStyle;rounded=0;orthogonalLoop=1;jettySize=auto;html=1;fontFamily=Times New Roman;fontSize=12;startArrow=none;" parent="1" source="qGcv9CCfLaphZMbWW0hr-310" target="qGcv9CCfLaphZMbWW0hr-312" edge="1">
          <mxGeometry relative="1" as="geometry" />
        </mxCell>
        <mxCell id="qGcv9CCfLaphZMbWW0hr-318" value="降维&lt;br&gt;Dimensionality reduction&lt;br&gt;聚类 Clustering" style="whiteSpace=wrap;html=1;strokeColor=default;align=left;" parent="1" vertex="1">
          <mxGeometry x="142" y="1366" width="140" height="60" as="geometry" />
        </mxCell>
        <mxCell id="qGcv9CCfLaphZMbWW0hr-319" value="" style="edgeStyle=orthogonalEdgeStyle;rounded=0;orthogonalLoop=1;jettySize=auto;html=1;fontFamily=Times New Roman;fontSize=12;" parent="1" source="qGcv9CCfLaphZMbWW0hr-312" target="qGcv9CCfLaphZMbWW0hr-318" edge="1">
          <mxGeometry relative="1" as="geometry" />
        </mxCell>
        <mxCell id="qGcv9CCfLaphZMbWW0hr-331" value="&lt;span&gt;分割 Segmentation&lt;/span&gt;&lt;br&gt;&lt;span&gt;分类 Classification&lt;/span&gt;&lt;br&gt;&lt;div&gt;&lt;span&gt;回归 Regression&lt;/span&gt;&lt;/div&gt;" style="whiteSpace=wrap;html=1;strokeColor=default;align=left;" parent="1" vertex="1">
          <mxGeometry x="642" y="1366" width="120" height="60" as="geometry" />
        </mxCell>
        <mxCell id="qGcv9CCfLaphZMbWW0hr-333" value="注意力 Attention&lt;br&gt;Transformer&lt;br&gt;Vision Transformer" style="whiteSpace=wrap;html=1;strokeColor=default;" parent="1" vertex="1">
          <mxGeometry x="892" y="1561" width="120" height="60" as="geometry" />
        </mxCell>
        <mxCell id="qGcv9CCfLaphZMbWW0hr-334" value="" style="edgeStyle=orthogonalEdgeStyle;rounded=0;orthogonalLoop=1;jettySize=auto;html=1;fontFamily=Times New Roman;fontSize=12;" parent="1" source="qGcv9CCfLaphZMbWW0hr-304" target="qGcv9CCfLaphZMbWW0hr-333" edge="1">
          <mxGeometry relative="1" as="geometry" />
        </mxCell>
        <mxCell id="qGcv9CCfLaphZMbWW0hr-337" value="卷积神经网络&lt;br&gt;Convolutional Neural Networks&lt;br&gt;几何深度模型&lt;br&gt;Geometric deep model" style="whiteSpace=wrap;html=1;strokeColor=default;" parent="1" vertex="1">
          <mxGeometry x="1077" y="1471" width="180" height="60" as="geometry" />
        </mxCell>
        <mxCell id="qGcv9CCfLaphZMbWW0hr-339" value="自动优化算法&lt;br&gt;Automatic Optimization algorithms" style="whiteSpace=wrap;html=1;strokeColor=default;" parent="1" vertex="1">
          <mxGeometry x="1122" y="1366" width="120" height="60" as="geometry" />
        </mxCell>
        <mxCell id="qGcv9CCfLaphZMbWW0hr-310" value="监督学习&lt;br&gt;Supervised learning" style="whiteSpace=wrap;html=1;strokeColor=default;" parent="1" vertex="1">
          <mxGeometry x="324" y="1267" width="120" height="60" as="geometry" />
        </mxCell>
        <mxCell id="qGcv9CCfLaphZMbWW0hr-341" value="" style="edgeStyle=orthogonalEdgeStyle;rounded=0;orthogonalLoop=1;jettySize=auto;html=1;fontFamily=Times New Roman;fontSize=12;endArrow=none;" parent="1" source="qGcv9CCfLaphZMbWW0hr-144" target="qGcv9CCfLaphZMbWW0hr-310" edge="1">
          <mxGeometry relative="1" as="geometry">
            <mxPoint x="507" y="1297.0000000000002" as="sourcePoint" />
            <mxPoint x="382.05882352941217" y="1374" as="targetPoint" />
          </mxGeometry>
        </mxCell>
        <mxCell id="qGcv9CCfLaphZMbWW0hr-338" value="" style="edgeStyle=orthogonalEdgeStyle;rounded=0;orthogonalLoop=1;jettySize=auto;html=1;fontFamily=Times New Roman;fontSize=12;" parent="1" source="qGcv9CCfLaphZMbWW0hr-304" target="qGcv9CCfLaphZMbWW0hr-337" edge="1">
          <mxGeometry relative="1" as="geometry" />
        </mxCell>
        <mxCell id="qGcv9CCfLaphZMbWW0hr-346" style="edgeStyle=orthogonalEdgeStyle;rounded=0;orthogonalLoop=1;jettySize=auto;html=1;fontFamily=Times New Roman;fontSize=12;" parent="1" source="qGcv9CCfLaphZMbWW0hr-142" target="qGcv9CCfLaphZMbWW0hr-285" edge="1">
          <mxGeometry relative="1" as="geometry">
            <Array as="points">
              <mxPoint x="779" y="1349" />
              <mxPoint x="862" y="1349" />
            </Array>
          </mxGeometry>
        </mxCell>
        <mxCell id="qGcv9CCfLaphZMbWW0hr-340" value="" style="edgeStyle=orthogonalEdgeStyle;rounded=0;orthogonalLoop=1;jettySize=auto;html=1;fontFamily=Times New Roman;fontSize=12;" parent="1" source="qGcv9CCfLaphZMbWW0hr-308" target="qGcv9CCfLaphZMbWW0hr-339" edge="1">
          <mxGeometry relative="1" as="geometry" />
        </mxCell>
        <mxCell id="qGcv9CCfLaphZMbWW0hr-51" value="&lt;h1&gt;2011-2015&lt;/h1&gt;&lt;div&gt;大学 - Bachelor&lt;/div&gt;&lt;div&gt;University&lt;br&gt;&lt;/div&gt;" style="text;html=1;spacing=5;spacingTop=-20;whiteSpace=wrap;overflow=hidden;rounded=0;strokeColor=default;" parent="1" vertex="1">
          <mxGeometry x="14" y="631" width="190" height="80" as="geometry" />
        </mxCell>
        <mxCell id="qGcv9CCfLaphZMbWW0hr-251" value="" style="edgeStyle=orthogonalEdgeStyle;rounded=0;orthogonalLoop=1;jettySize=auto;html=1;entryX=0;entryY=0.5;entryDx=0;entryDy=0;" parent="1" source="qGcv9CCfLaphZMbWW0hr-53" target="qGcv9CCfLaphZMbWW0hr-71" edge="1">
          <mxGeometry relative="1" as="geometry" />
        </mxCell>
        <mxCell id="qGcv9CCfLaphZMbWW0hr-53" value="&lt;h1&gt;2015-2018&lt;/h1&gt;&lt;div&gt;硕士 - Master&lt;/div&gt;&lt;div&gt;University&lt;br&gt;&lt;/div&gt;" style="text;html=1;spacing=5;spacingTop=-20;whiteSpace=wrap;overflow=hidden;rounded=0;strokeColor=default;" parent="1" vertex="1">
          <mxGeometry x="14" y="936" width="190" height="80" as="geometry" />
        </mxCell>
        <mxCell id="qGcv9CCfLaphZMbWW0hr-54" value="" style="edgeStyle=orthogonalEdgeStyle;rounded=0;orthogonalLoop=1;jettySize=auto;html=1;" parent="1" source="qGcv9CCfLaphZMbWW0hr-51" target="qGcv9CCfLaphZMbWW0hr-53" edge="1">
          <mxGeometry relative="1" as="geometry" />
        </mxCell>
        <mxCell id="qGcv9CCfLaphZMbWW0hr-56" value="" style="edgeStyle=orthogonalEdgeStyle;rounded=0;orthogonalLoop=1;jettySize=auto;html=1;" parent="1" source="qGcv9CCfLaphZMbWW0hr-53" target="qGcv9CCfLaphZMbWW0hr-55" edge="1">
          <mxGeometry relative="1" as="geometry" />
        </mxCell>
        <mxCell id="qGcv9CCfLaphZMbWW0hr-69" value="" style="edgeStyle=orthogonalEdgeStyle;rounded=0;orthogonalLoop=1;jettySize=auto;html=1;" parent="1" source="qGcv9CCfLaphZMbWW0hr-51" target="qGcv9CCfLaphZMbWW0hr-68" edge="1">
          <mxGeometry relative="1" as="geometry" />
        </mxCell>
        <mxCell id="qGcv9CCfLaphZMbWW0hr-266" value="" style="edgeStyle=orthogonalEdgeStyle;rounded=0;orthogonalLoop=1;jettySize=auto;html=1;fontSize=12;" parent="1" source="qGcv9CCfLaphZMbWW0hr-93" target="qGcv9CCfLaphZMbWW0hr-255" edge="1">
          <mxGeometry relative="1" as="geometry" />
        </mxCell>
        <mxCell id="qGcv9CCfLaphZMbWW0hr-93" value="信息管理与信息系统&lt;br&gt;Information Management and Information Systems" style="whiteSpace=wrap;html=1;strokeColor=default;" parent="1" vertex="1">
          <mxGeometry x="514.5" y="641" width="120" height="60" as="geometry" />
        </mxCell>
        <mxCell id="qGcv9CCfLaphZMbWW0hr-94" value="" style="edgeStyle=orthogonalEdgeStyle;rounded=0;orthogonalLoop=1;jettySize=auto;html=1;exitX=1;exitY=0.5;exitDx=0;exitDy=0;" parent="1" source="qGcv9CCfLaphZMbWW0hr-70" target="qGcv9CCfLaphZMbWW0hr-93" edge="1">
          <mxGeometry relative="1" as="geometry" />
        </mxCell>
        <mxCell id="qmrTpTHnCcI6w7EaYWka-2" value="" style="edgeStyle=orthogonalEdgeStyle;rounded=0;orthogonalLoop=1;jettySize=auto;html=1;fontColor=#00FF00;" parent="1" source="qGcv9CCfLaphZMbWW0hr-95" target="qmrTpTHnCcI6w7EaYWka-1" edge="1">
          <mxGeometry relative="1" as="geometry" />
        </mxCell>
        <mxCell id="qmrTpTHnCcI6w7EaYWka-5" style="edgeStyle=orthogonalEdgeStyle;rounded=0;orthogonalLoop=1;jettySize=auto;html=1;entryX=0;entryY=0.5;entryDx=0;entryDy=0;fontColor=#00FF00;" parent="1" source="qGcv9CCfLaphZMbWW0hr-95" target="qGcv9CCfLaphZMbWW0hr-99" edge="1">
          <mxGeometry relative="1" as="geometry" />
        </mxCell>
        <mxCell id="qGcv9CCfLaphZMbWW0hr-95" value="计算机科学与技术&lt;br&gt;Computer Science" style="whiteSpace=wrap;html=1;strokeColor=default;" parent="1" vertex="1">
          <mxGeometry x="504" y="946" width="120" height="60" as="geometry" />
        </mxCell>
        <mxCell id="qGcv9CCfLaphZMbWW0hr-96" value="" style="edgeStyle=orthogonalEdgeStyle;rounded=0;orthogonalLoop=1;jettySize=auto;html=1;" parent="1" source="qGcv9CCfLaphZMbWW0hr-73" target="qGcv9CCfLaphZMbWW0hr-95" edge="1">
          <mxGeometry relative="1" as="geometry" />
        </mxCell>
        <mxCell id="qGcv9CCfLaphZMbWW0hr-99" value="计算机图形学&lt;br&gt;Computer Graphics" style="whiteSpace=wrap;html=1;" parent="1" vertex="1">
          <mxGeometry x="720.5" y="946" width="120" height="60" as="geometry" />
        </mxCell>
        <mxCell id="qGcv9CCfLaphZMbWW0hr-103" value="点云数据&lt;br&gt;Point Cloud data" style="whiteSpace=wrap;html=1;" parent="1" vertex="1">
          <mxGeometry x="720.5" y="855" width="120" height="60" as="geometry" />
        </mxCell>
        <mxCell id="qGcv9CCfLaphZMbWW0hr-104" value="" style="edgeStyle=orthogonalEdgeStyle;rounded=0;orthogonalLoop=1;jettySize=auto;html=1;" parent="1" source="qGcv9CCfLaphZMbWW0hr-99" target="qGcv9CCfLaphZMbWW0hr-103" edge="1">
          <mxGeometry relative="1" as="geometry" />
        </mxCell>
        <mxCell id="qGcv9CCfLaphZMbWW0hr-105" value="光线跟踪&lt;br&gt;Ray tracing" style="whiteSpace=wrap;html=1;" parent="1" vertex="1">
          <mxGeometry x="900" y="946" width="120" height="60" as="geometry" />
        </mxCell>
        <mxCell id="qGcv9CCfLaphZMbWW0hr-106" value="" style="edgeStyle=orthogonalEdgeStyle;rounded=0;orthogonalLoop=1;jettySize=auto;html=1;" parent="1" source="qGcv9CCfLaphZMbWW0hr-99" target="qGcv9CCfLaphZMbWW0hr-105" edge="1">
          <mxGeometry relative="1" as="geometry" />
        </mxCell>
        <mxCell id="qGcv9CCfLaphZMbWW0hr-115" value="模拟光照，实际光照&lt;br&gt;Simulated illumination&lt;br&gt;vs. Actual illumination" style="whiteSpace=wrap;html=1;" parent="1" vertex="1">
          <mxGeometry x="1070" y="946" width="120" height="60" as="geometry" />
        </mxCell>
        <mxCell id="qGcv9CCfLaphZMbWW0hr-116" value="" style="edgeStyle=orthogonalEdgeStyle;rounded=0;orthogonalLoop=1;jettySize=auto;html=1;" parent="1" source="qGcv9CCfLaphZMbWW0hr-105" target="qGcv9CCfLaphZMbWW0hr-115" edge="1">
          <mxGeometry relative="1" as="geometry" />
        </mxCell>
        <mxCell id="qGcv9CCfLaphZMbWW0hr-119" value="" style="edgeStyle=orthogonalEdgeStyle;rounded=0;orthogonalLoop=1;jettySize=auto;html=1;" parent="1" source="qGcv9CCfLaphZMbWW0hr-103" target="qGcv9CCfLaphZMbWW0hr-118" edge="1">
          <mxGeometry relative="1" as="geometry" />
        </mxCell>
        <mxCell id="qGcv9CCfLaphZMbWW0hr-130" value="植物&lt;br&gt;Plants" style="whiteSpace=wrap;html=1;" parent="1" vertex="1">
          <mxGeometry x="1230" y="855" width="120" height="60" as="geometry" />
        </mxCell>
        <mxCell id="qGcv9CCfLaphZMbWW0hr-134" value="" style="edgeStyle=orthogonalEdgeStyle;rounded=0;orthogonalLoop=1;jettySize=auto;html=1;" parent="1" source="qGcv9CCfLaphZMbWW0hr-133" target="qGcv9CCfLaphZMbWW0hr-115" edge="1">
          <mxGeometry relative="1" as="geometry" />
        </mxCell>
        <mxCell id="qGcv9CCfLaphZMbWW0hr-133" value="光照度计，实际光照&lt;br&gt;Illuminance meter，&lt;br&gt;Actual illumination" style="whiteSpace=wrap;html=1;" parent="1" vertex="1">
          <mxGeometry x="1070" y="855" width="120" height="60" as="geometry" />
        </mxCell>
        <mxCell id="qGcv9CCfLaphZMbWW0hr-135" value="" style="edgeStyle=orthogonalEdgeStyle;rounded=0;orthogonalLoop=1;jettySize=auto;html=1;" parent="1" source="qGcv9CCfLaphZMbWW0hr-130" target="qGcv9CCfLaphZMbWW0hr-133" edge="1">
          <mxGeometry relative="1" as="geometry" />
        </mxCell>
        <mxCell id="qGcv9CCfLaphZMbWW0hr-137" value="" style="group" parent="1" vertex="1" connectable="0">
          <mxGeometry x="880" y="855" width="160" height="60" as="geometry" />
        </mxCell>
        <mxCell id="qGcv9CCfLaphZMbWW0hr-118" value="" style="whiteSpace=wrap;html=1;" parent="qGcv9CCfLaphZMbWW0hr-137" vertex="1">
          <mxGeometry x="20" width="140" height="60" as="geometry" />
        </mxCell>
        <mxCell id="qGcv9CCfLaphZMbWW0hr-120" value="&lt;ul&gt;&lt;li&gt;获取 Aquirement&lt;/li&gt;&lt;li&gt;预处理 Preprocessing&lt;/li&gt;&lt;li&gt;重建 Reconstruction&lt;/li&gt;&lt;/ul&gt;" style="text;html=1;strokeColor=none;fillColor=none;align=left;verticalAlign=middle;whiteSpace=wrap;rounded=0;" parent="qGcv9CCfLaphZMbWW0hr-137" vertex="1">
          <mxGeometry width="160" height="60" as="geometry" />
        </mxCell>
        <mxCell id="qGcv9CCfLaphZMbWW0hr-139" value="" style="edgeStyle=orthogonalEdgeStyle;rounded=0;orthogonalLoop=1;jettySize=auto;html=1;" parent="1" source="qGcv9CCfLaphZMbWW0hr-120" target="qGcv9CCfLaphZMbWW0hr-105" edge="1">
          <mxGeometry relative="1" as="geometry" />
        </mxCell>
        <mxCell id="qGcv9CCfLaphZMbWW0hr-140" value="分析&lt;br&gt;Analysis" style="whiteSpace=wrap;html=1;" parent="1" vertex="1">
          <mxGeometry x="1230" y="946" width="120" height="60" as="geometry" />
        </mxCell>
        <mxCell id="qGcv9CCfLaphZMbWW0hr-141" value="" style="edgeStyle=orthogonalEdgeStyle;rounded=0;orthogonalLoop=1;jettySize=auto;html=1;" parent="1" source="qGcv9CCfLaphZMbWW0hr-115" target="qGcv9CCfLaphZMbWW0hr-140" edge="1">
          <mxGeometry relative="1" as="geometry" />
        </mxCell>
        <mxCell id="qGcv9CCfLaphZMbWW0hr-247" value="" style="group" parent="1" vertex="1" connectable="0">
          <mxGeometry x="14" y="1052" width="1080" height="275" as="geometry" />
        </mxCell>
        <mxCell id="qGcv9CCfLaphZMbWW0hr-55" value="&lt;h1&gt;2018-2022&lt;/h1&gt;&lt;div&gt;博士 - Doctor&lt;/div&gt;&lt;div&gt;University&lt;br&gt;&lt;/div&gt;" style="text;html=1;spacing=5;spacingTop=-20;whiteSpace=wrap;overflow=hidden;rounded=0;strokeColor=default;" parent="qGcv9CCfLaphZMbWW0hr-247" vertex="1">
          <mxGeometry y="20" width="190" height="80" as="geometry" />
        </mxCell>
        <mxCell id="qGcv9CCfLaphZMbWW0hr-77" value="" style="group" parent="qGcv9CCfLaphZMbWW0hr-247" vertex="1" connectable="0">
          <mxGeometry x="310" y="30" width="120" height="60" as="geometry" />
        </mxCell>
        <mxCell id="qGcv9CCfLaphZMbWW0hr-74" value="" style="whiteSpace=wrap;html=1;align=left;verticalAlign=top;fillColor=none;gradientColor=none;spacing=5;spacingTop=-20;rounded=0;" parent="qGcv9CCfLaphZMbWW0hr-77" vertex="1">
          <mxGeometry width="120" height="60" as="geometry" />
        </mxCell>
        <mxCell id="qGcv9CCfLaphZMbWW0hr-76" value="高等教育&lt;br&gt;Higher Education" style="text;html=1;strokeColor=none;fillColor=none;align=center;verticalAlign=middle;whiteSpace=wrap;rounded=0;" parent="qGcv9CCfLaphZMbWW0hr-77" vertex="1">
          <mxGeometry x="2.5" width="115" height="60" as="geometry" />
        </mxCell>
        <mxCell id="qGcv9CCfLaphZMbWW0hr-75" value="" style="edgeStyle=orthogonalEdgeStyle;rounded=0;orthogonalLoop=1;jettySize=auto;html=1;" parent="qGcv9CCfLaphZMbWW0hr-247" source="qGcv9CCfLaphZMbWW0hr-55" target="qGcv9CCfLaphZMbWW0hr-74" edge="1">
          <mxGeometry relative="1" as="geometry" />
        </mxCell>
        <mxCell id="qGcv9CCfLaphZMbWW0hr-97" value="计算机科学与技术&lt;br&gt;Computer Science" style="whiteSpace=wrap;html=1;strokeColor=default;" parent="qGcv9CCfLaphZMbWW0hr-247" vertex="1">
          <mxGeometry x="493" y="30" width="120" height="60" as="geometry" />
        </mxCell>
        <mxCell id="qGcv9CCfLaphZMbWW0hr-98" value="" style="edgeStyle=orthogonalEdgeStyle;rounded=0;orthogonalLoop=1;jettySize=auto;html=1;" parent="qGcv9CCfLaphZMbWW0hr-247" source="qGcv9CCfLaphZMbWW0hr-76" target="qGcv9CCfLaphZMbWW0hr-97" edge="1">
          <mxGeometry relative="1" as="geometry" />
        </mxCell>
        <mxCell id="qGcv9CCfLaphZMbWW0hr-101" value="计算机视觉&lt;br&gt;Computer Vision" style="whiteSpace=wrap;html=1;" parent="qGcv9CCfLaphZMbWW0hr-247" vertex="1">
          <mxGeometry x="705" y="30" width="120" height="60" as="geometry" />
        </mxCell>
        <mxCell id="qGcv9CCfLaphZMbWW0hr-102" value="" style="edgeStyle=orthogonalEdgeStyle;rounded=0;orthogonalLoop=1;jettySize=auto;html=1;" parent="qGcv9CCfLaphZMbWW0hr-247" source="qGcv9CCfLaphZMbWW0hr-97" target="qGcv9CCfLaphZMbWW0hr-101" edge="1">
          <mxGeometry relative="1" as="geometry" />
        </mxCell>
        <mxCell id="qGcv9CCfLaphZMbWW0hr-121" value="医学图像分析&lt;br&gt;Medical Image Analysis" style="whiteSpace=wrap;html=1;" parent="qGcv9CCfLaphZMbWW0hr-247" vertex="1">
          <mxGeometry x="905" y="30" width="120" height="60" as="geometry" />
        </mxCell>
        <mxCell id="qGcv9CCfLaphZMbWW0hr-122" value="" style="edgeStyle=orthogonalEdgeStyle;rounded=0;orthogonalLoop=1;jettySize=auto;html=1;" parent="qGcv9CCfLaphZMbWW0hr-247" source="qGcv9CCfLaphZMbWW0hr-101" target="qGcv9CCfLaphZMbWW0hr-121" edge="1">
          <mxGeometry relative="1" as="geometry" />
        </mxCell>
        <mxCell id="qGcv9CCfLaphZMbWW0hr-125" value="人工智能&lt;br&gt;Artificial Intelligence" style="whiteSpace=wrap;html=1;strokeColor=default;" parent="qGcv9CCfLaphZMbWW0hr-247" vertex="1">
          <mxGeometry x="493" y="110" width="120" height="60" as="geometry" />
        </mxCell>
        <mxCell id="qGcv9CCfLaphZMbWW0hr-126" value="" style="edgeStyle=orthogonalEdgeStyle;rounded=0;orthogonalLoop=1;jettySize=auto;html=1;" parent="qGcv9CCfLaphZMbWW0hr-247" source="qGcv9CCfLaphZMbWW0hr-97" target="qGcv9CCfLaphZMbWW0hr-125" edge="1">
          <mxGeometry relative="1" as="geometry" />
        </mxCell>
        <mxCell id="qGcv9CCfLaphZMbWW0hr-142" value="深度学习&lt;br&gt;Deep Learning" style="whiteSpace=wrap;html=1;strokeColor=default;" parent="qGcv9CCfLaphZMbWW0hr-247" vertex="1">
          <mxGeometry x="705" y="110" width="120" height="60" as="geometry" />
        </mxCell>
        <mxCell id="qGcv9CCfLaphZMbWW0hr-143" value="" style="edgeStyle=orthogonalEdgeStyle;rounded=0;orthogonalLoop=1;jettySize=auto;html=1;" parent="qGcv9CCfLaphZMbWW0hr-247" source="qGcv9CCfLaphZMbWW0hr-125" target="qGcv9CCfLaphZMbWW0hr-142" edge="1">
          <mxGeometry relative="1" as="geometry" />
        </mxCell>
        <mxCell id="qGcv9CCfLaphZMbWW0hr-342" value="" style="edgeStyle=orthogonalEdgeStyle;rounded=0;orthogonalLoop=1;jettySize=auto;html=1;fontFamily=Times New Roman;fontSize=12;" parent="qGcv9CCfLaphZMbWW0hr-247" source="qGcv9CCfLaphZMbWW0hr-289" target="qGcv9CCfLaphZMbWW0hr-142" edge="1">
          <mxGeometry relative="1" as="geometry" />
        </mxCell>
        <mxCell id="qGcv9CCfLaphZMbWW0hr-289" value="医学图像&lt;br&gt;Medical Image&lt;br&gt;Biomarker Estimation&amp;nbsp;" style="whiteSpace=wrap;html=1;" parent="qGcv9CCfLaphZMbWW0hr-247" vertex="1">
          <mxGeometry x="905" y="110" width="120" height="60" as="geometry" />
        </mxCell>
        <mxCell id="qGcv9CCfLaphZMbWW0hr-290" value="" style="edgeStyle=orthogonalEdgeStyle;rounded=0;orthogonalLoop=1;jettySize=auto;html=1;fontFamily=Times New Roman;fontSize=12;" parent="qGcv9CCfLaphZMbWW0hr-247" source="qGcv9CCfLaphZMbWW0hr-121" target="qGcv9CCfLaphZMbWW0hr-289" edge="1">
          <mxGeometry relative="1" as="geometry" />
        </mxCell>
        <mxCell id="qGcv9CCfLaphZMbWW0hr-144" value="机器学习&lt;br&gt;Machine Learning" style="whiteSpace=wrap;html=1;strokeColor=default;" parent="qGcv9CCfLaphZMbWW0hr-247" vertex="1">
          <mxGeometry x="493" y="215" width="120" height="60" as="geometry" />
        </mxCell>
        <mxCell id="qGcv9CCfLaphZMbWW0hr-145" value="" style="edgeStyle=orthogonalEdgeStyle;rounded=0;orthogonalLoop=1;jettySize=auto;html=1;" parent="qGcv9CCfLaphZMbWW0hr-247" source="qGcv9CCfLaphZMbWW0hr-125" target="qGcv9CCfLaphZMbWW0hr-144" edge="1">
          <mxGeometry relative="1" as="geometry" />
        </mxCell>
        <mxCell id="qGcv9CCfLaphZMbWW0hr-323" value="&lt;div style=&quot;text-align: justify&quot;&gt;&lt;span&gt;树模型 Tree model&lt;/span&gt;&lt;/div&gt;&lt;div style=&quot;text-align: justify&quot;&gt;&lt;span&gt;线性模型 Linear model&lt;/span&gt;&lt;/div&gt;&lt;div style=&quot;text-align: justify&quot;&gt;&lt;span&gt;支持向量机 Supportive Vector Machine&lt;/span&gt;&lt;/div&gt;&lt;div style=&quot;text-align: justify&quot;&gt;&lt;span&gt;贝叶斯分类器 Bayes classifier&lt;/span&gt;&lt;/div&gt;" style="whiteSpace=wrap;html=1;strokeColor=default;" parent="qGcv9CCfLaphZMbWW0hr-247" vertex="1">
          <mxGeometry x="58" y="215" width="210" height="60" as="geometry" />
        </mxCell>
        <mxCell id="qGcv9CCfLaphZMbWW0hr-277" value="编程语言&lt;br&gt;Programming language" style="whiteSpace=wrap;html=1;strokeColor=default;" parent="qGcv9CCfLaphZMbWW0hr-247" vertex="1">
          <mxGeometry x="938" y="215" width="120" height="60" as="geometry" />
        </mxCell>
        <mxCell id="qGcv9CCfLaphZMbWW0hr-278" value="" style="edgeStyle=orthogonalEdgeStyle;rounded=0;orthogonalLoop=1;jettySize=auto;html=1;fontFamily=Times New Roman;fontSize=12;" parent="qGcv9CCfLaphZMbWW0hr-247" edge="1">
          <mxGeometry relative="1" as="geometry">
            <mxPoint x="765" y="175" as="sourcePoint" />
            <mxPoint x="998" y="217" as="targetPoint" />
            <Array as="points">
              <mxPoint x="765" y="193" />
              <mxPoint x="998" y="193" />
            </Array>
          </mxGeometry>
        </mxCell>
        <mxCell id="qGcv9CCfLaphZMbWW0hr-314" value="可解释人工智能&lt;br&gt;Explainable Artificial Intelligence" style="whiteSpace=wrap;html=1;strokeColor=default;" parent="qGcv9CCfLaphZMbWW0hr-247" vertex="1">
          <mxGeometry x="308" y="110" width="120" height="60" as="geometry" />
        </mxCell>
        <mxCell id="qGcv9CCfLaphZMbWW0hr-315" value="" style="edgeStyle=orthogonalEdgeStyle;rounded=0;orthogonalLoop=1;jettySize=auto;html=1;fontFamily=Times New Roman;fontSize=12;" parent="qGcv9CCfLaphZMbWW0hr-247" source="qGcv9CCfLaphZMbWW0hr-125" target="qGcv9CCfLaphZMbWW0hr-314" edge="1">
          <mxGeometry relative="1" as="geometry" />
        </mxCell>
        <mxCell id="qGcv9CCfLaphZMbWW0hr-302" value="多任务学习&lt;br&gt;Multi-task learning" style="whiteSpace=wrap;html=1;strokeColor=default;" parent="qGcv9CCfLaphZMbWW0hr-247" vertex="1">
          <mxGeometry x="628" y="215" width="120" height="60" as="geometry" />
        </mxCell>
        <mxCell id="qGcv9CCfLaphZMbWW0hr-303" value="" style="edgeStyle=orthogonalEdgeStyle;rounded=0;orthogonalLoop=1;jettySize=auto;html=1;fontFamily=Times New Roman;fontSize=12;exitX=0.5;exitY=1;exitDx=0;exitDy=0;" parent="qGcv9CCfLaphZMbWW0hr-247" source="qGcv9CCfLaphZMbWW0hr-142" target="qGcv9CCfLaphZMbWW0hr-302" edge="1">
          <mxGeometry relative="1" as="geometry" />
        </mxCell>
        <mxCell id="qGcv9CCfLaphZMbWW0hr-300" value="迁移学习&lt;br&gt;Transfer learning" style="whiteSpace=wrap;html=1;strokeColor=default;" parent="qGcv9CCfLaphZMbWW0hr-247" vertex="1">
          <mxGeometry x="785" y="215" width="120" height="60" as="geometry" />
        </mxCell>
        <mxCell id="qGcv9CCfLaphZMbWW0hr-335" style="edgeStyle=orthogonalEdgeStyle;rounded=0;orthogonalLoop=1;jettySize=auto;html=1;entryX=0.5;entryY=0;entryDx=0;entryDy=0;fontFamily=Times New Roman;fontSize=12;" parent="qGcv9CCfLaphZMbWW0hr-247" source="qGcv9CCfLaphZMbWW0hr-142" target="qGcv9CCfLaphZMbWW0hr-300" edge="1">
          <mxGeometry relative="1" as="geometry" />
        </mxCell>
        <mxCell id="qmrTpTHnCcI6w7EaYWka-3" value="Saliency maps" style="whiteSpace=wrap;html=1;strokeColor=default;" parent="qGcv9CCfLaphZMbWW0hr-247" vertex="1">
          <mxGeometry x="148" y="110" width="120" height="60" as="geometry" />
        </mxCell>
        <mxCell id="qmrTpTHnCcI6w7EaYWka-4" value="" style="edgeStyle=orthogonalEdgeStyle;rounded=0;orthogonalLoop=1;jettySize=auto;html=1;fontColor=#00FF00;" parent="qGcv9CCfLaphZMbWW0hr-247" source="qGcv9CCfLaphZMbWW0hr-314" target="qmrTpTHnCcI6w7EaYWka-3" edge="1">
          <mxGeometry relative="1" as="geometry" />
        </mxCell>
        <mxCell id="qGcv9CCfLaphZMbWW0hr-249" value="" style="group" parent="1" vertex="1" connectable="0">
          <mxGeometry x="320" y="946" width="120" height="60" as="geometry" />
        </mxCell>
        <mxCell id="qGcv9CCfLaphZMbWW0hr-71" value="" style="whiteSpace=wrap;html=1;align=left;verticalAlign=top;fillColor=none;gradientColor=none;spacing=5;spacingTop=-20;rounded=0;" parent="qGcv9CCfLaphZMbWW0hr-249" vertex="1">
          <mxGeometry width="120" height="60" as="geometry" />
        </mxCell>
        <mxCell id="qGcv9CCfLaphZMbWW0hr-73" value="高等教育&lt;br&gt;Higher Education" style="text;html=1;strokeColor=none;fillColor=none;align=center;verticalAlign=middle;whiteSpace=wrap;rounded=0;" parent="qGcv9CCfLaphZMbWW0hr-249" vertex="1">
          <mxGeometry x="3" width="115" height="60" as="geometry" />
        </mxCell>
        <mxCell id="qGcv9CCfLaphZMbWW0hr-262" style="edgeStyle=orthogonalEdgeStyle;rounded=0;orthogonalLoop=1;jettySize=auto;html=1;entryX=0.5;entryY=0;entryDx=0;entryDy=0;" parent="1" source="qGcv9CCfLaphZMbWW0hr-49" target="qGcv9CCfLaphZMbWW0hr-51" edge="1">
          <mxGeometry relative="1" as="geometry" />
        </mxCell>
        <mxCell id="qGcv9CCfLaphZMbWW0hr-263" value="" style="group" parent="1" vertex="1" connectable="0">
          <mxGeometry x="319" y="641" width="120" height="60" as="geometry" />
        </mxCell>
        <mxCell id="qGcv9CCfLaphZMbWW0hr-68" value="" style="whiteSpace=wrap;html=1;align=left;verticalAlign=top;fillColor=none;gradientColor=none;spacing=5;spacingTop=-20;rounded=0;" parent="qGcv9CCfLaphZMbWW0hr-263" vertex="1">
          <mxGeometry width="120" height="60" as="geometry" />
        </mxCell>
        <mxCell id="qGcv9CCfLaphZMbWW0hr-70" value="高等教育&lt;br&gt;Higher Education" style="text;html=1;strokeColor=none;fillColor=none;align=center;verticalAlign=middle;whiteSpace=wrap;rounded=0;" parent="qGcv9CCfLaphZMbWW0hr-263" vertex="1">
          <mxGeometry x="2.5" width="115" height="60" as="geometry" />
        </mxCell>
        <mxCell id="qGcv9CCfLaphZMbWW0hr-256" value="&lt;p class=&quot;western&quot; style=&quot;margin-bottom: 0in ; line-height: 100% ; background: transparent&quot;&gt;&lt;/p&gt;&lt;font face=&quot;Times New Roman&quot;&gt;&lt;font style=&quot;text-align: justify ; font-size: 11px ; background-color: transparent&quot;&gt;&lt;span lang=&quot;zh-CN&quot;&gt;体育&amp;nbsp;&lt;/span&gt;&lt;/font&gt;&lt;font style=&quot;text-align: justify ; font-size: 11px ; background-color: transparent&quot;&gt;Sports&lt;/font&gt;&lt;br&gt;&lt;font style=&quot;font-size: 11px ; background-color: transparent ; text-align: justify&quot;&gt;&lt;span lang=&quot;zh-CN&quot;&gt;太极拳&amp;nbsp;&lt;/span&gt;&lt;/font&gt;&lt;font style=&quot;font-size: 11px ; background-color: transparent ; text-align: justify&quot;&gt;Tai Chi Chuan&lt;/font&gt;&lt;br&gt;&lt;span style=&quot;background-color: transparent ; text-align: justify&quot;&gt;健身气功八段锦&lt;/span&gt;&lt;br&gt;&lt;span style=&quot;background-color: transparent ; text-align: justify ; font-size: 11px&quot;&gt;Qigong Eight Duan Jin&lt;/span&gt;&lt;br&gt;&lt;span style=&quot;background-color: transparent ; text-align: justify&quot;&gt;马克思主义基本原理&lt;/span&gt;&lt;br&gt;&lt;span style=&quot;background-color: transparent ; text-align: justify ; font-size: 11px&quot;&gt;Basic Principles of Marxism&lt;/span&gt;&lt;br&gt;&lt;span style=&quot;background-color: transparent ; text-align: justify&quot;&gt;思想道德修养与法律基础&lt;/span&gt;&lt;br&gt;&lt;span style=&quot;background-color: transparent ; text-align: justify ; font-size: 11px&quot;&gt;Fundamentals of Thought, Moral Cultivation and Law&lt;/span&gt;&lt;br&gt;&lt;span style=&quot;background-color: transparent ; text-align: justify&quot;&gt;中国近现代史纲要&lt;/span&gt;&lt;br&gt;&lt;span style=&quot;background-color: transparent ; text-align: justify ; font-size: 11px&quot;&gt;Outline of Modern Chinese History&lt;/span&gt;&lt;br&gt;&lt;span style=&quot;background-color: transparent ; text-align: justify&quot;&gt;毛泽东思想和中国特色社会主义理论体系概论&lt;/span&gt;&lt;br&gt;&lt;span style=&quot;text-align: justify ; font-size: 11px ; background-color: transparent&quot;&gt;Introduction &lt;/span&gt;&lt;span style=&quot;text-align: justify ; font-size: 11px ; background-color: transparent&quot;&gt;to Mao Zedong Thought and Socialist Theory System with Chinese Characteristics&lt;/span&gt;&lt;br&gt;&lt;span style=&quot;background-color: transparent ; text-align: justify&quot;&gt;当代中国社会问题透视&lt;/span&gt;&lt;br&gt;&lt;span style=&quot;background-color: transparent ; text-align: justify ; font-size: 11px&quot;&gt;Perspectives on Contemporary Chinese Social Issues&lt;/span&gt;&lt;br&gt;&lt;font style=&quot;font-size: 11px ; background-color: transparent ; text-align: justify&quot;&gt;&lt;span lang=&quot;zh-CN&quot;&gt;形势与政策&amp;nbsp;&lt;/span&gt;&lt;/font&gt;&lt;font style=&quot;font-size: 11px ; background-color: transparent ; text-align: justify&quot;&gt;Situation and Policy&lt;/font&gt;&lt;br&gt;&lt;font style=&quot;text-align: justify ; background-color: transparent&quot;&gt;&lt;span lang=&quot;zh-CN&quot;&gt;中西文化比较&lt;/span&gt;&lt;/font&gt;&lt;font style=&quot;text-align: justify ; background-color: transparent&quot;&gt;Comparison&lt;/font&gt;&lt;br&gt;&lt;span style=&quot;background-color: transparent ; text-align: justify ; font-size: 11px&quot;&gt;of Chinese and Western Culture&lt;/span&gt;&lt;br&gt;&lt;span style=&quot;background-color: transparent ; text-align: justify&quot;&gt;大学生心理健康与发展&lt;/span&gt;&lt;br&gt;&lt;span style=&quot;background-color: transparent ; text-align: justify ; font-size: 11px&quot;&gt;College Student Mental Health and Development&lt;/span&gt;&lt;br&gt;&lt;font style=&quot;font-size: 11px ; background-color: transparent ; text-align: justify&quot;&gt;&lt;span lang=&quot;zh-CN&quot;&gt;军训&amp;nbsp;&lt;/span&gt;&lt;/font&gt;&lt;font style=&quot;font-size: 11px ; background-color: transparent ; text-align: justify&quot;&gt;MilitaryTraining&lt;/font&gt;&lt;/font&gt;&lt;br&gt;&lt;p&gt;&lt;/p&gt;&lt;p class=&quot;western&quot; style=&quot;margin-bottom: 0in ; line-height: 100% ; background: transparent ; font-size: 11px&quot;&gt;&lt;/p&gt;&lt;p&gt;&lt;/p&gt;&lt;p class=&quot;western&quot; style=&quot;margin-bottom: 0in ; line-height: 100% ; background: transparent ; font-size: 11px&quot;&gt;&lt;/p&gt;&lt;p&gt;&lt;/p&gt;&lt;p class=&quot;western&quot; style=&quot;margin-bottom: 0in ; line-height: 100% ; background: transparent ; font-size: 11px&quot;&gt;&lt;/p&gt;&lt;p&gt;&lt;/p&gt;&lt;p class=&quot;western&quot; style=&quot;margin-bottom: 0in ; line-height: 100% ; background: transparent ; font-size: 11px&quot;&gt;&lt;/p&gt;&lt;p&gt;&lt;/p&gt;&lt;p class=&quot;western&quot; style=&quot;margin-bottom: 0in ; line-height: 100% ; background: transparent ; font-size: 11px&quot;&gt;&lt;/p&gt;&lt;p&gt;&lt;/p&gt;&lt;p class=&quot;western&quot; style=&quot;margin-bottom: 0in ; line-height: 100% ; background: transparent ; font-size: 11px&quot;&gt;&lt;/p&gt;&lt;p&gt;&lt;/p&gt;&lt;p class=&quot;western&quot; style=&quot;margin-bottom: 0in ; line-height: 100% ; background: transparent ; font-size: 11px&quot;&gt;&lt;/p&gt;&lt;p&gt;&lt;/p&gt;&lt;p class=&quot;western&quot; style=&quot;margin-bottom: 0in ; line-height: 100% ; background: transparent ; font-size: 11px&quot;&gt;&lt;/p&gt;&lt;p&gt;&lt;/p&gt;&lt;p class=&quot;western&quot; style=&quot;margin-bottom: 0in ; line-height: 100% ; background: transparent ; font-size: 11px&quot;&gt;&lt;/p&gt;&lt;p&gt;&lt;/p&gt;&lt;p class=&quot;western&quot; style=&quot;margin-bottom: 0in ; line-height: 100% ; background: transparent ; font-size: 11px&quot;&gt;&lt;/p&gt;&lt;p&gt;&lt;/p&gt;" style="whiteSpace=wrap;html=1;strokeColor=default;verticalAlign=bottom;align=left;" parent="1" vertex="1">
          <mxGeometry x="1014.67" y="444" width="173.17" height="395" as="geometry" />
        </mxCell>
        <mxCell id="qGcv9CCfLaphZMbWW0hr-257" value="&lt;font face=&quot;Times New Roman&quot;&gt;&lt;span style=&quot;background-color: transparent ; font-family: , &amp;#34;simsun&amp;#34; ; font-size: 11px&quot;&gt;信息系统分析与设计&lt;/span&gt;&lt;br&gt;&lt;span style=&quot;background-color: transparent ; font-size: 11px&quot;&gt;Information System Analysis and Design&lt;/span&gt;&lt;br&gt;&lt;span style=&quot;background-color: transparent ; font-family: , &amp;#34;simsun&amp;#34; ; font-size: 11px&quot;&gt;信息分析与决策支持&lt;/span&gt;&lt;br&gt;&lt;span style=&quot;background-color: transparent ; font-size: 11px&quot;&gt;Information&amp;nbsp;&lt;/span&gt;&lt;span style=&quot;background-color: transparent ; font-size: 11px&quot;&gt;Analysis and Decision Support&lt;/span&gt;&lt;br&gt;&lt;font style=&quot;background-color: transparent&quot;&gt;IT&lt;/font&gt;&lt;font style=&quot;background-color: transparent&quot;&gt;&lt;span lang=&quot;zh-CN&quot;&gt;项目管理&lt;/span&gt;&lt;/font&gt;&lt;br&gt;&lt;span style=&quot;background-color: transparent&quot;&gt;IT project management&lt;/span&gt;&lt;br&gt;&lt;font style=&quot;background-color: transparent&quot;&gt;ERP&lt;/font&gt;&lt;font style=&quot;background-color: transparent&quot;&gt;&lt;span lang=&quot;zh-CN&quot;&gt;管理与应用&lt;/span&gt;&lt;/font&gt;&lt;br&gt;&lt;span style=&quot;background-color: transparent&quot;&gt;ERP&amp;nbsp;&lt;/span&gt;&lt;span style=&quot;background-color: transparent&quot;&gt;Management and Applications&lt;/span&gt;&lt;br&gt;&lt;font style=&quot;background-color: transparent&quot;&gt;&lt;span lang=&quot;zh-CN&quot;&gt;电子商务概论&lt;/span&gt;&lt;/font&gt;&lt;font style=&quot;background-color: transparent&quot;&gt;Introduction&lt;/font&gt;&lt;br&gt;&lt;span style=&quot;background-color: transparent&quot;&gt;to E-Commerce&lt;/span&gt;&lt;br&gt;&lt;font style=&quot;background-color: transparent&quot;&gt;&lt;span lang=&quot;zh-CN&quot;&gt;系统工程&lt;/span&gt;&lt;/font&gt;&lt;font style=&quot;background-color: transparent&quot;&gt;Systems&lt;/font&gt;&lt;br&gt;&lt;span style=&quot;background-color: transparent&quot;&gt;Engineering&lt;/span&gt;&lt;br&gt;&lt;span style=&quot;background-color: transparent ; font-family: , &amp;#34;simsun&amp;#34;&quot;&gt;微观经济学&lt;/span&gt;&lt;br&gt;&lt;span style=&quot;background-color: transparent&quot;&gt;Microeconomics&lt;/span&gt;&lt;br&gt;&lt;span style=&quot;background-color: transparent ; font-family: , &amp;#34;simsun&amp;#34;&quot;&gt;管理学原理&lt;/span&gt;&lt;br&gt;&lt;span style=&quot;background-color: transparent&quot;&gt;Principles&amp;nbsp;&lt;/span&gt;&lt;span style=&quot;background-color: transparent&quot;&gt;of Management&lt;/span&gt;&lt;br&gt;&lt;font style=&quot;background-color: transparent&quot;&gt;&lt;span lang=&quot;zh-CN&quot;&gt;会计学原理&lt;/span&gt;&lt;/font&gt;&lt;/font&gt;&lt;font style=&quot;background-color: transparent&quot;&gt;&lt;font face=&quot;Times New Roman&quot;&gt;Principles o&lt;span style=&quot;background-color: transparent&quot;&gt;f Accounting&lt;/span&gt;&lt;/font&gt;&lt;br&gt;&lt;/font&gt;&lt;p&gt;&lt;/p&gt;" style="whiteSpace=wrap;html=1;strokeColor=default;align=left;" parent="1" vertex="1">
          <mxGeometry x="1187.83" y="524" width="173.17" height="315" as="geometry" />
        </mxCell>
        <mxCell id="qGcv9CCfLaphZMbWW0hr-252" value="&lt;div style=&quot;text-align: left&quot;&gt;&lt;font face=&quot;Times New Roman&quot;&gt;&lt;font style=&quot;background-color: transparent&quot;&gt;C&lt;/font&gt;&lt;font style=&quot;background-color: transparent&quot;&gt;&lt;span lang=&quot;zh-CN&quot;&gt;语言程序设计&amp;nbsp;&lt;/span&gt;&lt;/font&gt;&lt;/font&gt;&lt;/div&gt;&lt;font face=&quot;Times New Roman&quot;&gt;&lt;font style=&quot;background-color: transparent&quot;&gt;&lt;div style=&quot;text-align: left&quot;&gt;&lt;font style=&quot;background-color: transparent&quot;&gt;C&amp;nbsp;&lt;/font&gt;&lt;span style=&quot;background-color: transparent&quot;&gt;programming language&lt;/span&gt;&lt;/div&gt;&lt;/font&gt;&lt;span style=&quot;background-color: transparent&quot;&gt;&lt;div style=&quot;text-align: left&quot;&gt;&lt;span style=&quot;background-color: transparent&quot;&gt;面向对象程序设计&lt;/span&gt;&lt;/div&gt;&lt;/span&gt;&lt;span style=&quot;background-color: transparent&quot;&gt;&lt;div style=&quot;text-align: left&quot;&gt;&lt;span style=&quot;background-color: transparent&quot;&gt;Object Oriented Programming&lt;/span&gt;&lt;/div&gt;&lt;/span&gt;&lt;font style=&quot;background-color: transparent&quot;&gt;&lt;div style=&quot;text-align: left&quot;&gt;&lt;font style=&quot;background-color: transparent&quot;&gt;Java&lt;/font&gt;&lt;font style=&quot;background-color: transparent&quot;&gt;&lt;span lang=&quot;zh-CN&quot;&gt;语言程序设计&lt;/span&gt;&lt;/font&gt;&lt;/div&gt;&lt;/font&gt;&lt;span style=&quot;background-color: transparent&quot;&gt;&lt;div style=&quot;text-align: left&quot;&gt;&lt;span style=&quot;background-color: transparent&quot;&gt;Java Language Programming&lt;/span&gt;&lt;/div&gt;&lt;/span&gt;&lt;font style=&quot;background-color: transparent&quot;&gt;&lt;div style=&quot;text-align: left&quot;&gt;&lt;font style=&quot;background-color: transparent&quot;&gt;J2EE&lt;/font&gt;&lt;font style=&quot;background-color: transparent&quot;&gt;&lt;span lang=&quot;zh-CN&quot;&gt;技术&amp;nbsp;&lt;/span&gt;&lt;/font&gt;&lt;font style=&quot;background-color: transparent&quot;&gt;J2EE technology&lt;/font&gt;&lt;/div&gt;&lt;/font&gt;&lt;font style=&quot;background-color: transparent&quot;&gt;&lt;div style=&quot;text-align: left&quot;&gt;&lt;font style=&quot;background-color: transparent&quot;&gt;Web&lt;/font&gt;&lt;font style=&quot;background-color: transparent&quot;&gt;&lt;span lang=&quot;zh-CN&quot;&gt;技术及应用&lt;/span&gt;&lt;/font&gt;&lt;/div&gt;&lt;/font&gt;&lt;span style=&quot;background-color: transparent&quot;&gt;&lt;div style=&quot;text-align: left&quot;&gt;&lt;span style=&quot;background-color: transparent&quot;&gt;WebTechnologies and Applications&lt;/span&gt;&lt;/div&gt;&lt;/span&gt;&lt;font style=&quot;background-color: transparent ; font-family: , &amp;#34;simsun&amp;#34;&quot;&gt;&lt;div style=&quot;text-align: left&quot;&gt;&lt;font style=&quot;background-color: transparent&quot;&gt;&lt;span lang=&quot;zh-CN&quot;&gt;数据结构&lt;/span&gt;&lt;/font&gt;&lt;font style=&quot;background-color: transparent&quot;&gt;Data Structure&lt;/font&gt;&lt;/div&gt;&lt;/font&gt;&lt;span style=&quot;background-color: transparent&quot;&gt;&lt;div style=&quot;text-align: left&quot;&gt;&lt;span style=&quot;background-color: transparent&quot;&gt;计算机组成与系统结构&lt;/span&gt;&lt;/div&gt;&lt;/span&gt;&lt;span style=&quot;background-color: transparent&quot;&gt;&lt;div style=&quot;text-align: left&quot;&gt;&lt;span style=&quot;background-color: transparent&quot;&gt;Computer Composition and System Architecture&lt;/span&gt;&lt;/div&gt;&lt;/span&gt;&lt;span style=&quot;background-color: transparent&quot;&gt;&lt;div style=&quot;text-align: left&quot;&gt;&lt;span style=&quot;background-color: transparent&quot;&gt;数据库原理与应用&lt;/span&gt;&lt;/div&gt;&lt;/span&gt;&lt;span style=&quot;background-color: transparent&quot;&gt;&lt;div style=&quot;text-align: left&quot;&gt;&lt;span style=&quot;background-color: transparent&quot;&gt;Database Principles and Applications&lt;/span&gt;&lt;/div&gt;&lt;/span&gt;&lt;font style=&quot;background-color: transparent ; font-family: , &amp;#34;simsun&amp;#34;&quot;&gt;&lt;div style=&quot;text-align: left&quot;&gt;&lt;font style=&quot;background-color: transparent&quot;&gt;&lt;span lang=&quot;zh-CN&quot;&gt;计算机网络&amp;nbsp;&lt;/span&gt;&lt;/font&gt;&lt;font style=&quot;background-color: transparent&quot;&gt;Computer Networks&lt;/font&gt;&lt;/div&gt;&lt;/font&gt;&lt;font style=&quot;background-color: transparent ; font-family: , &amp;#34;simsun&amp;#34;&quot;&gt;&lt;div style=&quot;text-align: left&quot;&gt;&lt;font style=&quot;background-color: transparent&quot;&gt;&lt;span lang=&quot;zh-CN&quot;&gt;操作系统&amp;nbsp;&lt;/span&gt;&lt;/font&gt;&lt;font style=&quot;background-color: transparent&quot;&gt;Operating Systems&lt;/font&gt;&lt;/div&gt;&lt;/font&gt;&lt;span style=&quot;background-color: transparent&quot;&gt;&lt;div style=&quot;text-align: left&quot;&gt;&lt;span style=&quot;background-color: transparent&quot;&gt;Linux&amp;nbsp;&lt;/span&gt;&lt;/div&gt;&lt;/span&gt;&lt;font style=&quot;background-color: transparent ; font-family: , &amp;#34;simsun&amp;#34;&quot;&gt;&lt;div style=&quot;text-align: left&quot;&gt;&lt;font style=&quot;background-color: transparent&quot;&gt;&lt;span lang=&quot;zh-CN&quot;&gt;数字逻辑与数字系统&lt;/span&gt;&lt;/font&gt;&lt;font style=&quot;background-color: transparent&quot;&gt;Digital&lt;br&gt;Logic and Digital Systems&lt;/font&gt;&lt;/div&gt;&lt;/font&gt;&lt;span style=&quot;background-color: transparent&quot;&gt;&lt;div style=&quot;text-align: left&quot;&gt;&lt;span style=&quot;background-color: transparent&quot;&gt;嵌入式系统及应用&lt;/span&gt;&lt;/div&gt;&lt;/span&gt;&lt;span style=&quot;background-color: transparent&quot;&gt;&lt;div style=&quot;text-align: left&quot;&gt;&lt;span style=&quot;background-color: transparent&quot;&gt;Embedded Systems and Applications&lt;/span&gt;&lt;/div&gt;&lt;/span&gt;&lt;span style=&quot;background-color: transparent&quot;&gt;&lt;div style=&quot;text-align: left&quot;&gt;&lt;span style=&quot;background-color: transparent&quot;&gt;多媒体技术与应用&lt;/span&gt;&lt;/div&gt;&lt;/span&gt;&lt;span style=&quot;background-color: transparent&quot;&gt;&lt;div style=&quot;text-align: left&quot;&gt;&lt;span style=&quot;background-color: transparent&quot;&gt;Multimedia&amp;nbsp;&lt;/span&gt;&lt;span style=&quot;background-color: transparent&quot;&gt;technology and application&lt;/span&gt;&lt;/div&gt;&lt;/span&gt;&lt;span style=&quot;background-color: transparent ; font-family: , &amp;#34;simsun&amp;#34;&quot;&gt;&lt;div style=&quot;text-align: left&quot;&gt;&lt;span style=&quot;background-color: transparent&quot;&gt;信息安全技术&lt;/span&gt;&lt;/div&gt;&lt;/span&gt;&lt;font style=&quot;background-color: transparent&quot;&gt;&lt;div style=&quot;text-align: left&quot;&gt;&lt;font style=&quot;background-color: transparent&quot;&gt;Information&amp;nbsp;&lt;/font&gt;&lt;span style=&quot;background-color: transparent&quot;&gt;Security Technology&lt;/span&gt;&lt;/div&gt;&lt;/font&gt;&lt;font style=&quot;background-color: transparent&quot;&gt;&lt;div style=&quot;text-align: left&quot;&gt;&lt;font style=&quot;background-color: transparent&quot;&gt;&lt;span lang=&quot;zh-CN&quot;&gt;人工智能与专家系统&lt;/span&gt;&lt;/font&gt;&lt;font style=&quot;background-color: transparent&quot;&gt;Artificial&lt;/font&gt;&lt;/div&gt;&lt;/font&gt;&lt;font style=&quot;font-size: 12px&quot;&gt;&lt;span style=&quot;background-color: transparent&quot;&gt;&lt;div style=&quot;text-align: left&quot;&gt;&lt;span style=&quot;background-color: transparent&quot;&gt;Intelligence and Expert Systems&lt;/span&gt;&lt;/div&gt;&lt;/span&gt;&lt;/font&gt;&lt;/font&gt;&lt;div style=&quot;font-size: 11px&quot;&gt;&lt;p class=&quot;western&quot; style=&quot;text-align: left ; margin-bottom: 0in ; line-height: 100% ; background: transparent&quot;&gt;&lt;font style=&quot;font-size: 11px&quot;&gt;&lt;/font&gt;&lt;/p&gt;&lt;/div&gt;&lt;div style=&quot;text-align: justify&quot;&gt;&lt;/div&gt;" style="whiteSpace=wrap;html=1;strokeColor=default;" parent="1" vertex="1">
          <mxGeometry x="814" y="414" width="200.67" height="425" as="geometry" />
        </mxCell>
        <mxCell id="qGcv9CCfLaphZMbWW0hr-268" value="Programming &amp;amp;&lt;br&gt;Computer Science" style="text;html=1;strokeColor=none;fillColor=none;align=left;verticalAlign=middle;whiteSpace=wrap;rounded=0;shadow=0;fontSize=16;fontStyle=1" parent="1" vertex="1">
          <mxGeometry x="839.67" y="378" width="170" height="30" as="geometry" />
        </mxCell>
        <mxCell id="qGcv9CCfLaphZMbWW0hr-269" value="Information System &amp;amp;&lt;br&gt;Management" style="text;html=1;strokeColor=none;fillColor=none;align=left;verticalAlign=middle;whiteSpace=wrap;rounded=0;shadow=0;fontSize=16;fontStyle=1" parent="1" vertex="1">
          <mxGeometry x="1189.4099999999999" y="488" width="170" height="30" as="geometry" />
        </mxCell>
        <mxCell id="qGcv9CCfLaphZMbWW0hr-271" value="MISC" style="text;html=1;strokeColor=none;fillColor=none;align=center;verticalAlign=middle;whiteSpace=wrap;rounded=0;shadow=0;fontSize=16;fontStyle=1" parent="1" vertex="1">
          <mxGeometry x="1014" y="421" width="170" height="30" as="geometry" />
        </mxCell>
        <mxCell id="qGcv9CCfLaphZMbWW0hr-274" value="&lt;blockquote style=&quot;margin: 0 0 0 40px ; border: none ; padding: 0px&quot;&gt;&lt;/blockquote&gt;&lt;font face=&quot;Times New Roman&quot;&gt;&lt;span style=&quot;background-color: transparent&quot;&gt;计算机技能训练&amp;nbsp;&lt;/span&gt;&lt;br&gt;&lt;/font&gt;&lt;blockquote style=&quot;margin: 0 0 0 40px ; border: none ; padding: 0px&quot;&gt;&lt;/blockquote&gt;&lt;font face=&quot;Times New Roman&quot;&gt;&lt;span style=&quot;background-color: transparent&quot;&gt;Computer Skills Training&lt;/span&gt;&lt;br&gt;&lt;/font&gt;&lt;blockquote style=&quot;margin: 0 0 0 40px ; border: none ; padding: 0px&quot;&gt;&lt;/blockquote&gt;&lt;font face=&quot;Times New Roman&quot;&gt;&lt;font style=&quot;background-color: transparent&quot;&gt;&lt;span lang=&quot;zh-CN&quot;&gt;数据结构与&lt;/span&gt;&lt;/font&gt;&lt;font style=&quot;background-color: transparent&quot;&gt;C&lt;/font&gt;&lt;font style=&quot;background-color: transparent&quot;&gt;&lt;span lang=&quot;zh-CN&quot;&gt;语言综合训练&lt;/span&gt;&lt;/font&gt;&lt;br&gt;&lt;/font&gt;&lt;blockquote style=&quot;margin: 0 0 0 40px ; border: none ; padding: 0px&quot;&gt;&lt;/blockquote&gt;&lt;font face=&quot;Times New Roman&quot;&gt;Comprehensive training in data structures and C language&lt;br&gt;&lt;span style=&quot;font-family: , &amp;#34;simsun&amp;#34; ; background-color: transparent&quot;&gt;电子工艺实习&lt;/span&gt;&lt;br&gt;&lt;/font&gt;&lt;blockquote style=&quot;margin: 0 0 0 40px ; border: none ; padding: 0px&quot;&gt;&lt;/blockquote&gt;&lt;font face=&quot;Times New Roman&quot;&gt;&lt;span style=&quot;background-color: transparent&quot;&gt;Hands-on Electronics Process&amp;nbsp;&lt;/span&gt;&lt;br&gt;&lt;/font&gt;&lt;blockquote style=&quot;margin: 0 0 0 40px ; border: none ; padding: 0px&quot;&gt;&lt;/blockquote&gt;&lt;font face=&quot;Times New Roman&quot;&gt;&lt;span style=&quot;background-color: transparent&quot;&gt;数据库设计&lt;/span&gt;&lt;br&gt;&lt;/font&gt;&lt;blockquote style=&quot;margin: 0 0 0 40px ; border: none ; padding: 0px&quot;&gt;&lt;/blockquote&gt;&lt;font face=&quot;Times New Roman&quot;&gt;&lt;span style=&quot;background-color: transparent&quot;&gt;Database Design&lt;/span&gt;&lt;br&gt;&lt;span style=&quot;font-family: , &amp;#34;simsun&amp;#34; ; background-color: transparent&quot;&gt;面向对象编程实践&lt;/span&gt;&lt;br&gt;&lt;/font&gt;&lt;blockquote style=&quot;margin: 0 0 0 40px ; border: none ; padding: 0px&quot;&gt;&lt;/blockquote&gt;&lt;font face=&quot;Times New Roman&quot;&gt;&lt;span style=&quot;background-color: transparent&quot;&gt;Object-oriented programming practice&lt;/span&gt;&lt;br&gt;&lt;/font&gt;&lt;blockquote style=&quot;margin: 0 0 0 40px ; border: none ; padding: 0px&quot;&gt;&lt;/blockquote&gt;&lt;font face=&quot;Times New Roman&quot;&gt;&lt;span style=&quot;background-color: transparent&quot;&gt;院企联合实习&lt;/span&gt;&lt;br&gt;&lt;/font&gt;&lt;blockquote style=&quot;margin: 0 0 0 40px ; border: none ; padding: 0px&quot;&gt;&lt;/blockquote&gt;&lt;font face=&quot;Times New Roman&quot;&gt;&lt;span style=&quot;background-color: transparent&quot;&gt;Joint internship between faculty and enterprises&lt;/span&gt;&lt;br&gt;&lt;/font&gt;&lt;blockquote style=&quot;margin: 0 0 0 40px ; border: none ; padding: 0px&quot;&gt;&lt;/blockquote&gt;&lt;font face=&quot;Times New Roman&quot;&gt;&lt;span style=&quot;background-color: transparent&quot;&gt;社会实践活动&lt;/span&gt;&lt;br&gt;&lt;/font&gt;&lt;font style=&quot;background-color: transparent ; font-size: 12px&quot;&gt;&lt;font style=&quot;font-size: 12px&quot;&gt;&lt;font face=&quot;Times New Roman&quot;&gt;Social Practice Activities&lt;br&gt;&lt;font style=&quot;background-color: transparent ; font-size: 11px ; text-align: justify&quot;&gt;&lt;span lang=&quot;zh-CN&quot;&gt;工程训练&amp;nbsp;&lt;/span&gt;&lt;/font&gt;&lt;font style=&quot;background-color: transparent ; font-size: 11px ; text-align: justify&quot;&gt;EngineeringTraining&lt;/font&gt;&lt;/font&gt;&lt;br&gt;&lt;/font&gt;&lt;/font&gt;&lt;p&gt;&lt;/p&gt;" style="whiteSpace=wrap;html=1;strokeColor=default;align=left;" parent="1" vertex="1">
          <mxGeometry x="1361" y="564" width="173.17" height="275" as="geometry" />
        </mxCell>
        <mxCell id="qGcv9CCfLaphZMbWW0hr-275" value="Hands-on and practice" style="text;html=1;strokeColor=none;fillColor=none;align=left;verticalAlign=middle;whiteSpace=wrap;rounded=0;shadow=0;fontSize=16;fontStyle=1" parent="1" vertex="1">
          <mxGeometry x="1361" y="536" width="183" height="30" as="geometry" />
        </mxCell>
        <mxCell id="qGcv9CCfLaphZMbWW0hr-329" value="Python in remote server&amp;nbsp;&lt;br&gt;Slurm" style="whiteSpace=wrap;html=1;strokeColor=default;" parent="1" vertex="1">
          <mxGeometry x="1317" y="1267" width="120" height="60" as="geometry" />
        </mxCell>
        <mxCell id="qGcv9CCfLaphZMbWW0hr-279" value="Python in Pycharm&lt;br&gt;Tensorflow Keras" style="whiteSpace=wrap;html=1;strokeColor=default;" parent="1" vertex="1">
          <mxGeometry x="1116" y="1267" width="120" height="60" as="geometry" />
        </mxCell>
        <mxCell id="qGcv9CCfLaphZMbWW0hr-330" value="" style="edgeStyle=orthogonalEdgeStyle;rounded=0;orthogonalLoop=1;jettySize=auto;html=1;fontFamily=Times New Roman;fontSize=12;" parent="1" source="qGcv9CCfLaphZMbWW0hr-279" target="qGcv9CCfLaphZMbWW0hr-329" edge="1">
          <mxGeometry relative="1" as="geometry" />
        </mxCell>
        <mxCell id="qGcv9CCfLaphZMbWW0hr-280" value="" style="edgeStyle=orthogonalEdgeStyle;rounded=0;orthogonalLoop=1;jettySize=auto;html=1;fontFamily=Times New Roman;fontSize=12;" parent="1" source="qGcv9CCfLaphZMbWW0hr-277" target="qGcv9CCfLaphZMbWW0hr-279" edge="1">
          <mxGeometry relative="1" as="geometry" />
        </mxCell>
        <mxCell id="qGcv9CCfLaphZMbWW0hr-41" value="&lt;h1&gt;1992-05-08&lt;/h1&gt;&lt;div&gt;出生&lt;/div&gt;&lt;div&gt;Born&lt;/div&gt;" style="text;html=1;spacing=5;spacingTop=-20;whiteSpace=wrap;overflow=hidden;rounded=0;strokeColor=default;" parent="1" vertex="1">
          <mxGeometry x="14" y="16" width="190" height="90" as="geometry" />
        </mxCell>
        <mxCell id="qGcv9CCfLaphZMbWW0hr-45" value="&lt;h1&gt;1997-2005&lt;/h1&gt;&lt;div&gt;幼儿园，学前班，小学&lt;/div&gt;&lt;div&gt;Kindergarten, preschool, elementary school&lt;br&gt;&lt;/div&gt;" style="text;html=1;spacing=5;spacingTop=-20;whiteSpace=wrap;overflow=hidden;rounded=0;strokeColor=default;" parent="1" vertex="1">
          <mxGeometry x="14" y="136" width="190" height="92" as="geometry" />
        </mxCell>
        <mxCell id="qGcv9CCfLaphZMbWW0hr-46" value="" style="edgeStyle=orthogonalEdgeStyle;rounded=0;orthogonalLoop=1;jettySize=auto;html=1;" parent="1" source="qGcv9CCfLaphZMbWW0hr-41" target="qGcv9CCfLaphZMbWW0hr-45" edge="1">
          <mxGeometry relative="1" as="geometry" />
        </mxCell>
        <mxCell id="qGcv9CCfLaphZMbWW0hr-47" value="&lt;h1&gt;2005-2008&lt;/h1&gt;&lt;div&gt;初中&lt;/div&gt;&lt;div&gt;Junior High School&lt;br&gt;&lt;/div&gt;" style="text;html=1;spacing=5;spacingTop=-20;whiteSpace=wrap;overflow=hidden;rounded=0;strokeColor=default;" parent="1" vertex="1">
          <mxGeometry x="14" y="282" width="190" height="80" as="geometry" />
        </mxCell>
        <mxCell id="qGcv9CCfLaphZMbWW0hr-48" value="" style="edgeStyle=orthogonalEdgeStyle;rounded=0;orthogonalLoop=1;jettySize=auto;html=1;" parent="1" source="qGcv9CCfLaphZMbWW0hr-45" target="qGcv9CCfLaphZMbWW0hr-47" edge="1">
          <mxGeometry relative="1" as="geometry" />
        </mxCell>
        <mxCell id="qGcv9CCfLaphZMbWW0hr-261" value="" style="edgeStyle=orthogonalEdgeStyle;rounded=0;orthogonalLoop=1;jettySize=auto;html=1;" parent="1" source="qGcv9CCfLaphZMbWW0hr-49" target="qGcv9CCfLaphZMbWW0hr-67" edge="1">
          <mxGeometry relative="1" as="geometry" />
        </mxCell>
        <mxCell id="qGcv9CCfLaphZMbWW0hr-49" value="&lt;h1&gt;2008-2011&lt;/h1&gt;&lt;div&gt;高中&lt;/div&gt;&lt;div&gt;High School&lt;br&gt;&lt;/div&gt;" style="text;html=1;spacing=5;spacingTop=-20;whiteSpace=wrap;overflow=hidden;rounded=0;strokeColor=default;" parent="1" vertex="1">
          <mxGeometry x="14" y="423" width="190" height="80" as="geometry" />
        </mxCell>
        <mxCell id="qGcv9CCfLaphZMbWW0hr-50" value="" style="edgeStyle=orthogonalEdgeStyle;rounded=0;orthogonalLoop=1;jettySize=auto;html=1;" parent="1" source="qGcv9CCfLaphZMbWW0hr-47" target="qGcv9CCfLaphZMbWW0hr-49" edge="1">
          <mxGeometry relative="1" as="geometry" />
        </mxCell>
        <mxCell id="qGcv9CCfLaphZMbWW0hr-59" value="" style="whiteSpace=wrap;html=1;align=left;verticalAlign=top;fillColor=none;gradientColor=none;spacing=5;spacingTop=-20;rounded=0;" parent="1" vertex="1">
          <mxGeometry x="319" y="152" width="120" height="60" as="geometry" />
        </mxCell>
        <mxCell id="qGcv9CCfLaphZMbWW0hr-60" value="" style="edgeStyle=orthogonalEdgeStyle;rounded=0;orthogonalLoop=1;jettySize=auto;html=1;" parent="1" source="qGcv9CCfLaphZMbWW0hr-45" target="qGcv9CCfLaphZMbWW0hr-59" edge="1">
          <mxGeometry relative="1" as="geometry" />
        </mxCell>
        <mxCell id="qGcv9CCfLaphZMbWW0hr-61" value="学前教育，初等教育&lt;br&gt;Pre-school education, primary education" style="text;html=1;strokeColor=none;fillColor=none;align=center;verticalAlign=middle;whiteSpace=wrap;rounded=0;" parent="1" vertex="1">
          <mxGeometry x="322" y="152" width="115" height="60" as="geometry" />
        </mxCell>
        <mxCell id="qGcv9CCfLaphZMbWW0hr-62" value="" style="whiteSpace=wrap;html=1;align=left;verticalAlign=top;fillColor=none;gradientColor=none;spacing=5;spacingTop=-20;rounded=0;" parent="1" vertex="1">
          <mxGeometry x="319" y="292" width="120" height="60" as="geometry" />
        </mxCell>
        <mxCell id="qGcv9CCfLaphZMbWW0hr-63" value="" style="edgeStyle=orthogonalEdgeStyle;rounded=0;orthogonalLoop=1;jettySize=auto;html=1;" parent="1" source="qGcv9CCfLaphZMbWW0hr-47" target="qGcv9CCfLaphZMbWW0hr-62" edge="1">
          <mxGeometry relative="1" as="geometry" />
        </mxCell>
        <mxCell id="qGcv9CCfLaphZMbWW0hr-64" value="初级中等教育&lt;br&gt;Primary Secondary Education" style="text;html=1;strokeColor=none;fillColor=none;align=center;verticalAlign=middle;whiteSpace=wrap;rounded=0;" parent="1" vertex="1">
          <mxGeometry x="322" y="292" width="115" height="60" as="geometry" />
        </mxCell>
        <mxCell id="qGcv9CCfLaphZMbWW0hr-82" value="" style="whiteSpace=wrap;html=1;strokeColor=default;" parent="1" vertex="1">
          <mxGeometry x="514.5" y="292" width="120" height="60" as="geometry" />
        </mxCell>
        <mxCell id="qGcv9CCfLaphZMbWW0hr-83" value="" style="edgeStyle=orthogonalEdgeStyle;rounded=0;orthogonalLoop=1;jettySize=auto;html=1;" parent="1" source="qGcv9CCfLaphZMbWW0hr-64" target="qGcv9CCfLaphZMbWW0hr-82" edge="1">
          <mxGeometry relative="1" as="geometry" />
        </mxCell>
        <mxCell id="qGcv9CCfLaphZMbWW0hr-152" value="&lt;ul&gt;&lt;li&gt;&lt;span&gt;语文 Chinese&amp;nbsp;&lt;/span&gt;&lt;/li&gt;&lt;li&gt;&lt;span&gt;数学 Math&lt;/span&gt;&lt;/li&gt;&lt;li&gt;&lt;span&gt;英语 English&lt;/span&gt;&lt;/li&gt;&lt;/ul&gt;" style="text;html=1;strokeColor=none;fillColor=none;align=left;verticalAlign=middle;whiteSpace=wrap;rounded=0;" parent="1" vertex="1">
          <mxGeometry x="499" y="292" width="130" height="60" as="geometry" />
        </mxCell>
        <mxCell id="qGcv9CCfLaphZMbWW0hr-155" style="edgeStyle=orthogonalEdgeStyle;rounded=0;orthogonalLoop=1;jettySize=auto;html=1;" parent="1" source="qGcv9CCfLaphZMbWW0hr-61" target="qGcv9CCfLaphZMbWW0hr-152" edge="1">
          <mxGeometry relative="1" as="geometry" />
        </mxCell>
        <mxCell id="qGcv9CCfLaphZMbWW0hr-158" style="edgeStyle=orthogonalEdgeStyle;rounded=0;orthogonalLoop=1;jettySize=auto;html=1;exitX=0.5;exitY=1;exitDx=0;exitDy=0;" parent="1" edge="1">
          <mxGeometry relative="1" as="geometry">
            <mxPoint x="644" y="566.5" as="sourcePoint" />
            <mxPoint x="644" y="566.5" as="targetPoint" />
          </mxGeometry>
        </mxCell>
        <mxCell id="qGcv9CCfLaphZMbWW0hr-161" value="人文科学 Humanities&lt;br&gt;历史 History" style="rounded=0;whiteSpace=wrap;html=1;shadow=0;strokeColor=#d79b00;fillColor=#ffe6cc;align=left;" parent="1" vertex="1">
          <mxGeometry x="634.5" y="252" width="149.5" height="36" as="geometry" />
        </mxCell>
        <mxCell id="qGcv9CCfLaphZMbWW0hr-162" value="社会科学 Social Sciences&lt;br&gt;政治 Politics &lt;br&gt;地理 Geography" style="rounded=0;whiteSpace=wrap;html=1;shadow=0;strokeColor=#d6b656;fillColor=#FFFF66;align=left;" parent="1" vertex="1">
          <mxGeometry x="634.5" y="288" width="149.5" height="60" as="geometry" />
        </mxCell>
        <mxCell id="qGcv9CCfLaphZMbWW0hr-163" value="自然科学 Natural Sciences&lt;br&gt;物理 Physics &lt;br&gt;化学 Chemistry &lt;br&gt;生物 Biology &lt;br&gt;计算机 Computer Science" style="rounded=0;whiteSpace=wrap;html=1;shadow=0;strokeColor=#006EAF;fillColor=#1ba1e2;fontColor=#ffffff;align=left;" parent="1" vertex="1">
          <mxGeometry x="634.5" y="349" width="149.5" height="83" as="geometry" />
        </mxCell>
        <mxCell id="qGcv9CCfLaphZMbWW0hr-244" value="杂项 Misc&lt;br&gt;音乐 Music&lt;br&gt;美术 Arts&lt;br&gt;体育 Sports" style="rounded=0;whiteSpace=wrap;html=1;shadow=0;strokeColor=#2D7600;fillColor=#60a917;fontColor=#ffffff;align=left;" parent="1" vertex="1">
          <mxGeometry x="634.5" y="191" width="149.5" height="60" as="geometry" />
        </mxCell>
        <mxCell id="qGcv9CCfLaphZMbWW0hr-154" style="edgeStyle=orthogonalEdgeStyle;rounded=0;orthogonalLoop=1;jettySize=auto;html=1;entryX=0.5;entryY=1;entryDx=0;entryDy=0;" parent="1" source="qGcv9CCfLaphZMbWW0hr-67" target="qGcv9CCfLaphZMbWW0hr-152" edge="1">
          <mxGeometry relative="1" as="geometry" />
        </mxCell>
        <mxCell id="qGcv9CCfLaphZMbWW0hr-260" value="" style="group" parent="1" vertex="1" connectable="0">
          <mxGeometry x="319" y="434" width="120" height="60" as="geometry" />
        </mxCell>
        <mxCell id="qGcv9CCfLaphZMbWW0hr-65" value="" style="whiteSpace=wrap;html=1;align=left;verticalAlign=top;fillColor=none;gradientColor=none;spacing=5;spacingTop=-20;rounded=0;" parent="qGcv9CCfLaphZMbWW0hr-260" vertex="1">
          <mxGeometry width="120" height="60" as="geometry" />
        </mxCell>
        <mxCell id="qGcv9CCfLaphZMbWW0hr-67" value="高级中等教育&lt;br&gt;Higher Secondary Education" style="text;html=1;strokeColor=none;fillColor=none;align=center;verticalAlign=middle;whiteSpace=wrap;rounded=0;" parent="qGcv9CCfLaphZMbWW0hr-260" vertex="1">
          <mxGeometry x="3" y="-1" width="115" height="60" as="geometry" />
        </mxCell>
        <mxCell id="qGcv9CCfLaphZMbWW0hr-255" value="&lt;blockquote style=&quot;margin: 0 0 0 40px ; border: none ; padding: 0px&quot;&gt;&lt;/blockquote&gt;&lt;font face=&quot;Times New Roman&quot;&gt;&lt;div&gt;&lt;span style=&quot;background-color: transparent ; font-size: 11px&quot;&gt;学科导论&lt;/span&gt;&lt;/div&gt;&lt;/font&gt;&lt;blockquote style=&quot;margin: 0 0 0 40px ; border: none ; padding: 0px&quot;&gt;&lt;/blockquote&gt;&lt;font face=&quot;Times New Roman&quot;&gt;&lt;div&gt;&lt;span style=&quot;background-color: transparent ; font-size: 11px&quot;&gt;Introduction to Academic Subjects&lt;/span&gt;&lt;/div&gt;&lt;span style=&quot;background-color: transparent&quot;&gt;生命科学导论&lt;/span&gt;&lt;br&gt;&lt;span style=&quot;background-color: transparent ; font-size: 11px&quot;&gt;Introduction to Life Science&lt;/span&gt;&lt;br&gt;&lt;/font&gt;&lt;blockquote style=&quot;margin: 0 0 0 40px ; border: none ; padding: 0px&quot;&gt;&lt;/blockquote&gt;&lt;font face=&quot;Times New Roman&quot;&gt;&lt;div&gt;&lt;font style=&quot;background-color: transparent&quot;&gt;&lt;span lang=&quot;zh-CN&quot;&gt;高等数学&lt;/span&gt;&lt;/font&gt;&lt;span style=&quot;background-color: transparent&quot;&gt;Advanced Mathematics&lt;/span&gt;&lt;/div&gt;&lt;/font&gt;&lt;blockquote style=&quot;margin: 0 0 0 40px ; border: none ; padding: 0px&quot;&gt;&lt;/blockquote&gt;&lt;font face=&quot;Times New Roman&quot;&gt;&lt;div&gt;&lt;span style=&quot;background-color: transparent&quot;&gt;数学建模&lt;/span&gt;&lt;/div&gt;&lt;/font&gt;&lt;blockquote style=&quot;margin: 0 0 0 40px ; border: none ; padding: 0px&quot;&gt;&lt;/blockquote&gt;&lt;font face=&quot;Times New Roman&quot;&gt;&lt;div&gt;&lt;span style=&quot;background-color: transparent&quot;&gt;Mathematical Modeling&lt;/span&gt;&lt;/div&gt;&lt;/font&gt;&lt;blockquote style=&quot;margin: 0 0 0 40px ; border: none ; padding: 0px&quot;&gt;&lt;/blockquote&gt;&lt;font face=&quot;Times New Roman&quot;&gt;&lt;div&gt;&lt;span style=&quot;background-color: transparent&quot;&gt;计算方法&lt;/span&gt;&lt;/div&gt;&lt;/font&gt;&lt;blockquote style=&quot;margin: 0 0 0 40px ; border: none ; padding: 0px&quot;&gt;&lt;/blockquote&gt;&lt;font face=&quot;Times New Roman&quot;&gt;&lt;div&gt;&lt;span style=&quot;background-color: transparent&quot;&gt;Computing Methods&lt;/span&gt;&lt;/div&gt;&lt;/font&gt;&lt;blockquote style=&quot;margin: 0 0 0 40px ; border: none ; padding: 0px&quot;&gt;&lt;/blockquote&gt;&lt;font face=&quot;Times New Roman&quot;&gt;&lt;div&gt;&lt;span style=&quot;background-color: transparent&quot;&gt;概率论与数理统计&lt;/span&gt;&lt;/div&gt;&lt;/font&gt;&lt;blockquote style=&quot;margin: 0 0 0 40px ; border: none ; padding: 0px&quot;&gt;&lt;/blockquote&gt;&lt;font face=&quot;Times New Roman&quot;&gt;&lt;div&gt;&lt;span style=&quot;background-color: transparent&quot;&gt;Probability Theory and Mathematical Statistics&lt;/span&gt;&lt;/div&gt;&lt;/font&gt;&lt;blockquote style=&quot;margin: 0 0 0 40px ; border: none ; padding: 0px&quot;&gt;&lt;/blockquote&gt;&lt;font face=&quot;Times New Roman&quot;&gt;&lt;div&gt;&lt;font style=&quot;background-color: transparent&quot;&gt;&lt;span lang=&quot;zh-CN&quot;&gt;线性代数&lt;/span&gt;&lt;/font&gt;&lt;font style=&quot;background-color: transparent&quot;&gt;Linear Algebra&lt;/font&gt;&lt;/div&gt;&lt;/font&gt;&lt;blockquote style=&quot;margin: 0 0 0 40px ; border: none ; padding: 0px&quot;&gt;&lt;/blockquote&gt;&lt;font face=&quot;Times New Roman&quot;&gt;&lt;div&gt;&lt;font style=&quot;background-color: transparent&quot;&gt;&lt;span lang=&quot;zh-CN&quot;&gt;统计学原理&lt;/span&gt;&lt;/font&gt;&lt;font style=&quot;background-color: transparent&quot;&gt;Principles of statistics&lt;/font&gt;&lt;/div&gt;&lt;/font&gt;&lt;blockquote style=&quot;margin: 0 0 0 40px ; border: none ; padding: 0px&quot;&gt;&lt;/blockquote&gt;&lt;font face=&quot;Times New Roman&quot;&gt;&lt;div&gt;&lt;span style=&quot;background-color: transparent&quot;&gt;大学物理&lt;/span&gt;&lt;span style=&quot;background-color: transparent&quot;&gt;Physics&lt;/span&gt;&lt;/div&gt;&lt;font style=&quot;background-color: transparent&quot;&gt;&lt;div&gt;&lt;font style=&quot;background-color: transparent&quot;&gt;&lt;span lang=&quot;zh-CN&quot;&gt;大学英语&lt;/span&gt;&lt;/font&gt;&lt;font style=&quot;background-color: transparent&quot;&gt;English&lt;/font&gt;&lt;/div&gt;&lt;/font&gt;&lt;span style=&quot;background-color: transparent&quot;&gt;英文科技论文写作&lt;/span&gt;&lt;br&gt;&lt;/font&gt;&lt;div&gt;&lt;span style=&quot;background-color: transparent&quot;&gt;&lt;font face=&quot;Times New Roman&quot;&gt;English Science and Technology Paper Writing&lt;/font&gt;&lt;/span&gt;&lt;/div&gt;&lt;p class=&quot;western&quot; style=&quot;margin-bottom: 0in ; line-height: 100% ; background: transparent&quot;&gt;&lt;font style=&quot;font-size: 12px&quot;&gt;&lt;font style=&quot;font-size: 12px&quot;&gt;&lt;font style=&quot;font-size: 11px&quot;&gt;&lt;/font&gt;&lt;/font&gt;&lt;/font&gt;&lt;/p&gt;" style="whiteSpace=wrap;html=1;strokeColor=default;align=left;" parent="1" vertex="1">
          <mxGeometry x="664" y="504" width="150" height="335" as="geometry" />
        </mxCell>
        <mxCell id="qGcv9CCfLaphZMbWW0hr-267" value="Prerequisites" style="text;html=1;strokeColor=none;fillColor=none;align=center;verticalAlign=middle;whiteSpace=wrap;rounded=0;shadow=0;fontSize=16;fontStyle=1" parent="1" vertex="1">
          <mxGeometry x="664" y="478" width="170" height="30" as="geometry" />
        </mxCell>
        <mxCell id="qmrTpTHnCcI6w7EaYWka-1" value="LaTeX" style="whiteSpace=wrap;html=1;strokeColor=default;" parent="1" vertex="1">
          <mxGeometry x="504" y="855" width="120" height="60" as="geometry" />
        </mxCell>
      </root>
    </mxGraphModel>
  </diagram>
  <diagram id="uBDh1kwjuBQNyPHsrPj3" name="work routine">
    <mxGraphModel dx="765" dy="533" grid="1" gridSize="10" guides="1" tooltips="1" connect="1" arrows="1" fold="1" page="1" pageScale="1" pageWidth="1169" pageHeight="827" math="0" shadow="0">
      <root>
        <mxCell id="0" />
        <mxCell id="1" parent="0" />
        <mxCell id="FXHvrrFPTIAMwUCR44x_-135" value="" style="rounded=0;whiteSpace=wrap;html=1;strokeColor=#000000;strokeWidth=3;fontSize=15;fillColor=none;dashed=1;" parent="1" vertex="1">
          <mxGeometry x="118" y="198.5" width="840" height="466" as="geometry" />
        </mxCell>
        <mxCell id="TR1hdjRuycuLYNEzTR2D-2" value="&lt;font style=&quot;font-size: 16px;&quot;&gt;&lt;b&gt;ChatGPT&lt;/b&gt;&lt;/font&gt;" style="ellipse;whiteSpace=wrap;html=1;aspect=fixed;opacity=50;fillColor=#dae8fc;strokeColor=#6c8ebf;" parent="1" vertex="1">
          <mxGeometry x="386" y="297" width="192" height="192" as="geometry" />
        </mxCell>
        <mxCell id="pjkA_-2AfuKZJdhqL7iA-7" value="" style="rounded=0;whiteSpace=wrap;html=1;strokeColor=#000000;strokeWidth=3;fontSize=15;fillColor=none;dashed=1;" parent="1" vertex="1">
          <mxGeometry x="119" y="46" width="840" height="126.5" as="geometry" />
        </mxCell>
        <mxCell id="3mQSjlJV_inshcaZzW5f-1" value="&lt;font style=&quot;font-size: 18px;&quot;&gt;Problem&lt;/font&gt;" style="rounded=1;whiteSpace=wrap;html=1;" parent="1" vertex="1">
          <mxGeometry x="364" y="80" width="110" height="60" as="geometry" />
        </mxCell>
        <mxCell id="3mQSjlJV_inshcaZzW5f-2" value="&lt;span style=&quot;color: rgb(0, 0, 0); font-family: Helvetica; font-size: 18px; font-style: normal; font-variant-ligatures: normal; font-variant-caps: normal; font-weight: 400; letter-spacing: normal; orphans: 2; text-align: center; text-indent: 0px; text-transform: none; widows: 2; word-spacing: 0px; -webkit-text-stroke-width: 0px; background-color: rgb(251, 251, 251); text-decoration-thickness: initial; text-decoration-style: initial; text-decoration-color: initial; float: none; display: inline !important;&quot;&gt;Document&lt;/span&gt;" style="rounded=1;whiteSpace=wrap;html=1;" parent="1" vertex="1">
          <mxGeometry x="595" y="80" width="110" height="60" as="geometry" />
        </mxCell>
        <mxCell id="3mQSjlJV_inshcaZzW5f-4" value="&lt;font style=&quot;font-size: 18px;&quot;&gt;Code&lt;/font&gt;" style="rounded=1;whiteSpace=wrap;html=1;" parent="1" vertex="1">
          <mxGeometry x="827" y="80" width="110" height="60" as="geometry" />
        </mxCell>
        <mxCell id="FXHvrrFPTIAMwUCR44x_-33" value="" style="html=1;outlineConnect=0;whiteSpace=wrap;fillColor=#AFFFAF;shape=mxgraph.archimate3.commNetw;strokeWidth=3;" parent="1" vertex="1">
          <mxGeometry x="485" y="95" width="100" height="30" as="geometry" />
        </mxCell>
        <mxCell id="FXHvrrFPTIAMwUCR44x_-34" value="" style="html=1;outlineConnect=0;whiteSpace=wrap;fillColor=#AFFFAF;shape=mxgraph.archimate3.commNetw;strokeWidth=3;" parent="1" vertex="1">
          <mxGeometry x="718" y="95" width="100" height="30" as="geometry" />
        </mxCell>
        <mxCell id="FXHvrrFPTIAMwUCR44x_-35" value="&lt;font style=&quot;font-size: 12px;&quot;&gt;read&lt;/font&gt;" style="text;html=1;strokeColor=none;fillColor=none;align=center;verticalAlign=middle;whiteSpace=wrap;rounded=0;fontSize=18;" parent="1" vertex="1">
          <mxGeometry x="505" y="80" width="60" height="30" as="geometry" />
        </mxCell>
        <mxCell id="FXHvrrFPTIAMwUCR44x_-36" value="implement" style="text;html=1;align=center;verticalAlign=middle;resizable=0;points=[];autosize=1;strokeColor=none;fillColor=none;fontSize=12;" parent="1" vertex="1">
          <mxGeometry x="728" y="80" width="80" height="30" as="geometry" />
        </mxCell>
        <mxCell id="FXHvrrFPTIAMwUCR44x_-37" value="write" style="text;html=1;align=center;verticalAlign=middle;resizable=0;points=[];autosize=1;strokeColor=none;fillColor=none;fontSize=12;" parent="1" vertex="1">
          <mxGeometry x="741" y="110" width="50" height="30" as="geometry" />
        </mxCell>
        <mxCell id="FXHvrrFPTIAMwUCR44x_-38" value="solve" style="text;html=1;align=center;verticalAlign=middle;resizable=0;points=[];autosize=1;strokeColor=none;fillColor=none;fontSize=12;" parent="1" vertex="1">
          <mxGeometry x="510" y="110" width="50" height="30" as="geometry" />
        </mxCell>
        <mxCell id="FXHvrrFPTIAMwUCR44x_-39" value="&lt;font style=&quot;font-size: 18px;&quot;&gt;Head&lt;/font&gt;" style="rounded=1;whiteSpace=wrap;html=1;" parent="1" vertex="1">
          <mxGeometry x="138" y="80" width="110" height="60" as="geometry" />
        </mxCell>
        <mxCell id="FXHvrrFPTIAMwUCR44x_-40" value="" style="html=1;outlineConnect=0;whiteSpace=wrap;fillColor=#AFFFAF;shape=mxgraph.archimate3.commNetw;strokeWidth=3;" parent="1" vertex="1">
          <mxGeometry x="257" y="95" width="100" height="30" as="geometry" />
        </mxCell>
        <mxCell id="FXHvrrFPTIAMwUCR44x_-41" value="assign" style="text;html=1;align=center;verticalAlign=middle;resizable=0;points=[];autosize=1;strokeColor=none;fillColor=none;fontSize=12;" parent="1" vertex="1">
          <mxGeometry x="279" y="80" width="60" height="30" as="geometry" />
        </mxCell>
        <mxCell id="FXHvrrFPTIAMwUCR44x_-44" value="present" style="text;html=1;align=center;verticalAlign=middle;resizable=0;points=[];autosize=1;strokeColor=none;fillColor=none;fontSize=12;" parent="1" vertex="1">
          <mxGeometry x="278" y="110" width="60" height="30" as="geometry" />
        </mxCell>
        <mxCell id="FXHvrrFPTIAMwUCR44x_-133" value="&lt;font style=&quot;font-size: 15px;&quot;&gt;Mode&lt;/font&gt;" style="text;html=1;strokeColor=none;fillColor=none;align=center;verticalAlign=middle;whiteSpace=wrap;rounded=0;fontSize=10;strokeWidth=1;" parent="1" vertex="1">
          <mxGeometry x="30" y="94.99999999999989" width="60" height="30" as="geometry" />
        </mxCell>
        <mxCell id="FXHvrrFPTIAMwUCR44x_-134" value="&lt;font style=&quot;font-size: 15px;&quot;&gt;Way&lt;/font&gt;" style="text;html=1;strokeColor=none;fillColor=none;align=center;verticalAlign=middle;whiteSpace=wrap;rounded=0;fontSize=10;strokeWidth=1;" parent="1" vertex="1">
          <mxGeometry x="30" y="287.9999999999999" width="60" height="30" as="geometry" />
        </mxCell>
        <mxCell id="FXHvrrFPTIAMwUCR44x_-45" value="&lt;font style=&quot;font-size: 18px;&quot;&gt;local&lt;/font&gt;" style="rounded=1;whiteSpace=wrap;html=1;fontSize=12;" parent="1" vertex="1">
          <mxGeometry x="238" y="273" width="120" height="60" as="geometry" />
        </mxCell>
        <mxCell id="FXHvrrFPTIAMwUCR44x_-132" style="edgeStyle=orthogonalEdgeStyle;rounded=0;orthogonalLoop=1;jettySize=auto;html=1;entryX=0.5;entryY=0;entryDx=0;entryDy=0;fontSize=12;" parent="1" target="FXHvrrFPTIAMwUCR44x_-116" edge="1">
          <mxGeometry relative="1" as="geometry">
            <mxPoint x="538" y="333" as="sourcePoint" />
          </mxGeometry>
        </mxCell>
        <mxCell id="FXHvrrFPTIAMwUCR44x_-46" value="&lt;font style=&quot;font-size: 18px&quot;&gt;web(Edge)&lt;/font&gt;" style="rounded=1;whiteSpace=wrap;html=1;fontSize=12;" parent="1" vertex="1">
          <mxGeometry x="478" y="273" width="120" height="60" as="geometry" />
        </mxCell>
        <mxCell id="FXHvrrFPTIAMwUCR44x_-47" value="" style="html=1;outlineConnect=0;whiteSpace=wrap;fillColor=#AFFFAF;shape=mxgraph.archimate3.commNetw;strokeWidth=2;fontSize=18;" parent="1" vertex="1">
          <mxGeometry x="368" y="294" width="100" height="18" as="geometry" />
        </mxCell>
        <mxCell id="FXHvrrFPTIAMwUCR44x_-48" value="&lt;font style=&quot;font-size: 14px;&quot;&gt;collegues&lt;/font&gt;" style="rounded=1;whiteSpace=wrap;html=1;fontSize=12;" parent="1" vertex="1">
          <mxGeometry x="158" y="402" width="80" height="30" as="geometry" />
        </mxCell>
        <mxCell id="FXHvrrFPTIAMwUCR44x_-49" value="" style="edgeStyle=orthogonalEdgeStyle;rounded=0;orthogonalLoop=1;jettySize=auto;html=1;fontSize=18;exitX=0;exitY=0.5;exitDx=0;exitDy=0;" parent="1" source="FXHvrrFPTIAMwUCR44x_-45" target="FXHvrrFPTIAMwUCR44x_-48" edge="1">
          <mxGeometry relative="1" as="geometry">
            <Array as="points">
              <mxPoint x="198" y="303" />
            </Array>
          </mxGeometry>
        </mxCell>
        <mxCell id="FXHvrrFPTIAMwUCR44x_-50" value="&lt;font style=&quot;font-size: 14px&quot;&gt;computer&lt;br&gt;(Win11)&lt;br&gt;&lt;/font&gt;" style="rounded=1;whiteSpace=wrap;html=1;fontSize=12;" parent="1" vertex="1">
          <mxGeometry x="258" y="403" width="80" height="30" as="geometry" />
        </mxCell>
        <mxCell id="FXHvrrFPTIAMwUCR44x_-51" value="" style="edgeStyle=orthogonalEdgeStyle;rounded=0;orthogonalLoop=1;jettySize=auto;html=1;fontSize=14;" parent="1" source="FXHvrrFPTIAMwUCR44x_-45" target="FXHvrrFPTIAMwUCR44x_-50" edge="1">
          <mxGeometry relative="1" as="geometry" />
        </mxCell>
        <mxCell id="FXHvrrFPTIAMwUCR44x_-54" value="&lt;font style=&quot;font-size: 12px;&quot;&gt;AnyDesk&lt;/font&gt;" style="rounded=1;whiteSpace=wrap;html=1;fontSize=12;" parent="1" vertex="1">
          <mxGeometry x="358" y="358" width="80" height="30" as="geometry" />
        </mxCell>
        <mxCell id="FXHvrrFPTIAMwUCR44x_-56" value="&lt;font style=&quot;font-size: 14px;&quot;&gt;VSCode&lt;/font&gt;" style="rounded=1;whiteSpace=wrap;html=1;fontSize=12;" parent="1" vertex="1">
          <mxGeometry x="258" y="459" width="80" height="30" as="geometry" />
        </mxCell>
        <mxCell id="FXHvrrFPTIAMwUCR44x_-57" value="" style="edgeStyle=orthogonalEdgeStyle;rounded=0;orthogonalLoop=1;jettySize=auto;html=1;fontSize=12;" parent="1" source="FXHvrrFPTIAMwUCR44x_-50" target="FXHvrrFPTIAMwUCR44x_-56" edge="1">
          <mxGeometry relative="1" as="geometry" />
        </mxCell>
        <mxCell id="FXHvrrFPTIAMwUCR44x_-58" value="" style="endArrow=none;html=1;rounded=0;fontSize=12;" parent="1" edge="1">
          <mxGeometry width="50" height="50" relative="1" as="geometry">
            <mxPoint x="198" y="539" as="sourcePoint" />
            <mxPoint x="258" y="489" as="targetPoint" />
          </mxGeometry>
        </mxCell>
        <mxCell id="FXHvrrFPTIAMwUCR44x_-59" value="" style="endArrow=none;html=1;rounded=0;fontSize=12;" parent="1" edge="1">
          <mxGeometry width="50" height="50" relative="1" as="geometry">
            <mxPoint x="298" y="539" as="sourcePoint" />
            <mxPoint x="298" y="489" as="targetPoint" />
          </mxGeometry>
        </mxCell>
        <mxCell id="FXHvrrFPTIAMwUCR44x_-60" value="" style="endArrow=none;html=1;rounded=0;fontSize=12;" parent="1" edge="1">
          <mxGeometry width="50" height="50" relative="1" as="geometry">
            <mxPoint x="338" y="489" as="sourcePoint" />
            <mxPoint x="398" y="539" as="targetPoint" />
          </mxGeometry>
        </mxCell>
        <mxCell id="FXHvrrFPTIAMwUCR44x_-61" value="&lt;font style=&quot;font-size: 14px;&quot;&gt;edit&lt;/font&gt;" style="rounded=1;whiteSpace=wrap;html=1;fontSize=12;" parent="1" vertex="1">
          <mxGeometry x="158" y="539" width="80" height="30" as="geometry" />
        </mxCell>
        <mxCell id="FXHvrrFPTIAMwUCR44x_-62" value="&lt;font style=&quot;font-size: 14px;&quot;&gt;platform&lt;/font&gt;" style="rounded=1;whiteSpace=wrap;html=1;fontSize=12;" parent="1" vertex="1">
          <mxGeometry x="258" y="539" width="80" height="30" as="geometry" />
        </mxCell>
        <mxCell id="FXHvrrFPTIAMwUCR44x_-115" style="edgeStyle=orthogonalEdgeStyle;rounded=0;orthogonalLoop=1;jettySize=auto;html=1;fontSize=12;" parent="1" source="FXHvrrFPTIAMwUCR44x_-63" edge="1">
          <mxGeometry relative="1" as="geometry">
            <mxPoint x="463" y="510" as="targetPoint" />
          </mxGeometry>
        </mxCell>
        <mxCell id="FXHvrrFPTIAMwUCR44x_-63" value="&lt;font style=&quot;font-size: 14px;&quot;&gt;git&lt;/font&gt;" style="rounded=1;whiteSpace=wrap;html=1;fontSize=12;" parent="1" vertex="1">
          <mxGeometry x="358" y="539" width="80" height="30" as="geometry" />
        </mxCell>
        <mxCell id="FXHvrrFPTIAMwUCR44x_-66" value="&lt;font style=&quot;font-size: 10px;&quot;&gt;.py&lt;br&gt;.sh&lt;br style=&quot;font-size: 10px;&quot;&gt;.md&lt;br style=&quot;font-size: 10px;&quot;&gt;...&lt;br style=&quot;font-size: 10px;&quot;&gt;&lt;/font&gt;" style="text;html=1;strokeColor=none;fillColor=none;align=center;verticalAlign=middle;whiteSpace=wrap;rounded=0;fontSize=10;spacing=1;" parent="1" vertex="1">
          <mxGeometry x="148" y="582" width="60" height="40" as="geometry" />
        </mxCell>
        <mxCell id="FXHvrrFPTIAMwUCR44x_-76" value="" style="strokeWidth=1;html=1;shape=mxgraph.flowchart.annotation_2;align=left;labelPosition=right;pointerEvents=1;fontSize=10;rotation=90;" parent="1" vertex="1">
          <mxGeometry x="273" y="516.5" width="50" height="153" as="geometry" />
        </mxCell>
        <mxCell id="FXHvrrFPTIAMwUCR44x_-80" value="" style="line;strokeWidth=1;direction=south;html=1;fontSize=10;" parent="1" vertex="1">
          <mxGeometry x="268" y="593" width="10" height="26" as="geometry" />
        </mxCell>
        <mxCell id="FXHvrrFPTIAMwUCR44x_-81" value="" style="line;strokeWidth=1;direction=south;html=1;fontSize=10;" parent="1" vertex="1">
          <mxGeometry x="318" y="593" width="10" height="26" as="geometry" />
        </mxCell>
        <mxCell id="FXHvrrFPTIAMwUCR44x_-82" value="Win" style="text;html=1;strokeColor=none;fillColor=none;align=center;verticalAlign=middle;whiteSpace=wrap;rounded=0;fontSize=12;strokeWidth=1;" parent="1" vertex="1">
          <mxGeometry x="198" y="619" width="50" height="30" as="geometry" />
        </mxCell>
        <mxCell id="FXHvrrFPTIAMwUCR44x_-83" value="WSL" style="text;html=1;strokeColor=none;fillColor=none;align=center;verticalAlign=middle;whiteSpace=wrap;rounded=0;fontSize=12;strokeWidth=1;" parent="1" vertex="1">
          <mxGeometry x="248" y="619" width="50" height="30" as="geometry" />
        </mxCell>
        <mxCell id="FXHvrrFPTIAMwUCR44x_-84" value="Remote" style="text;html=1;strokeColor=none;fillColor=none;align=center;verticalAlign=middle;whiteSpace=wrap;rounded=0;fontSize=12;strokeWidth=1;" parent="1" vertex="1">
          <mxGeometry x="298" y="619" width="50" height="30" as="geometry" />
        </mxCell>
        <mxCell id="FXHvrrFPTIAMwUCR44x_-85" value="Docker" style="text;html=1;strokeColor=none;fillColor=none;align=center;verticalAlign=middle;whiteSpace=wrap;rounded=0;fontSize=12;strokeWidth=1;" parent="1" vertex="1">
          <mxGeometry x="348" y="619" width="50" height="30" as="geometry" />
        </mxCell>
        <mxCell id="FXHvrrFPTIAMwUCR44x_-88" value="Google" style="rounded=1;whiteSpace=wrap;html=1;strokeWidth=1;fontSize=14;" parent="1" vertex="1">
          <mxGeometry x="498" y="220" width="80" height="30" as="geometry" />
        </mxCell>
        <mxCell id="FXHvrrFPTIAMwUCR44x_-89" value="" style="edgeStyle=orthogonalEdgeStyle;rounded=0;orthogonalLoop=1;jettySize=auto;html=1;fontSize=10;" parent="1" source="FXHvrrFPTIAMwUCR44x_-46" target="FXHvrrFPTIAMwUCR44x_-88" edge="1">
          <mxGeometry relative="1" as="geometry" />
        </mxCell>
        <mxCell id="FXHvrrFPTIAMwUCR44x_-91" value="" style="labelPosition=right;align=left;strokeWidth=1;shape=mxgraph.mockup.markup.curlyBrace;html=1;shadow=0;dashed=0;strokeColor=#000000;direction=north;fontSize=14;" parent="1" vertex="1">
          <mxGeometry x="338" y="368" width="20" height="92" as="geometry" />
        </mxCell>
        <mxCell id="FXHvrrFPTIAMwUCR44x_-92" value="&lt;font style=&quot;font-size: 12px;&quot;&gt;FIJI&lt;/font&gt;" style="rounded=1;whiteSpace=wrap;html=1;fontSize=12;" parent="1" vertex="1">
          <mxGeometry x="358" y="398" width="80" height="30" as="geometry" />
        </mxCell>
        <mxCell id="FXHvrrFPTIAMwUCR44x_-93" value="&lt;font style=&quot;font-size: 12px;&quot;&gt;Slicer&lt;/font&gt;" style="rounded=1;whiteSpace=wrap;html=1;fontSize=12;" parent="1" vertex="1">
          <mxGeometry x="358" y="438" width="80" height="30" as="geometry" />
        </mxCell>
        <mxCell id="FXHvrrFPTIAMwUCR44x_-96" value="mail" style="rounded=1;whiteSpace=wrap;html=1;strokeWidth=1;fontSize=14;" parent="1" vertex="1">
          <mxGeometry x="638" y="283" width="80" height="40" as="geometry" />
        </mxCell>
        <mxCell id="FXHvrrFPTIAMwUCR44x_-97" value="" style="edgeStyle=orthogonalEdgeStyle;rounded=0;orthogonalLoop=1;jettySize=auto;html=1;fontSize=12;" parent="1" source="FXHvrrFPTIAMwUCR44x_-46" target="FXHvrrFPTIAMwUCR44x_-96" edge="1">
          <mxGeometry relative="1" as="geometry" />
        </mxCell>
        <mxCell id="FXHvrrFPTIAMwUCR44x_-98" value="" style="labelPosition=right;align=left;strokeWidth=1;shape=mxgraph.mockup.markup.curlyBrace;html=1;shadow=0;dashed=0;strokeColor=#000000;direction=north;fontSize=14;rotation=-90;" parent="1" vertex="1">
          <mxGeometry x="673" y="234" width="10" height="80" as="geometry" />
        </mxCell>
        <mxCell id="FXHvrrFPTIAMwUCR44x_-99" value="&lt;font style=&quot;font-size: 12px;&quot;&gt;work&lt;/font&gt;" style="rounded=1;whiteSpace=wrap;html=1;fontSize=12;" parent="1" vertex="1">
          <mxGeometry x="610" y="234" width="40" height="30" as="geometry" />
        </mxCell>
        <mxCell id="FXHvrrFPTIAMwUCR44x_-100" value="&lt;font style=&quot;font-size: 12px;&quot;&gt;pub&lt;/font&gt;" style="rounded=1;whiteSpace=wrap;html=1;fontSize=12;" parent="1" vertex="1">
          <mxGeometry x="658" y="234" width="40" height="30" as="geometry" />
        </mxCell>
        <mxCell id="FXHvrrFPTIAMwUCR44x_-101" value="&lt;font style=&quot;font-size: 12px;&quot;&gt;univ&lt;/font&gt;" style="rounded=1;whiteSpace=wrap;html=1;fontSize=12;" parent="1" vertex="1">
          <mxGeometry x="705" y="234" width="40" height="30" as="geometry" />
        </mxCell>
        <mxCell id="FXHvrrFPTIAMwUCR44x_-139" style="edgeStyle=orthogonalEdgeStyle;rounded=0;orthogonalLoop=1;jettySize=auto;html=1;entryX=0.5;entryY=1;entryDx=0;entryDy=0;fontSize=15;exitX=1;exitY=0.5;exitDx=0;exitDy=0;" parent="1" edge="1">
          <mxGeometry relative="1" as="geometry">
            <mxPoint x="568" y="418" as="sourcePoint" />
            <mxPoint x="598" y="388" as="targetPoint" />
            <Array as="points">
              <mxPoint x="568" y="420" />
              <mxPoint x="598" y="420" />
            </Array>
          </mxGeometry>
        </mxCell>
        <mxCell id="FXHvrrFPTIAMwUCR44x_-102" value="&lt;font style=&quot;font-size: 14px;&quot;&gt;GitHub&lt;/font&gt;" style="rounded=1;whiteSpace=wrap;html=1;fontSize=12;" parent="1" vertex="1">
          <mxGeometry x="498" y="403" width="80" height="30" as="geometry" />
        </mxCell>
        <mxCell id="FXHvrrFPTIAMwUCR44x_-103" value="" style="edgeStyle=orthogonalEdgeStyle;rounded=0;orthogonalLoop=1;jettySize=auto;html=1;fontSize=12;" parent="1" source="FXHvrrFPTIAMwUCR44x_-46" target="FXHvrrFPTIAMwUCR44x_-102" edge="1">
          <mxGeometry relative="1" as="geometry" />
        </mxCell>
        <mxCell id="FXHvrrFPTIAMwUCR44x_-108" value="" style="strokeWidth=1;html=1;shape=mxgraph.flowchart.annotation_2;align=left;labelPosition=right;pointerEvents=1;fontSize=10;rotation=90;" parent="1" vertex="1">
          <mxGeometry x="513" y="381" width="50" height="153" as="geometry" />
        </mxCell>
        <mxCell id="FXHvrrFPTIAMwUCR44x_-109" value="" style="line;strokeWidth=1;direction=south;html=1;fontSize=10;" parent="1" vertex="1">
          <mxGeometry x="508" y="457.5" width="10" height="26" as="geometry" />
        </mxCell>
        <mxCell id="FXHvrrFPTIAMwUCR44x_-110" value="" style="line;strokeWidth=1;direction=south;html=1;fontSize=10;" parent="1" vertex="1">
          <mxGeometry x="558" y="457.5" width="10" height="26" as="geometry" />
        </mxCell>
        <mxCell id="FXHvrrFPTIAMwUCR44x_-111" value="code" style="text;html=1;strokeColor=none;fillColor=none;align=center;verticalAlign=middle;whiteSpace=wrap;rounded=0;fontSize=12;strokeWidth=1;" parent="1" vertex="1">
          <mxGeometry x="438" y="483.5" width="50" height="30" as="geometry" />
        </mxCell>
        <mxCell id="FXHvrrFPTIAMwUCR44x_-112" value="tech_notes" style="text;html=1;strokeColor=none;fillColor=none;align=center;verticalAlign=middle;whiteSpace=wrap;rounded=0;fontSize=12;strokeWidth=1;" parent="1" vertex="1">
          <mxGeometry x="488" y="483.5" width="50" height="30" as="geometry" />
        </mxCell>
        <mxCell id="FXHvrrFPTIAMwUCR44x_-113" value="figure" style="text;html=1;strokeColor=none;fillColor=none;align=center;verticalAlign=middle;whiteSpace=wrap;rounded=0;fontSize=12;strokeWidth=1;" parent="1" vertex="1">
          <mxGeometry x="535" y="483" width="50" height="30" as="geometry" />
        </mxCell>
        <mxCell id="FXHvrrFPTIAMwUCR44x_-114" value="vocabulary" style="text;html=1;strokeColor=none;fillColor=none;align=center;verticalAlign=middle;whiteSpace=wrap;rounded=0;fontSize=12;strokeWidth=1;" parent="1" vertex="1">
          <mxGeometry x="582" y="483" width="50" height="30" as="geometry" />
        </mxCell>
        <mxCell id="FXHvrrFPTIAMwUCR44x_-146" style="edgeStyle=orthogonalEdgeStyle;rounded=0;orthogonalLoop=1;jettySize=auto;html=1;fontSize=15;" parent="1" source="FXHvrrFPTIAMwUCR44x_-116" target="FXHvrrFPTIAMwUCR44x_-137" edge="1">
          <mxGeometry relative="1" as="geometry">
            <mxPoint x="610" y="390" as="targetPoint" />
            <Array as="points">
              <mxPoint x="610" y="420" />
            </Array>
          </mxGeometry>
        </mxCell>
        <mxCell id="FXHvrrFPTIAMwUCR44x_-116" value="&lt;font style=&quot;font-size: 14px;&quot;&gt;article&lt;/font&gt;" style="rounded=1;whiteSpace=wrap;html=1;fontSize=12;" parent="1" vertex="1">
          <mxGeometry x="636" y="402" width="80" height="30" as="geometry" />
        </mxCell>
        <mxCell id="FXHvrrFPTIAMwUCR44x_-117" value="&lt;font style=&quot;font-size: 14px;&quot;&gt;Overleaf&lt;/font&gt;" style="rounded=1;whiteSpace=wrap;html=1;fontSize=12;" parent="1" vertex="1">
          <mxGeometry x="786" y="338" width="80" height="30" as="geometry" />
        </mxCell>
        <mxCell id="FXHvrrFPTIAMwUCR44x_-119" value="" style="labelPosition=right;align=left;strokeWidth=1;shape=mxgraph.mockup.markup.curlyBrace;html=1;shadow=0;dashed=0;strokeColor=#000000;direction=north;fontSize=14;" parent="1" vertex="1">
          <mxGeometry x="768" y="358" width="16" height="118" as="geometry" />
        </mxCell>
        <mxCell id="FXHvrrFPTIAMwUCR44x_-122" style="edgeStyle=orthogonalEdgeStyle;rounded=0;orthogonalLoop=1;jettySize=auto;html=1;entryX=0.498;entryY=0.111;entryDx=0;entryDy=0;entryPerimeter=0;fontSize=12;" parent="1" source="FXHvrrFPTIAMwUCR44x_-116" target="FXHvrrFPTIAMwUCR44x_-119" edge="1">
          <mxGeometry relative="1" as="geometry" />
        </mxCell>
        <mxCell id="FXHvrrFPTIAMwUCR44x_-120" value="&lt;font style=&quot;font-size: 14px;&quot;&gt;Office(onedirve)&lt;/font&gt;" style="rounded=1;whiteSpace=wrap;html=1;fontSize=12;" parent="1" vertex="1">
          <mxGeometry x="786" y="381" width="110" height="30" as="geometry" />
        </mxCell>
        <mxCell id="FXHvrrFPTIAMwUCR44x_-130" style="edgeStyle=orthogonalEdgeStyle;rounded=0;orthogonalLoop=1;jettySize=auto;html=1;fontSize=12;exitX=1;exitY=0.5;exitDx=0;exitDy=0;" parent="1" source="FXHvrrFPTIAMwUCR44x_-121" edge="1">
          <mxGeometry relative="1" as="geometry">
            <mxPoint x="513" y="510" as="targetPoint" />
            <Array as="points">
              <mxPoint x="886" y="432" />
              <mxPoint x="886" y="553" />
              <mxPoint x="513" y="553" />
            </Array>
          </mxGeometry>
        </mxCell>
        <mxCell id="FXHvrrFPTIAMwUCR44x_-121" value="&lt;font style=&quot;font-size: 14px;&quot;&gt;Markdown&lt;/font&gt;" style="rounded=1;whiteSpace=wrap;html=1;fontSize=12;" parent="1" vertex="1">
          <mxGeometry x="786" y="417" width="80" height="30" as="geometry" />
        </mxCell>
        <mxCell id="FXHvrrFPTIAMwUCR44x_-123" value="write" style="text;html=1;align=center;verticalAlign=middle;resizable=0;points=[];autosize=1;strokeColor=none;fillColor=none;fontSize=12;" parent="1" vertex="1">
          <mxGeometry x="714" y="396" width="50" height="30" as="geometry" />
        </mxCell>
        <mxCell id="FXHvrrFPTIAMwUCR44x_-129" style="edgeStyle=orthogonalEdgeStyle;rounded=0;orthogonalLoop=1;jettySize=auto;html=1;fontSize=12;exitX=0.5;exitY=1;exitDx=0;exitDy=0;" parent="1" source="FXHvrrFPTIAMwUCR44x_-125" edge="1">
          <mxGeometry relative="1" as="geometry">
            <Array as="points">
              <mxPoint x="676" y="533" />
              <mxPoint x="613" y="533" />
            </Array>
            <mxPoint x="613" y="510" as="targetPoint" />
          </mxGeometry>
        </mxCell>
        <mxCell id="FXHvrrFPTIAMwUCR44x_-125" value="&lt;font style=&quot;font-size: 10px;&quot;&gt;Zotero,RG, Semantic Scholar, Google Scholar&lt;/font&gt;" style="rounded=1;whiteSpace=wrap;html=1;fontSize=12;" parent="1" vertex="1">
          <mxGeometry x="638" y="457.5" width="94" height="52.5" as="geometry" />
        </mxCell>
        <mxCell id="FXHvrrFPTIAMwUCR44x_-126" value="" style="edgeStyle=orthogonalEdgeStyle;rounded=0;orthogonalLoop=1;jettySize=auto;html=1;fontSize=12;entryX=0.409;entryY=0.039;entryDx=0;entryDy=0;entryPerimeter=0;" parent="1" source="FXHvrrFPTIAMwUCR44x_-116" target="FXHvrrFPTIAMwUCR44x_-125" edge="1">
          <mxGeometry relative="1" as="geometry">
            <Array as="points">
              <mxPoint x="676" y="460" />
              <mxPoint x="676" y="460" />
            </Array>
          </mxGeometry>
        </mxCell>
        <mxCell id="FXHvrrFPTIAMwUCR44x_-127" value="read" style="text;html=1;align=center;verticalAlign=middle;resizable=0;points=[];autosize=1;strokeColor=none;fillColor=none;fontSize=12;" parent="1" vertex="1">
          <mxGeometry x="668" y="426" width="50" height="30" as="geometry" />
        </mxCell>
        <mxCell id="FXHvrrFPTIAMwUCR44x_-131" style="edgeStyle=orthogonalEdgeStyle;rounded=0;orthogonalLoop=1;jettySize=auto;html=1;fontSize=12;exitX=0.5;exitY=1;exitDx=0;exitDy=0;" parent="1" source="FXHvrrFPTIAMwUCR44x_-128" edge="1">
          <mxGeometry relative="1" as="geometry">
            <mxPoint x="560" y="510" as="targetPoint" />
            <Array as="points">
              <mxPoint x="832" y="543" />
              <mxPoint x="560" y="543" />
              <mxPoint x="560" y="510" />
            </Array>
          </mxGeometry>
        </mxCell>
        <mxCell id="FXHvrrFPTIAMwUCR44x_-128" value="&lt;span style=&quot;font-size: 14px;&quot;&gt;diagrame.net&lt;/span&gt;" style="rounded=1;whiteSpace=wrap;html=1;fontSize=12;" parent="1" vertex="1">
          <mxGeometry x="786" y="457.5" width="92" height="30" as="geometry" />
        </mxCell>
        <mxCell id="FXHvrrFPTIAMwUCR44x_-137" value="&lt;font style=&quot;font-size: 12px;&quot;&gt;personal blog&lt;/font&gt;" style="rounded=1;whiteSpace=wrap;html=1;fontSize=12;" parent="1" vertex="1">
          <mxGeometry x="568" y="358" width="80" height="30" as="geometry" />
        </mxCell>
        <mxCell id="pjkA_-2AfuKZJdhqL7iA-1" value="Outlook" style="rounded=1;whiteSpace=wrap;html=1;strokeWidth=1;fontSize=14;" parent="1" vertex="1">
          <mxGeometry x="260" y="220" width="80" height="30" as="geometry" />
        </mxCell>
        <mxCell id="pjkA_-2AfuKZJdhqL7iA-2" value="" style="edgeStyle=orthogonalEdgeStyle;rounded=0;orthogonalLoop=1;jettySize=auto;html=1;fontSize=10;" parent="1" edge="1">
          <mxGeometry relative="1" as="geometry">
            <mxPoint x="298" y="272" as="sourcePoint" />
            <mxPoint x="298" y="249" as="targetPoint" />
          </mxGeometry>
        </mxCell>
        <mxCell id="pjkA_-2AfuKZJdhqL7iA-5" value="" style="endArrow=classic;html=1;rounded=0;entryX=1;entryY=0.5;entryDx=0;entryDy=0;" parent="1" target="pjkA_-2AfuKZJdhqL7iA-1" edge="1">
          <mxGeometry width="50" height="50" relative="1" as="geometry">
            <mxPoint x="490" y="235" as="sourcePoint" />
            <mxPoint x="431" y="242" as="targetPoint" />
            <Array as="points" />
          </mxGeometry>
        </mxCell>
        <mxCell id="pjkA_-2AfuKZJdhqL7iA-6" value="" style="endArrow=none;html=1;rounded=0;exitX=0.103;exitY=0.024;exitDx=0;exitDy=0;exitPerimeter=0;entryX=0.442;entryY=0.078;entryDx=0;entryDy=0;entryPerimeter=0;" parent="1" edge="1">
          <mxGeometry width="50" height="50" relative="1" as="geometry">
            <mxPoint x="490" y="273" as="sourcePoint" />
            <mxPoint x="490.28" y="234.848" as="targetPoint" />
          </mxGeometry>
        </mxCell>
      </root>
    </mxGraphModel>
  </diagram>
  <diagram id="trLWeR_rUQvLxlYw2wOp" name="Career routine">
    <mxGraphModel dx="765" dy="533" grid="1" gridSize="10" guides="1" tooltips="1" connect="1" arrows="1" fold="1" page="1" pageScale="1" pageWidth="1169" pageHeight="827" math="0" shadow="0">
      <root>
        <mxCell id="0" />
        <mxCell id="1" parent="0" />
        <mxCell id="3YwcnpwROPatrGz4Mxaa-99" value="" style="rounded=1;whiteSpace=wrap;html=1;fillColor=#d5e8d4;dashed=1;dashPattern=12 12;strokeColor=#82b366;" parent="1" vertex="1">
          <mxGeometry x="14" y="6" width="1060" height="370" as="geometry" />
        </mxCell>
        <mxCell id="3YwcnpwROPatrGz4Mxaa-101" value="" style="rounded=1;whiteSpace=wrap;html=1;fillColor=#fff2cc;strokeColor=#d6b656;dashed=1;dashPattern=12 12;" parent="1" vertex="1">
          <mxGeometry x="20" y="859" width="1060" height="160" as="geometry" />
        </mxCell>
        <mxCell id="3YwcnpwROPatrGz4Mxaa-100" value="" style="rounded=1;whiteSpace=wrap;html=1;fillColor=#dae8fc;strokeColor=#6c8ebf;dashed=1;dashPattern=12 12;" parent="1" vertex="1">
          <mxGeometry x="20" y="391" width="1060" height="399" as="geometry" />
        </mxCell>
        <mxCell id="Pi8hEcT-UzPFTWQV0Fow-3" value="" style="edgeStyle=orthogonalEdgeStyle;rounded=0;orthogonalLoop=1;jettySize=auto;html=1;" parent="1" source="Pi8hEcT-UzPFTWQV0Fow-1" target="Pi8hEcT-UzPFTWQV0Fow-2" edge="1">
          <mxGeometry relative="1" as="geometry" />
        </mxCell>
        <mxCell id="Pi8hEcT-UzPFTWQV0Fow-1" value="Pixel" style="rounded=1;whiteSpace=wrap;html=1;" parent="1" vertex="1">
          <mxGeometry x="40" y="52" width="120" height="40" as="geometry" />
        </mxCell>
        <mxCell id="Pi8hEcT-UzPFTWQV0Fow-5" value="" style="edgeStyle=orthogonalEdgeStyle;rounded=0;orthogonalLoop=1;jettySize=auto;html=1;" parent="1" source="Pi8hEcT-UzPFTWQV0Fow-2" target="Pi8hEcT-UzPFTWQV0Fow-4" edge="1">
          <mxGeometry relative="1" as="geometry" />
        </mxCell>
        <mxCell id="Pi8hEcT-UzPFTWQV0Fow-2" value="Feature" style="rounded=1;whiteSpace=wrap;html=1;" parent="1" vertex="1">
          <mxGeometry x="190" y="52" width="120" height="40" as="geometry" />
        </mxCell>
        <mxCell id="Pi8hEcT-UzPFTWQV0Fow-7" value="" style="edgeStyle=orthogonalEdgeStyle;rounded=0;orthogonalLoop=1;jettySize=auto;html=1;" parent="1" source="Pi8hEcT-UzPFTWQV0Fow-4" target="Pi8hEcT-UzPFTWQV0Fow-6" edge="1">
          <mxGeometry relative="1" as="geometry" />
        </mxCell>
        <mxCell id="Pi8hEcT-UzPFTWQV0Fow-4" value="Networks" style="rounded=1;whiteSpace=wrap;html=1;" parent="1" vertex="1">
          <mxGeometry x="350" y="52" width="120" height="40" as="geometry" />
        </mxCell>
        <mxCell id="Pi8hEcT-UzPFTWQV0Fow-9" value="" style="edgeStyle=orthogonalEdgeStyle;rounded=0;orthogonalLoop=1;jettySize=auto;html=1;" parent="1" source="Pi8hEcT-UzPFTWQV0Fow-6" target="Pi8hEcT-UzPFTWQV0Fow-8" edge="1">
          <mxGeometry relative="1" as="geometry" />
        </mxCell>
        <mxCell id="Pi8hEcT-UzPFTWQV0Fow-6" value="Knowledge" style="rounded=1;whiteSpace=wrap;html=1;" parent="1" vertex="1">
          <mxGeometry x="510" y="52" width="120" height="40" as="geometry" />
        </mxCell>
        <mxCell id="Pi8hEcT-UzPFTWQV0Fow-8" value="XAI" style="rounded=1;whiteSpace=wrap;html=1;" parent="1" vertex="1">
          <mxGeometry x="660" y="52" width="120" height="40" as="geometry" />
        </mxCell>
        <mxCell id="3YwcnpwROPatrGz4Mxaa-117" value="" style="edgeStyle=orthogonalEdgeStyle;rounded=0;orthogonalLoop=1;jettySize=auto;html=1;" parent="1" source="Pi8hEcT-UzPFTWQV0Fow-18" target="3YwcnpwROPatrGz4Mxaa-47" edge="1">
          <mxGeometry relative="1" as="geometry" />
        </mxCell>
        <mxCell id="Pi8hEcT-UzPFTWQV0Fow-18" value="Multi-modal" style="rounded=1;whiteSpace=wrap;html=1;" parent="1" vertex="1">
          <mxGeometry x="940" y="411" width="120" height="40" as="geometry" />
        </mxCell>
        <mxCell id="cOXOFWujEfpBhuLw7qSK-4" style="edgeStyle=orthogonalEdgeStyle;rounded=0;orthogonalLoop=1;jettySize=auto;html=1;entryX=0.5;entryY=1;entryDx=0;entryDy=0;" parent="1" source="Pi8hEcT-UzPFTWQV0Fow-19" target="3YwcnpwROPatrGz4Mxaa-58" edge="1">
          <mxGeometry relative="1" as="geometry" />
        </mxCell>
        <mxCell id="Pi8hEcT-UzPFTWQV0Fow-19" value="Graph" style="rounded=1;whiteSpace=wrap;html=1;" parent="1" vertex="1">
          <mxGeometry x="190" y="473" width="120" height="40" as="geometry" />
        </mxCell>
        <mxCell id="Pi8hEcT-UzPFTWQV0Fow-22" value="Federated Learning" style="rounded=1;whiteSpace=wrap;html=1;" parent="1" vertex="1">
          <mxGeometry x="660" y="531" width="120" height="40" as="geometry" />
        </mxCell>
        <mxCell id="3YwcnpwROPatrGz4Mxaa-111" value="" style="edgeStyle=orthogonalEdgeStyle;rounded=0;orthogonalLoop=1;jettySize=auto;html=1;" parent="1" source="Pi8hEcT-UzPFTWQV0Fow-24" target="Pi8hEcT-UzPFTWQV0Fow-27" edge="1">
          <mxGeometry relative="1" as="geometry" />
        </mxCell>
        <mxCell id="Pi8hEcT-UzPFTWQV0Fow-24" value="Imaging" style="rounded=1;whiteSpace=wrap;html=1;" parent="1" vertex="1">
          <mxGeometry x="190" y="919" width="120" height="40" as="geometry" />
        </mxCell>
        <mxCell id="3YwcnpwROPatrGz4Mxaa-113" style="edgeStyle=orthogonalEdgeStyle;rounded=0;orthogonalLoop=1;jettySize=auto;html=1;entryX=0;entryY=0.5;entryDx=0;entryDy=0;" parent="1" source="Pi8hEcT-UzPFTWQV0Fow-25" target="Pi8hEcT-UzPFTWQV0Fow-27" edge="1">
          <mxGeometry relative="1" as="geometry" />
        </mxCell>
        <mxCell id="Pi8hEcT-UzPFTWQV0Fow-25" value="Clinical notes" style="rounded=1;whiteSpace=wrap;html=1;" parent="1" vertex="1">
          <mxGeometry x="190" y="873" width="120" height="40" as="geometry" />
        </mxCell>
        <mxCell id="3YwcnpwROPatrGz4Mxaa-69" value="" style="edgeStyle=orthogonalEdgeStyle;rounded=0;orthogonalLoop=1;jettySize=auto;html=1;" parent="1" source="Pi8hEcT-UzPFTWQV0Fow-27" target="Pi8hEcT-UzPFTWQV0Fow-28" edge="1">
          <mxGeometry relative="1" as="geometry" />
        </mxCell>
        <mxCell id="Pi8hEcT-UzPFTWQV0Fow-27" value="Diagnose" style="rounded=1;whiteSpace=wrap;html=1;" parent="1" vertex="1">
          <mxGeometry x="364" y="919" width="120" height="40" as="geometry" />
        </mxCell>
        <mxCell id="3YwcnpwROPatrGz4Mxaa-72" value="" style="edgeStyle=orthogonalEdgeStyle;rounded=0;orthogonalLoop=1;jettySize=auto;html=1;" parent="1" source="Pi8hEcT-UzPFTWQV0Fow-28" target="Pi8hEcT-UzPFTWQV0Fow-29" edge="1">
          <mxGeometry relative="1" as="geometry" />
        </mxCell>
        <mxCell id="Pi8hEcT-UzPFTWQV0Fow-28" value="Multi-disciplinary expert consultation" style="rounded=1;whiteSpace=wrap;html=1;" parent="1" vertex="1">
          <mxGeometry x="510" y="919" width="120" height="40" as="geometry" />
        </mxCell>
        <mxCell id="3YwcnpwROPatrGz4Mxaa-79" value="" style="edgeStyle=orthogonalEdgeStyle;rounded=0;orthogonalLoop=1;jettySize=auto;html=1;" parent="1" source="Pi8hEcT-UzPFTWQV0Fow-29" target="3YwcnpwROPatrGz4Mxaa-78" edge="1">
          <mxGeometry relative="1" as="geometry" />
        </mxCell>
        <mxCell id="Pi8hEcT-UzPFTWQV0Fow-29" value="Treatment" style="rounded=1;whiteSpace=wrap;html=1;" parent="1" vertex="1">
          <mxGeometry x="660" y="919" width="120" height="40" as="geometry" />
        </mxCell>
        <mxCell id="3YwcnpwROPatrGz4Mxaa-18" value="" style="edgeStyle=orthogonalEdgeStyle;rounded=0;orthogonalLoop=1;jettySize=auto;html=1;" parent="1" source="3YwcnpwROPatrGz4Mxaa-4" target="3YwcnpwROPatrGz4Mxaa-5" edge="1">
          <mxGeometry relative="1" as="geometry" />
        </mxCell>
        <mxCell id="3YwcnpwROPatrGz4Mxaa-4" value="LSTM" style="rounded=1;whiteSpace=wrap;html=1;" parent="1" vertex="1">
          <mxGeometry x="510" y="171" width="120" height="40" as="geometry" />
        </mxCell>
        <mxCell id="3YwcnpwROPatrGz4Mxaa-68" value="" style="edgeStyle=orthogonalEdgeStyle;rounded=0;orthogonalLoop=1;jettySize=auto;html=1;" parent="1" source="3YwcnpwROPatrGz4Mxaa-5" target="3YwcnpwROPatrGz4Mxaa-6" edge="1">
          <mxGeometry relative="1" as="geometry" />
        </mxCell>
        <mxCell id="3YwcnpwROPatrGz4Mxaa-5" value="GRU" style="rounded=1;whiteSpace=wrap;html=1;" parent="1" vertex="1">
          <mxGeometry x="510" y="221" width="120" height="40" as="geometry" />
        </mxCell>
        <mxCell id="3YwcnpwROPatrGz4Mxaa-83" value="" style="edgeStyle=orthogonalEdgeStyle;rounded=0;orthogonalLoop=1;jettySize=auto;html=1;" parent="1" source="3YwcnpwROPatrGz4Mxaa-6" target="3YwcnpwROPatrGz4Mxaa-23" edge="1">
          <mxGeometry relative="1" as="geometry" />
        </mxCell>
        <mxCell id="3YwcnpwROPatrGz4Mxaa-6" value="CNN" style="rounded=1;whiteSpace=wrap;html=1;" parent="1" vertex="1">
          <mxGeometry x="510" y="271" width="120" height="40" as="geometry" />
        </mxCell>
        <mxCell id="3YwcnpwROPatrGz4Mxaa-12" value="" style="edgeStyle=orthogonalEdgeStyle;rounded=0;orthogonalLoop=1;jettySize=auto;html=1;" parent="1" source="3YwcnpwROPatrGz4Mxaa-10" target="3YwcnpwROPatrGz4Mxaa-11" edge="1">
          <mxGeometry relative="1" as="geometry" />
        </mxCell>
        <mxCell id="3YwcnpwROPatrGz4Mxaa-10" value="Character" style="rounded=1;whiteSpace=wrap;html=1;" parent="1" vertex="1">
          <mxGeometry x="38" y="121" width="120" height="40" as="geometry" />
        </mxCell>
        <mxCell id="3YwcnpwROPatrGz4Mxaa-14" value="" style="edgeStyle=orthogonalEdgeStyle;rounded=0;orthogonalLoop=1;jettySize=auto;html=1;" parent="1" source="3YwcnpwROPatrGz4Mxaa-11" target="3YwcnpwROPatrGz4Mxaa-13" edge="1">
          <mxGeometry relative="1" as="geometry" />
        </mxCell>
        <mxCell id="3YwcnpwROPatrGz4Mxaa-11" value="Rules" style="rounded=1;whiteSpace=wrap;html=1;" parent="1" vertex="1">
          <mxGeometry x="189" y="121" width="120" height="40" as="geometry" />
        </mxCell>
        <mxCell id="3YwcnpwROPatrGz4Mxaa-16" value="" style="edgeStyle=orthogonalEdgeStyle;rounded=0;orthogonalLoop=1;jettySize=auto;html=1;" parent="1" source="3YwcnpwROPatrGz4Mxaa-13" target="3YwcnpwROPatrGz4Mxaa-15" edge="1">
          <mxGeometry relative="1" as="geometry" />
        </mxCell>
        <mxCell id="3YwcnpwROPatrGz4Mxaa-13" value="Vector/Embedding" style="rounded=1;whiteSpace=wrap;html=1;" parent="1" vertex="1">
          <mxGeometry x="189" y="200" width="120" height="40" as="geometry" />
        </mxCell>
        <mxCell id="3YwcnpwROPatrGz4Mxaa-86" style="edgeStyle=orthogonalEdgeStyle;rounded=0;orthogonalLoop=1;jettySize=auto;html=1;entryX=0;entryY=0.5;entryDx=0;entryDy=0;" parent="1" source="3YwcnpwROPatrGz4Mxaa-15" target="3YwcnpwROPatrGz4Mxaa-20" edge="1">
          <mxGeometry relative="1" as="geometry" />
        </mxCell>
        <mxCell id="3YwcnpwROPatrGz4Mxaa-15" value="Networks" style="rounded=1;whiteSpace=wrap;html=1;" parent="1" vertex="1">
          <mxGeometry x="350" y="121" width="120" height="40" as="geometry" />
        </mxCell>
        <mxCell id="3YwcnpwROPatrGz4Mxaa-20" value="RNN" style="rounded=1;whiteSpace=wrap;html=1;" parent="1" vertex="1">
          <mxGeometry x="510" y="121" width="120" height="40" as="geometry" />
        </mxCell>
        <mxCell id="3YwcnpwROPatrGz4Mxaa-26" value="" style="edgeStyle=orthogonalEdgeStyle;rounded=0;orthogonalLoop=1;jettySize=auto;html=1;" parent="1" edge="1">
          <mxGeometry relative="1" as="geometry">
            <mxPoint x="649" y="341.0666666666666" as="sourcePoint" />
            <mxPoint x="669" y="341.0666666666666" as="targetPoint" />
          </mxGeometry>
        </mxCell>
        <mxCell id="3YwcnpwROPatrGz4Mxaa-121" value="" style="edgeStyle=orthogonalEdgeStyle;rounded=0;orthogonalLoop=1;jettySize=auto;html=1;entryX=0;entryY=0.5;entryDx=0;entryDy=0;" parent="1" source="3YwcnpwROPatrGz4Mxaa-23" target="3YwcnpwROPatrGz4Mxaa-25" edge="1">
          <mxGeometry relative="1" as="geometry" />
        </mxCell>
        <mxCell id="3YwcnpwROPatrGz4Mxaa-23" value="Attention mechanism" style="rounded=1;whiteSpace=wrap;html=1;" parent="1" vertex="1">
          <mxGeometry x="510" y="321" width="120" height="40" as="geometry" />
        </mxCell>
        <mxCell id="3YwcnpwROPatrGz4Mxaa-28" value="" style="edgeStyle=orthogonalEdgeStyle;rounded=0;orthogonalLoop=1;jettySize=auto;html=1;" parent="1" source="3YwcnpwROPatrGz4Mxaa-25" target="3YwcnpwROPatrGz4Mxaa-27" edge="1">
          <mxGeometry relative="1" as="geometry" />
        </mxCell>
        <mxCell id="3YwcnpwROPatrGz4Mxaa-25" value="Word2Vec" style="rounded=1;whiteSpace=wrap;html=1;" parent="1" vertex="1">
          <mxGeometry x="650" y="321" width="120" height="40" as="geometry" />
        </mxCell>
        <mxCell id="3YwcnpwROPatrGz4Mxaa-30" value="" style="edgeStyle=orthogonalEdgeStyle;rounded=0;orthogonalLoop=1;jettySize=auto;html=1;" parent="1" source="3YwcnpwROPatrGz4Mxaa-27" target="3YwcnpwROPatrGz4Mxaa-29" edge="1">
          <mxGeometry relative="1" as="geometry" />
        </mxCell>
        <mxCell id="3YwcnpwROPatrGz4Mxaa-27" value="GloVe" style="rounded=1;whiteSpace=wrap;html=1;" parent="1" vertex="1">
          <mxGeometry x="650" y="271" width="120" height="40" as="geometry" />
        </mxCell>
        <mxCell id="3YwcnpwROPatrGz4Mxaa-32" value="" style="edgeStyle=orthogonalEdgeStyle;rounded=0;orthogonalLoop=1;jettySize=auto;html=1;" parent="1" source="3YwcnpwROPatrGz4Mxaa-29" target="3YwcnpwROPatrGz4Mxaa-31" edge="1">
          <mxGeometry relative="1" as="geometry" />
        </mxCell>
        <mxCell id="3YwcnpwROPatrGz4Mxaa-29" value="ELMo" style="rounded=1;whiteSpace=wrap;html=1;" parent="1" vertex="1">
          <mxGeometry x="650" y="221" width="120" height="40" as="geometry" />
        </mxCell>
        <mxCell id="3YwcnpwROPatrGz4Mxaa-34" value="" style="edgeStyle=orthogonalEdgeStyle;rounded=0;orthogonalLoop=1;jettySize=auto;html=1;" parent="1" source="3YwcnpwROPatrGz4Mxaa-31" target="3YwcnpwROPatrGz4Mxaa-33" edge="1">
          <mxGeometry relative="1" as="geometry" />
        </mxCell>
        <mxCell id="3YwcnpwROPatrGz4Mxaa-31" value="GPT" style="rounded=1;whiteSpace=wrap;html=1;" parent="1" vertex="1">
          <mxGeometry x="650" y="171" width="120" height="40" as="geometry" />
        </mxCell>
        <mxCell id="3YwcnpwROPatrGz4Mxaa-36" value="" style="edgeStyle=orthogonalEdgeStyle;rounded=0;orthogonalLoop=1;jettySize=auto;html=1;" parent="1" source="3YwcnpwROPatrGz4Mxaa-33" target="3YwcnpwROPatrGz4Mxaa-35" edge="1">
          <mxGeometry relative="1" as="geometry" />
        </mxCell>
        <mxCell id="3YwcnpwROPatrGz4Mxaa-33" value="BERT" style="rounded=1;whiteSpace=wrap;html=1;" parent="1" vertex="1">
          <mxGeometry x="650" y="121" width="120" height="40" as="geometry" />
        </mxCell>
        <mxCell id="3YwcnpwROPatrGz4Mxaa-38" value="" style="edgeStyle=orthogonalEdgeStyle;rounded=0;orthogonalLoop=1;jettySize=auto;html=1;" parent="1" source="3YwcnpwROPatrGz4Mxaa-35" target="3YwcnpwROPatrGz4Mxaa-37" edge="1">
          <mxGeometry relative="1" as="geometry" />
        </mxCell>
        <mxCell id="3YwcnpwROPatrGz4Mxaa-35" value="XLNet" style="rounded=1;whiteSpace=wrap;html=1;" parent="1" vertex="1">
          <mxGeometry x="790" y="121" width="120" height="40" as="geometry" />
        </mxCell>
        <mxCell id="3YwcnpwROPatrGz4Mxaa-40" value="" style="edgeStyle=orthogonalEdgeStyle;rounded=0;orthogonalLoop=1;jettySize=auto;html=1;" parent="1" source="3YwcnpwROPatrGz4Mxaa-37" target="3YwcnpwROPatrGz4Mxaa-39" edge="1">
          <mxGeometry relative="1" as="geometry" />
        </mxCell>
        <mxCell id="3YwcnpwROPatrGz4Mxaa-37" value="GPT-2" style="rounded=1;whiteSpace=wrap;html=1;" parent="1" vertex="1">
          <mxGeometry x="790" y="171" width="120" height="40" as="geometry" />
        </mxCell>
        <mxCell id="3YwcnpwROPatrGz4Mxaa-42" value="" style="edgeStyle=orthogonalEdgeStyle;rounded=0;orthogonalLoop=1;jettySize=auto;html=1;" parent="1" source="3YwcnpwROPatrGz4Mxaa-39" target="3YwcnpwROPatrGz4Mxaa-41" edge="1">
          <mxGeometry relative="1" as="geometry" />
        </mxCell>
        <mxCell id="3YwcnpwROPatrGz4Mxaa-39" value="RoBERTa" style="rounded=1;whiteSpace=wrap;html=1;" parent="1" vertex="1">
          <mxGeometry x="790" y="221" width="120" height="40" as="geometry" />
        </mxCell>
        <mxCell id="3YwcnpwROPatrGz4Mxaa-44" value="" style="edgeStyle=orthogonalEdgeStyle;rounded=0;orthogonalLoop=1;jettySize=auto;html=1;" parent="1" source="3YwcnpwROPatrGz4Mxaa-41" target="3YwcnpwROPatrGz4Mxaa-43" edge="1">
          <mxGeometry relative="1" as="geometry" />
        </mxCell>
        <mxCell id="3YwcnpwROPatrGz4Mxaa-41" value="T5" style="rounded=1;whiteSpace=wrap;html=1;" parent="1" vertex="1">
          <mxGeometry x="790" y="271" width="120" height="40" as="geometry" />
        </mxCell>
        <mxCell id="3YwcnpwROPatrGz4Mxaa-43" value="GPT-3" style="rounded=1;whiteSpace=wrap;html=1;" parent="1" vertex="1">
          <mxGeometry x="790" y="321" width="120" height="40" as="geometry" />
        </mxCell>
        <mxCell id="3YwcnpwROPatrGz4Mxaa-53" value="" style="edgeStyle=orthogonalEdgeStyle;rounded=0;orthogonalLoop=1;jettySize=auto;html=1;" parent="1" source="3YwcnpwROPatrGz4Mxaa-45" target="Pi8hEcT-UzPFTWQV0Fow-18" edge="1">
          <mxGeometry relative="1" as="geometry" />
        </mxCell>
        <mxCell id="3YwcnpwROPatrGz4Mxaa-45" value="Pre-trained model&lt;br&gt;Transfer learning" style="rounded=1;whiteSpace=wrap;html=1;" parent="1" vertex="1">
          <mxGeometry x="801" y="411" width="120" height="40" as="geometry" />
        </mxCell>
        <mxCell id="3YwcnpwROPatrGz4Mxaa-49" value="" style="edgeStyle=orthogonalEdgeStyle;rounded=0;orthogonalLoop=1;jettySize=auto;html=1;" parent="1" source="3YwcnpwROPatrGz4Mxaa-46" target="3YwcnpwROPatrGz4Mxaa-45" edge="1">
          <mxGeometry relative="1" as="geometry" />
        </mxCell>
        <mxCell id="3YwcnpwROPatrGz4Mxaa-46" value="Deep learning" style="rounded=1;whiteSpace=wrap;html=1;" parent="1" vertex="1">
          <mxGeometry x="660" y="411" width="120" height="40" as="geometry" />
        </mxCell>
        <mxCell id="3YwcnpwROPatrGz4Mxaa-57" value="" style="edgeStyle=orthogonalEdgeStyle;rounded=0;orthogonalLoop=1;jettySize=auto;html=1;" parent="1" source="3YwcnpwROPatrGz4Mxaa-56" target="3YwcnpwROPatrGz4Mxaa-46" edge="1">
          <mxGeometry relative="1" as="geometry" />
        </mxCell>
        <mxCell id="3YwcnpwROPatrGz4Mxaa-87" style="edgeStyle=orthogonalEdgeStyle;rounded=0;orthogonalLoop=1;jettySize=auto;html=1;entryX=0;entryY=0.5;entryDx=0;entryDy=0;" parent="1" source="3YwcnpwROPatrGz4Mxaa-56" target="Pi8hEcT-UzPFTWQV0Fow-22" edge="1">
          <mxGeometry relative="1" as="geometry">
            <Array as="points">
              <mxPoint x="640" y="431" />
              <mxPoint x="640" y="551" />
            </Array>
          </mxGeometry>
        </mxCell>
        <mxCell id="3YwcnpwROPatrGz4Mxaa-89" style="edgeStyle=orthogonalEdgeStyle;rounded=0;orthogonalLoop=1;jettySize=auto;html=1;entryX=0;entryY=0.5;entryDx=0;entryDy=0;" parent="1" target="rx6X9McxMyGjfHhke_SE-6" edge="1">
          <mxGeometry relative="1" as="geometry">
            <mxPoint x="618" y="431" as="sourcePoint" />
            <mxPoint x="654" y="533" as="targetPoint" />
            <Array as="points">
              <mxPoint x="640" y="431" />
              <mxPoint x="640" y="610" />
            </Array>
          </mxGeometry>
        </mxCell>
        <mxCell id="rx6X9McxMyGjfHhke_SE-8" style="edgeStyle=orthogonalEdgeStyle;rounded=0;orthogonalLoop=1;jettySize=auto;html=1;exitX=1;exitY=0.5;exitDx=0;exitDy=0;entryX=0;entryY=0.5;entryDx=0;entryDy=0;" parent="1" source="3YwcnpwROPatrGz4Mxaa-56" target="3YwcnpwROPatrGz4Mxaa-74" edge="1">
          <mxGeometry relative="1" as="geometry">
            <Array as="points">
              <mxPoint x="640" y="431" />
              <mxPoint x="640" y="493" />
            </Array>
          </mxGeometry>
        </mxCell>
        <mxCell id="3YwcnpwROPatrGz4Mxaa-56" value="Machine learning" style="rounded=1;whiteSpace=wrap;html=1;" parent="1" vertex="1">
          <mxGeometry x="510" y="411" width="120" height="40" as="geometry" />
        </mxCell>
        <mxCell id="3YwcnpwROPatrGz4Mxaa-60" value="" style="edgeStyle=orthogonalEdgeStyle;rounded=0;orthogonalLoop=1;jettySize=auto;html=1;" parent="1" source="3YwcnpwROPatrGz4Mxaa-58" target="3YwcnpwROPatrGz4Mxaa-56" edge="1">
          <mxGeometry relative="1" as="geometry" />
        </mxCell>
        <mxCell id="3YwcnpwROPatrGz4Mxaa-58" value="Rules" style="rounded=1;whiteSpace=wrap;html=1;" parent="1" vertex="1">
          <mxGeometry x="350" y="411" width="120" height="40" as="geometry" />
        </mxCell>
        <mxCell id="3YwcnpwROPatrGz4Mxaa-64" style="edgeStyle=orthogonalEdgeStyle;rounded=0;orthogonalLoop=1;jettySize=auto;html=1;entryX=0;entryY=0.5;entryDx=0;entryDy=0;" parent="1" source="3YwcnpwROPatrGz4Mxaa-63" target="3YwcnpwROPatrGz4Mxaa-58" edge="1">
          <mxGeometry relative="1" as="geometry" />
        </mxCell>
        <mxCell id="3YwcnpwROPatrGz4Mxaa-63" value="Non-Graph" style="rounded=1;whiteSpace=wrap;html=1;" parent="1" vertex="1">
          <mxGeometry x="189" y="411" width="120" height="40" as="geometry" />
        </mxCell>
        <mxCell id="3YwcnpwROPatrGz4Mxaa-74" value="Reinforcement learning" style="rounded=1;whiteSpace=wrap;html=1;" parent="1" vertex="1">
          <mxGeometry x="660" y="473" width="120" height="40" as="geometry" />
        </mxCell>
        <mxCell id="3YwcnpwROPatrGz4Mxaa-78" value="Follow up" style="rounded=1;whiteSpace=wrap;html=1;" parent="1" vertex="1">
          <mxGeometry x="801" y="919" width="120" height="40" as="geometry" />
        </mxCell>
        <mxCell id="3YwcnpwROPatrGz4Mxaa-112" style="edgeStyle=orthogonalEdgeStyle;rounded=0;orthogonalLoop=1;jettySize=auto;html=1;entryX=0;entryY=0.5;entryDx=0;entryDy=0;" parent="1" source="3YwcnpwROPatrGz4Mxaa-80" target="Pi8hEcT-UzPFTWQV0Fow-27" edge="1">
          <mxGeometry relative="1" as="geometry" />
        </mxCell>
        <mxCell id="3YwcnpwROPatrGz4Mxaa-80" value="Body Checking" style="rounded=1;whiteSpace=wrap;html=1;" parent="1" vertex="1">
          <mxGeometry x="190" y="965" width="120" height="40" as="geometry" />
        </mxCell>
        <mxCell id="3YwcnpwROPatrGz4Mxaa-84" value="Data ethics" style="rounded=1;whiteSpace=wrap;html=1;" parent="1" vertex="1">
          <mxGeometry x="40" y="411" width="120" height="40" as="geometry" />
        </mxCell>
        <mxCell id="3YwcnpwROPatrGz4Mxaa-95" value="" style="edgeStyle=orthogonalEdgeStyle;rounded=0;orthogonalLoop=1;jettySize=auto;html=1;" parent="1" source="3YwcnpwROPatrGz4Mxaa-91" target="3YwcnpwROPatrGz4Mxaa-84" edge="1">
          <mxGeometry relative="1" as="geometry" />
        </mxCell>
        <mxCell id="3YwcnpwROPatrGz4Mxaa-96" style="edgeStyle=orthogonalEdgeStyle;rounded=0;orthogonalLoop=1;jettySize=auto;html=1;entryX=0;entryY=0.5;entryDx=0;entryDy=0;" parent="1" target="3YwcnpwROPatrGz4Mxaa-63" edge="1">
          <mxGeometry relative="1" as="geometry">
            <mxPoint x="153" y="493.0666666666666" as="sourcePoint" />
            <mxPoint x="182" y="431" as="targetPoint" />
            <Array as="points">
              <mxPoint x="173" y="493" />
              <mxPoint x="173" y="431" />
            </Array>
          </mxGeometry>
        </mxCell>
        <mxCell id="3YwcnpwROPatrGz4Mxaa-97" style="edgeStyle=orthogonalEdgeStyle;rounded=0;orthogonalLoop=1;jettySize=auto;html=1;entryX=0;entryY=0.5;entryDx=0;entryDy=0;" parent="1" source="3YwcnpwROPatrGz4Mxaa-91" target="Pi8hEcT-UzPFTWQV0Fow-19" edge="1">
          <mxGeometry relative="1" as="geometry" />
        </mxCell>
        <mxCell id="cOXOFWujEfpBhuLw7qSK-3" style="edgeStyle=orthogonalEdgeStyle;rounded=0;orthogonalLoop=1;jettySize=auto;html=1;entryX=0;entryY=0.5;entryDx=0;entryDy=0;" parent="1" target="cOXOFWujEfpBhuLw7qSK-1" edge="1">
          <mxGeometry relative="1" as="geometry">
            <mxPoint x="164" y="493" as="sourcePoint" />
            <mxPoint x="193" y="551" as="targetPoint" />
            <Array as="points">
              <mxPoint x="173" y="493" />
              <mxPoint x="173" y="551" />
            </Array>
          </mxGeometry>
        </mxCell>
        <mxCell id="3YwcnpwROPatrGz4Mxaa-91" value="Data" style="rounded=1;whiteSpace=wrap;html=1;" parent="1" vertex="1">
          <mxGeometry x="40" y="473" width="120" height="40" as="geometry" />
        </mxCell>
        <mxCell id="3YwcnpwROPatrGz4Mxaa-102" value="&lt;b&gt;&lt;font style=&quot;font-size: 18px;&quot;&gt;Vision&lt;/font&gt;&lt;/b&gt;" style="text;html=1;strokeColor=none;fillColor=none;align=center;verticalAlign=middle;whiteSpace=wrap;rounded=0;" parent="1" vertex="1">
          <mxGeometry x="38" y="21" width="60" height="30" as="geometry" />
        </mxCell>
        <mxCell id="3YwcnpwROPatrGz4Mxaa-103" value="&lt;b&gt;&lt;font style=&quot;font-size: 18px;&quot;&gt;Language&lt;/font&gt;&lt;/b&gt;" style="text;html=1;strokeColor=none;fillColor=none;align=center;verticalAlign=middle;whiteSpace=wrap;rounded=0;" parent="1" vertex="1">
          <mxGeometry x="53" y="92" width="60" height="30" as="geometry" />
        </mxCell>
        <mxCell id="3YwcnpwROPatrGz4Mxaa-120" value="" style="edgeStyle=orthogonalEdgeStyle;rounded=0;orthogonalLoop=1;jettySize=auto;html=1;" parent="1" source="3YwcnpwROPatrGz4Mxaa-104" target="3YwcnpwROPatrGz4Mxaa-100" edge="1">
          <mxGeometry relative="1" as="geometry" />
        </mxCell>
        <mxCell id="3YwcnpwROPatrGz4Mxaa-104" value="&lt;font style=&quot;font-size: 18px;&quot;&gt;&lt;b&gt;Clinical tasks&lt;/b&gt;&lt;/font&gt;" style="text;html=1;strokeColor=none;fillColor=none;align=center;verticalAlign=middle;whiteSpace=wrap;rounded=0;" parent="1" vertex="1">
          <mxGeometry x="40" y="866" width="120" height="30" as="geometry" />
        </mxCell>
        <mxCell id="3YwcnpwROPatrGz4Mxaa-106" style="edgeStyle=orthogonalEdgeStyle;orthogonalLoop=1;jettySize=auto;html=1;startArrow=open;startFill=0;endArrow=open;endFill=0;strokeWidth=5;rounded=0;strokeColor=none;shape=flexArrow;fillColor=#60B943;gradientColor=#61EFFF;" parent="1" source="3YwcnpwROPatrGz4Mxaa-105" edge="1">
          <mxGeometry relative="1" as="geometry">
            <mxPoint x="97" y="400" as="targetPoint" />
          </mxGeometry>
        </mxCell>
        <mxCell id="3YwcnpwROPatrGz4Mxaa-105" value="&lt;b&gt;&lt;font style=&quot;font-size: 18px;&quot;&gt;AI&lt;/font&gt;&lt;/b&gt;" style="text;html=1;strokeColor=none;fillColor=none;align=center;verticalAlign=middle;whiteSpace=wrap;rounded=0;" parent="1" vertex="1">
          <mxGeometry x="38" y="221" width="117" height="30" as="geometry" />
        </mxCell>
        <mxCell id="3YwcnpwROPatrGz4Mxaa-108" value="" style="edgeStyle=orthogonalEdgeStyle;rounded=0;orthogonalLoop=1;jettySize=auto;html=1;" parent="1" source="3YwcnpwROPatrGz4Mxaa-107" edge="1">
          <mxGeometry relative="1" as="geometry">
            <mxPoint x="190" y="939" as="targetPoint" />
          </mxGeometry>
        </mxCell>
        <mxCell id="3YwcnpwROPatrGz4Mxaa-107" value="Patient" style="rounded=1;whiteSpace=wrap;html=1;" parent="1" vertex="1">
          <mxGeometry x="40" y="919" width="120" height="40" as="geometry" />
        </mxCell>
        <mxCell id="3YwcnpwROPatrGz4Mxaa-119" style="edgeStyle=orthogonalEdgeStyle;rounded=0;orthogonalLoop=1;jettySize=auto;html=1;exitX=0.5;exitY=1;exitDx=0;exitDy=0;" parent="1" source="Pi8hEcT-UzPFTWQV0Fow-21" target="3YwcnpwROPatrGz4Mxaa-91" edge="1">
          <mxGeometry relative="1" as="geometry">
            <Array as="points">
              <mxPoint x="1000" y="750" />
              <mxPoint x="100" y="750" />
            </Array>
          </mxGeometry>
        </mxCell>
        <mxCell id="Pi8hEcT-UzPFTWQV0Fow-21" value="Human in the loop" style="rounded=1;whiteSpace=wrap;html=1;" parent="1" vertex="1">
          <mxGeometry x="940" y="531" width="120" height="40" as="geometry" />
        </mxCell>
        <mxCell id="3YwcnpwROPatrGz4Mxaa-118" value="" style="edgeStyle=orthogonalEdgeStyle;rounded=0;orthogonalLoop=1;jettySize=auto;html=1;" parent="1" source="3YwcnpwROPatrGz4Mxaa-47" target="Pi8hEcT-UzPFTWQV0Fow-21" edge="1">
          <mxGeometry relative="1" as="geometry" />
        </mxCell>
        <mxCell id="3YwcnpwROPatrGz4Mxaa-47" value="Knowledge Graph" style="rounded=1;whiteSpace=wrap;html=1;" parent="1" vertex="1">
          <mxGeometry x="940" y="473" width="120" height="40" as="geometry" />
        </mxCell>
        <mxCell id="cOXOFWujEfpBhuLw7qSK-2" style="edgeStyle=orthogonalEdgeStyle;rounded=0;orthogonalLoop=1;jettySize=auto;html=1;" parent="1" source="cOXOFWujEfpBhuLw7qSK-1" edge="1">
          <mxGeometry relative="1" as="geometry">
            <mxPoint x="410" y="452" as="targetPoint" />
          </mxGeometry>
        </mxCell>
        <mxCell id="cOXOFWujEfpBhuLw7qSK-1" value="Synthetic" style="rounded=1;whiteSpace=wrap;html=1;" parent="1" vertex="1">
          <mxGeometry x="189" y="531" width="120" height="40" as="geometry" />
        </mxCell>
        <mxCell id="lw3kkG5exDQ4XbV0W9wH-14" value="" style="rounded=1;whiteSpace=wrap;html=1;fillColor=#eeeeee;strokeColor=#36393d;dashed=1;dashPattern=12 12;" parent="1" vertex="1">
          <mxGeometry x="20" y="1055" width="1060" height="220" as="geometry" />
        </mxCell>
        <mxCell id="lw3kkG5exDQ4XbV0W9wH-18" value="&lt;font style=&quot;font-size: 18px;&quot;&gt;&lt;b&gt;Treatment&lt;/b&gt;&lt;/font&gt;" style="text;html=1;strokeColor=none;fillColor=none;align=center;verticalAlign=middle;whiteSpace=wrap;rounded=0;" parent="1" vertex="1">
          <mxGeometry x="36.5" y="1065" width="120" height="30" as="geometry" />
        </mxCell>
        <mxCell id="lw3kkG5exDQ4XbV0W9wH-28" value="" style="edgeStyle=orthogonalEdgeStyle;rounded=0;orthogonalLoop=1;jettySize=auto;html=1;entryX=0;entryY=0.5;entryDx=0;entryDy=0;exitX=0.084;exitY=0.998;exitDx=0;exitDy=0;exitPerimeter=0;" parent="1" source="lw3kkG5exDQ4XbV0W9wH-19" target="lw3kkG5exDQ4XbV0W9wH-27" edge="1">
          <mxGeometry relative="1" as="geometry">
            <Array as="points">
              <mxPoint x="50" y="1185" />
            </Array>
          </mxGeometry>
        </mxCell>
        <mxCell id="lw3kkG5exDQ4XbV0W9wH-19" value="surgery" style="rounded=1;whiteSpace=wrap;html=1;" parent="1" vertex="1">
          <mxGeometry x="40" y="1105" width="120" height="40" as="geometry" />
        </mxCell>
        <mxCell id="lw3kkG5exDQ4XbV0W9wH-32" value="" style="edgeStyle=orthogonalEdgeStyle;rounded=0;orthogonalLoop=1;jettySize=auto;html=1;entryX=0;entryY=0.5;entryDx=0;entryDy=0;" parent="1" source="lw3kkG5exDQ4XbV0W9wH-20" target="lw3kkG5exDQ4XbV0W9wH-31" edge="1">
          <mxGeometry relative="1" as="geometry">
            <Array as="points">
              <mxPoint x="200" y="1185" />
            </Array>
          </mxGeometry>
        </mxCell>
        <mxCell id="lw3kkG5exDQ4XbV0W9wH-20" value="radiotherapy" style="rounded=1;whiteSpace=wrap;html=1;" parent="1" vertex="1">
          <mxGeometry x="180" y="1105" width="120" height="40" as="geometry" />
        </mxCell>
        <mxCell id="lw3kkG5exDQ4XbV0W9wH-21" value="chemotherapy" style="rounded=1;whiteSpace=wrap;html=1;" parent="1" vertex="1">
          <mxGeometry x="484" y="1105" width="120" height="40" as="geometry" />
        </mxCell>
        <mxCell id="lw3kkG5exDQ4XbV0W9wH-22" value="immunotherapy" style="rounded=1;whiteSpace=wrap;html=1;" parent="1" vertex="1">
          <mxGeometry x="630" y="1105" width="120" height="40" as="geometry" />
        </mxCell>
        <mxCell id="lw3kkG5exDQ4XbV0W9wH-23" value="hormone therapy" style="rounded=1;whiteSpace=wrap;html=1;" parent="1" vertex="1">
          <mxGeometry x="780" y="1105" width="120" height="40" as="geometry" />
        </mxCell>
        <mxCell id="lw3kkG5exDQ4XbV0W9wH-36" value="" style="edgeStyle=orthogonalEdgeStyle;rounded=0;orthogonalLoop=1;jettySize=auto;html=1;entryX=0;entryY=0.5;entryDx=0;entryDy=0;" parent="1" source="lw3kkG5exDQ4XbV0W9wH-24" target="lw3kkG5exDQ4XbV0W9wH-35" edge="1">
          <mxGeometry relative="1" as="geometry">
            <Array as="points">
              <mxPoint x="349" y="1185" />
            </Array>
          </mxGeometry>
        </mxCell>
        <mxCell id="lw3kkG5exDQ4XbV0W9wH-24" value="medicine treatment" style="rounded=1;whiteSpace=wrap;html=1;" parent="1" vertex="1">
          <mxGeometry x="329" y="1105" width="120" height="40" as="geometry" />
        </mxCell>
        <mxCell id="lw3kkG5exDQ4XbV0W9wH-26" value="physical, psychological therapy" style="rounded=1;whiteSpace=wrap;html=1;" parent="1" vertex="1">
          <mxGeometry x="930" y="1105" width="120" height="40" as="geometry" />
        </mxCell>
        <mxCell id="lw3kkG5exDQ4XbV0W9wH-27" value="Image-guided interventions" style="rounded=1;whiteSpace=wrap;html=1;" parent="1" vertex="1">
          <mxGeometry x="70" y="1165" width="120" height="40" as="geometry" />
        </mxCell>
        <mxCell id="lw3kkG5exDQ4XbV0W9wH-29" value="Robotic surgery" style="rounded=1;whiteSpace=wrap;html=1;" parent="1" vertex="1">
          <mxGeometry x="69" y="1215" width="120" height="40" as="geometry" />
        </mxCell>
        <mxCell id="lw3kkG5exDQ4XbV0W9wH-30" value="" style="edgeStyle=orthogonalEdgeStyle;rounded=0;orthogonalLoop=1;jettySize=auto;html=1;exitX=0.091;exitY=1.04;exitDx=0;exitDy=0;exitPerimeter=0;" parent="1" edge="1">
          <mxGeometry relative="1" as="geometry">
            <mxPoint x="49.91999999999996" y="1146.6" as="sourcePoint" />
            <mxPoint x="70" y="1235" as="targetPoint" />
            <Array as="points">
              <mxPoint x="50" y="1235" />
            </Array>
          </mxGeometry>
        </mxCell>
        <mxCell id="lw3kkG5exDQ4XbV0W9wH-31" value="External beam radiotherapy" style="rounded=1;whiteSpace=wrap;html=1;" parent="1" vertex="1">
          <mxGeometry x="220" y="1165" width="120" height="40" as="geometry" />
        </mxCell>
        <mxCell id="lw3kkG5exDQ4XbV0W9wH-33" value="Radionuclide therapy" style="rounded=1;whiteSpace=wrap;html=1;" parent="1" vertex="1">
          <mxGeometry x="220" y="1215" width="120" height="40" as="geometry" />
        </mxCell>
        <mxCell id="lw3kkG5exDQ4XbV0W9wH-34" value="" style="edgeStyle=orthogonalEdgeStyle;rounded=0;orthogonalLoop=1;jettySize=auto;html=1;exitX=0.168;exitY=1.027;exitDx=0;exitDy=0;exitPerimeter=0;" parent="1" edge="1">
          <mxGeometry relative="1" as="geometry">
            <mxPoint x="200.15999999999997" y="1146.08" as="sourcePoint" />
            <mxPoint x="220" y="1235" as="targetPoint" />
            <Array as="points">
              <mxPoint x="200" y="1235" />
            </Array>
          </mxGeometry>
        </mxCell>
        <mxCell id="lw3kkG5exDQ4XbV0W9wH-35" value="Drug discovery" style="rounded=1;whiteSpace=wrap;html=1;" parent="1" vertex="1">
          <mxGeometry x="369" y="1165" width="120" height="40" as="geometry" />
        </mxCell>
        <mxCell id="lw3kkG5exDQ4XbV0W9wH-38" value="Drup development" style="rounded=1;whiteSpace=wrap;html=1;" parent="1" vertex="1">
          <mxGeometry x="369" y="1215" width="120" height="40" as="geometry" />
        </mxCell>
        <mxCell id="lw3kkG5exDQ4XbV0W9wH-39" value="" style="edgeStyle=orthogonalEdgeStyle;rounded=0;orthogonalLoop=1;jettySize=auto;html=1;entryX=0;entryY=0.5;entryDx=0;entryDy=0;" parent="1" target="lw3kkG5exDQ4XbV0W9wH-38" edge="1">
          <mxGeometry relative="1" as="geometry">
            <mxPoint x="349" y="1146" as="sourcePoint" />
            <mxPoint x="379" y="1195" as="targetPoint" />
            <Array as="points">
              <mxPoint x="349" y="1146" />
              <mxPoint x="349" y="1235" />
            </Array>
          </mxGeometry>
        </mxCell>
        <mxCell id="rx6X9McxMyGjfHhke_SE-2" value="Foundation Model" style="rounded=1;whiteSpace=wrap;html=1;fillColor=#f5f5f5;gradientColor=#b3b3b3;strokeColor=#666666;opacity=70;fontSize=16;fontStyle=1" parent="1" vertex="1">
          <mxGeometry x="940" y="51" width="100" height="198" as="geometry" />
        </mxCell>
        <mxCell id="rx6X9McxMyGjfHhke_SE-3" value="" style="edgeStyle=orthogonalEdgeStyle;rounded=0;orthogonalLoop=1;jettySize=auto;html=1;" parent="1" edge="1">
          <mxGeometry relative="1" as="geometry">
            <mxPoint x="569" y="162" as="sourcePoint" />
            <mxPoint x="569" y="172" as="targetPoint" />
          </mxGeometry>
        </mxCell>
        <mxCell id="rx6X9McxMyGjfHhke_SE-6" value="Difussion model" style="rounded=1;whiteSpace=wrap;html=1;" parent="1" vertex="1">
          <mxGeometry x="660" y="590" width="120" height="40" as="geometry" />
        </mxCell>
        <mxCell id="r89FXQ90YG-ryaBY_Xcs-1" value="" style="rounded=1;whiteSpace=wrap;html=1;arcSize=6;fillColor=none;" parent="1" vertex="1">
          <mxGeometry x="180" y="650" width="740" height="80" as="geometry" />
        </mxCell>
        <mxCell id="r89FXQ90YG-ryaBY_Xcs-2" value="Reconstruction" style="rounded=0;whiteSpace=wrap;html=1;fillColor=#ffff88;strokeColor=#36393d;" parent="1" vertex="1">
          <mxGeometry x="200" y="660" width="120" height="60" as="geometry" />
        </mxCell>
        <mxCell id="r89FXQ90YG-ryaBY_Xcs-3" value="Registration" style="rounded=0;whiteSpace=wrap;html=1;fillColor=#ffff88;strokeColor=#36393d;" parent="1" vertex="1">
          <mxGeometry x="340" y="660" width="120" height="60" as="geometry" />
        </mxCell>
        <mxCell id="r89FXQ90YG-ryaBY_Xcs-4" value="Segmentation" style="rounded=0;whiteSpace=wrap;html=1;fillColor=#ffff88;strokeColor=#36393d;" parent="1" vertex="1">
          <mxGeometry x="484" y="660" width="120" height="60" as="geometry" />
        </mxCell>
        <mxCell id="r89FXQ90YG-ryaBY_Xcs-5" value="Classification" style="rounded=0;whiteSpace=wrap;html=1;fillColor=#ffff88;strokeColor=#36393d;" parent="1" vertex="1">
          <mxGeometry x="630" y="660" width="120" height="60" as="geometry" />
        </mxCell>
        <mxCell id="r89FXQ90YG-ryaBY_Xcs-6" value="Regression" style="rounded=0;whiteSpace=wrap;html=1;fillColor=#ffff88;strokeColor=#36393d;" parent="1" vertex="1">
          <mxGeometry x="780" y="660" width="120" height="60" as="geometry" />
        </mxCell>
      </root>
    </mxGraphModel>
  </diagram>
  <diagram id="---rLsoLXEYwvvjkNDtz" name="Philosophy">
    <mxGraphModel dx="765" dy="533" grid="1" gridSize="10" guides="1" tooltips="1" connect="1" arrows="1" fold="1" page="1" pageScale="1" pageWidth="827" pageHeight="1169" math="0" shadow="0">
      <root>
        <mxCell id="0" />
        <mxCell id="1" parent="0" />
        <mxCell id="Lr6pGijw1aAGD-XwsXpY-1" value="" style="rounded=0;whiteSpace=wrap;html=1;strokeColor=#000000;strokeWidth=3;fontSize=15;fillColor=none;dashed=1;" parent="1" vertex="1">
          <mxGeometry x="40" y="10" width="680" height="466" as="geometry" />
        </mxCell>
        <mxCell id="Lr6pGijw1aAGD-XwsXpY-6" style="edgeStyle=orthogonalEdgeStyle;rounded=0;orthogonalLoop=1;jettySize=auto;html=1;entryX=1;entryY=0.5;entryDx=0;entryDy=0;startArrow=classic;startFill=1;" parent="1" source="UPY7fHwO0GwYCJHNfawm-1" target="UPY7fHwO0GwYCJHNfawm-7" edge="1">
          <mxGeometry relative="1" as="geometry" />
        </mxCell>
        <mxCell id="Lr6pGijw1aAGD-XwsXpY-9" style="edgeStyle=orthogonalEdgeStyle;rounded=0;orthogonalLoop=1;jettySize=auto;html=1;exitX=1;exitY=0.5;exitDx=0;exitDy=0;entryX=1;entryY=0.5;entryDx=0;entryDy=0;" parent="1" source="UPY7fHwO0GwYCJHNfawm-1" target="UPY7fHwO0GwYCJHNfawm-3" edge="1">
          <mxGeometry relative="1" as="geometry" />
        </mxCell>
        <mxCell id="UPY7fHwO0GwYCJHNfawm-1" value="&lt;font style=&quot;font-size: 14px;&quot;&gt;自恋受损&lt;/font&gt;" style="rounded=1;whiteSpace=wrap;html=1;gradientDirection=east;fillColor=#18FF08;strokeColor=#d79b00;gradientColor=#363636;" parent="1" vertex="1">
          <mxGeometry x="520" y="160" width="120" height="40" as="geometry" />
        </mxCell>
        <mxCell id="UPY7fHwO0GwYCJHNfawm-2" value="&lt;div style=&quot;text-align: justify;&quot;&gt;&lt;span style=&quot;font-size: medium; background-color: initial;&quot;&gt;边&lt;/span&gt;&lt;br&gt;&lt;/div&gt;&lt;div style=&quot;text-align: justify;&quot;&gt;&lt;span style=&quot;font-size: medium; background-color: initial;&quot;&gt;&lt;br&gt;&lt;/span&gt;&lt;/div&gt;&lt;div style=&quot;text-align: justify;&quot;&gt;&lt;span style=&quot;font-size: medium; background-color: initial;&quot;&gt;&lt;br&gt;&lt;/span&gt;&lt;/div&gt;&lt;div style=&quot;text-align: justify;&quot;&gt;&lt;span style=&quot;font-size: medium; background-color: initial;&quot;&gt;&lt;br&gt;&lt;/span&gt;&lt;/div&gt;&lt;div style=&quot;text-align: justify;&quot;&gt;&lt;span style=&quot;font-size: medium; background-color: initial;&quot;&gt;&lt;br&gt;&lt;/span&gt;&lt;/div&gt;&lt;div style=&quot;text-align: justify;&quot;&gt;&lt;span style=&quot;font-size: medium; background-color: initial;&quot;&gt;&lt;br&gt;&lt;/span&gt;&lt;/div&gt;&lt;div style=&quot;text-align: justify;&quot;&gt;&lt;span style=&quot;font-size: medium; background-color: initial;&quot;&gt;&lt;br&gt;&lt;/span&gt;&lt;/div&gt;&lt;div style=&quot;text-align: justify;&quot;&gt;&lt;span style=&quot;background-color: initial;&quot;&gt;&lt;font size=&quot;3&quot;&gt;&lt;br&gt;&lt;/font&gt;&lt;/span&gt;&lt;/div&gt;&lt;div style=&quot;text-align: justify;&quot;&gt;&lt;span style=&quot;background-color: initial;&quot;&gt;&lt;font size=&quot;3&quot;&gt;&lt;br&gt;&lt;/font&gt;&lt;/span&gt;&lt;/div&gt;&lt;div style=&quot;text-align: justify;&quot;&gt;&lt;span style=&quot;background-color: initial;&quot;&gt;&lt;font size=&quot;3&quot;&gt;界&lt;/font&gt;&lt;/span&gt;&lt;/div&gt;" style="rounded=1;whiteSpace=wrap;html=1;fillColor=#d5e8d4;strokeColor=#82b366;opacity=50;align=center;" parent="1" vertex="1">
          <mxGeometry x="360" y="120" width="40" height="240" as="geometry" />
        </mxCell>
        <mxCell id="Lr6pGijw1aAGD-XwsXpY-4" style="edgeStyle=orthogonalEdgeStyle;rounded=0;orthogonalLoop=1;jettySize=auto;html=1;entryX=1;entryY=0.5;entryDx=0;entryDy=0;" parent="1" source="UPY7fHwO0GwYCJHNfawm-3" target="UPY7fHwO0GwYCJHNfawm-7" edge="1">
          <mxGeometry relative="1" as="geometry" />
        </mxCell>
        <mxCell id="UPY7fHwO0GwYCJHNfawm-3" value="&lt;font style=&quot;font-size: 14px;&quot;&gt;受助者恶意&lt;/font&gt;" style="rounded=1;whiteSpace=wrap;html=1;fillColor=#19BDB2;gradientColor=#474747;gradientDirection=east;" parent="1" vertex="1">
          <mxGeometry x="520" y="280" width="120" height="40" as="geometry" />
        </mxCell>
        <mxCell id="Lr6pGijw1aAGD-XwsXpY-5" style="edgeStyle=orthogonalEdgeStyle;rounded=0;orthogonalLoop=1;jettySize=auto;html=1;entryX=0;entryY=0.5;entryDx=0;entryDy=0;" parent="1" source="UPY7fHwO0GwYCJHNfawm-4" target="UPY7fHwO0GwYCJHNfawm-7" edge="1">
          <mxGeometry relative="1" as="geometry" />
        </mxCell>
        <mxCell id="UPY7fHwO0GwYCJHNfawm-4" value="&lt;font style=&quot;font-size: 14px;&quot;&gt;精神控制&lt;/font&gt;" style="rounded=1;whiteSpace=wrap;html=1;fillColor=#ECF073;gradientColor=default;gradientDirection=west;" parent="1" vertex="1">
          <mxGeometry x="120" y="160" width="120" height="40" as="geometry" />
        </mxCell>
        <mxCell id="Lr6pGijw1aAGD-XwsXpY-3" style="edgeStyle=orthogonalEdgeStyle;rounded=0;orthogonalLoop=1;jettySize=auto;html=1;entryX=0;entryY=0.5;entryDx=0;entryDy=0;startArrow=classic;startFill=1;" parent="1" source="UPY7fHwO0GwYCJHNfawm-5" target="UPY7fHwO0GwYCJHNfawm-7" edge="1">
          <mxGeometry relative="1" as="geometry" />
        </mxCell>
        <mxCell id="Lr6pGijw1aAGD-XwsXpY-7" style="edgeStyle=orthogonalEdgeStyle;rounded=0;orthogonalLoop=1;jettySize=auto;html=1;exitX=0;exitY=0.5;exitDx=0;exitDy=0;entryX=0;entryY=0.5;entryDx=0;entryDy=0;" parent="1" source="UPY7fHwO0GwYCJHNfawm-5" target="UPY7fHwO0GwYCJHNfawm-4" edge="1">
          <mxGeometry relative="1" as="geometry" />
        </mxCell>
        <mxCell id="UPY7fHwO0GwYCJHNfawm-5" value="&lt;font style=&quot;font-size: 14px;&quot;&gt;帮助者&lt;/font&gt;" style="rounded=1;whiteSpace=wrap;html=1;fillColor=#FC5012;strokeColor=#6c8ebf;gradientColor=#3B3B3B;gradientDirection=west;" parent="1" vertex="1">
          <mxGeometry x="120" y="280" width="120" height="40" as="geometry" />
        </mxCell>
        <mxCell id="UPY7fHwO0GwYCJHNfawm-6" value="&lt;div style=&quot;text-align: justify;&quot;&gt;&lt;span style=&quot;background-color: initial;&quot;&gt;&lt;font style=&quot;font-size: 18px;&quot;&gt;能&amp;nbsp; 量&amp;nbsp; 守&amp;nbsp; 恒&lt;/font&gt;&lt;/span&gt;&lt;/div&gt;" style="rounded=1;whiteSpace=wrap;html=1;fillColor=#cdeb8b;strokeColor=#36393d;" parent="1" vertex="1">
          <mxGeometry x="200" y="40" width="360" height="40" as="geometry" />
        </mxCell>
        <mxCell id="UPY7fHwO0GwYCJHNfawm-7" value="&lt;font style=&quot;font-size: 14px;&quot;&gt;利益驱使&lt;/font&gt;" style="rounded=1;whiteSpace=wrap;html=1;fillColor=#1ba1e2;fontColor=#ffffff;strokeColor=#006EAF;" parent="1" vertex="1">
          <mxGeometry x="320" y="220" width="120" height="40" as="geometry" />
        </mxCell>
        <mxCell id="UPY7fHwO0GwYCJHNfawm-8" value="&lt;font style=&quot;font-size: 14px;&quot;&gt;科学的尽头是哲学，哲学的尽头是什么？&lt;/font&gt;" style="rounded=1;whiteSpace=wrap;html=1;fillColor=#eeeeee;strokeColor=#36393d;" parent="1" vertex="1">
          <mxGeometry x="120" y="400" width="520" height="40" as="geometry" />
        </mxCell>
        <mxCell id="56hUY3rq-z1i1fkAoYBw-1" value="" style="rounded=0;whiteSpace=wrap;html=1;strokeColor=#000000;strokeWidth=3;fontSize=15;fillColor=none;dashed=1;" parent="1" vertex="1">
          <mxGeometry x="40" y="520" width="680" height="400" as="geometry" />
        </mxCell>
        <mxCell id="56hUY3rq-z1i1fkAoYBw-41" style="edgeStyle=orthogonalEdgeStyle;rounded=0;orthogonalLoop=1;jettySize=auto;html=1;entryX=0;entryY=0.5;entryDx=0;entryDy=0;" parent="1" source="56hUY3rq-z1i1fkAoYBw-2" target="56hUY3rq-z1i1fkAoYBw-15" edge="1">
          <mxGeometry relative="1" as="geometry" />
        </mxCell>
        <mxCell id="56hUY3rq-z1i1fkAoYBw-42" style="edgeStyle=orthogonalEdgeStyle;rounded=0;orthogonalLoop=1;jettySize=auto;html=1;entryX=0.265;entryY=0.75;entryDx=0;entryDy=0;entryPerimeter=0;exitX=0.5;exitY=1;exitDx=0;exitDy=0;" parent="1" source="56hUY3rq-z1i1fkAoYBw-2" target="56hUY3rq-z1i1fkAoYBw-1" edge="1">
          <mxGeometry relative="1" as="geometry">
            <Array as="points">
              <mxPoint x="180" y="820" />
            </Array>
          </mxGeometry>
        </mxCell>
        <mxCell id="56hUY3rq-z1i1fkAoYBw-2" value="人类" style="rounded=1;whiteSpace=wrap;html=1;fontSize=16;" parent="1" vertex="1">
          <mxGeometry x="120" y="690" width="120" height="60" as="geometry" />
        </mxCell>
        <mxCell id="XQaIlPIqCHsjYck2UsgX-1" style="edgeStyle=orthogonalEdgeStyle;rounded=0;orthogonalLoop=1;jettySize=auto;html=1;exitX=0.5;exitY=0;exitDx=0;exitDy=0;entryX=0.5;entryY=0;entryDx=0;entryDy=0;" parent="1" source="56hUY3rq-z1i1fkAoYBw-3" target="56hUY3rq-z1i1fkAoYBw-15" edge="1">
          <mxGeometry relative="1" as="geometry" />
        </mxCell>
        <mxCell id="56hUY3rq-z1i1fkAoYBw-3" value="繁殖" style="rounded=1;whiteSpace=wrap;html=1;fontSize=16;" parent="1" vertex="1">
          <mxGeometry x="520" y="690" width="120" height="60" as="geometry" />
        </mxCell>
        <mxCell id="56hUY3rq-z1i1fkAoYBw-6" value="" style="endArrow=none;html=1;rounded=1;entryX=0;entryY=0.25;entryDx=0;entryDy=0;exitX=1;exitY=0.5;exitDx=0;exitDy=0;startArrow=openAsync;startFill=0;endFill=0;strokeWidth=2;jumpStyle=none;shape=link;" parent="1" source="56hUY3rq-z1i1fkAoYBw-18" edge="1">
          <mxGeometry width="50" height="50" relative="1" as="geometry">
            <mxPoint x="240" y="721" as="sourcePoint" />
            <mxPoint x="520" y="721" as="targetPoint" />
          </mxGeometry>
        </mxCell>
        <mxCell id="56hUY3rq-z1i1fkAoYBw-25" style="edgeStyle=orthogonalEdgeStyle;rounded=0;orthogonalLoop=1;jettySize=auto;html=1;entryX=0.5;entryY=0;entryDx=0;entryDy=0;exitX=0.5;exitY=1;exitDx=0;exitDy=0;" parent="1" source="56hUY3rq-z1i1fkAoYBw-15" target="56hUY3rq-z1i1fkAoYBw-18" edge="1">
          <mxGeometry relative="1" as="geometry" />
        </mxCell>
        <mxCell id="56hUY3rq-z1i1fkAoYBw-39" value="" style="edgeStyle=orthogonalEdgeStyle;rounded=0;orthogonalLoop=1;jettySize=auto;html=1;" parent="1" source="56hUY3rq-z1i1fkAoYBw-15" target="56hUY3rq-z1i1fkAoYBw-16" edge="1">
          <mxGeometry relative="1" as="geometry" />
        </mxCell>
        <mxCell id="56hUY3rq-z1i1fkAoYBw-15" value="学习" style="rounded=0;whiteSpace=wrap;html=1;fontSize=16;" parent="1" vertex="1">
          <mxGeometry x="220" y="600" width="80" height="40" as="geometry" />
        </mxCell>
        <mxCell id="56hUY3rq-z1i1fkAoYBw-37" value="" style="edgeStyle=orthogonalEdgeStyle;rounded=0;orthogonalLoop=1;jettySize=auto;html=1;" parent="1" source="56hUY3rq-z1i1fkAoYBw-16" target="56hUY3rq-z1i1fkAoYBw-34" edge="1">
          <mxGeometry relative="1" as="geometry" />
        </mxCell>
        <mxCell id="56hUY3rq-z1i1fkAoYBw-40" value="" style="edgeStyle=orthogonalEdgeStyle;rounded=0;orthogonalLoop=1;jettySize=auto;html=1;" parent="1" source="56hUY3rq-z1i1fkAoYBw-16" target="56hUY3rq-z1i1fkAoYBw-17" edge="1">
          <mxGeometry relative="1" as="geometry" />
        </mxCell>
        <mxCell id="56hUY3rq-z1i1fkAoYBw-16" value="优化" style="rounded=0;whiteSpace=wrap;html=1;fontSize=16;" parent="1" vertex="1">
          <mxGeometry x="340" y="600" width="80" height="40" as="geometry" />
        </mxCell>
        <mxCell id="56hUY3rq-z1i1fkAoYBw-27" style="edgeStyle=orthogonalEdgeStyle;rounded=0;orthogonalLoop=1;jettySize=auto;html=1;entryX=0.5;entryY=0;entryDx=0;entryDy=0;exitX=0.5;exitY=1;exitDx=0;exitDy=0;" parent="1" source="56hUY3rq-z1i1fkAoYBw-17" target="56hUY3rq-z1i1fkAoYBw-18" edge="1">
          <mxGeometry relative="1" as="geometry" />
        </mxCell>
        <mxCell id="56hUY3rq-z1i1fkAoYBw-17" value="输出" style="rounded=0;whiteSpace=wrap;html=1;fontSize=16;" parent="1" vertex="1">
          <mxGeometry x="460" y="600" width="80" height="40" as="geometry" />
        </mxCell>
        <mxCell id="56hUY3rq-z1i1fkAoYBw-28" style="edgeStyle=orthogonalEdgeStyle;rounded=0;orthogonalLoop=1;jettySize=auto;html=1;entryX=0.5;entryY=1;entryDx=0;entryDy=0;" parent="1" source="56hUY3rq-z1i1fkAoYBw-20" target="56hUY3rq-z1i1fkAoYBw-18" edge="1">
          <mxGeometry relative="1" as="geometry" />
        </mxCell>
        <mxCell id="56hUY3rq-z1i1fkAoYBw-20" value="疾病" style="rounded=0;whiteSpace=wrap;html=1;fontSize=16;" parent="1" vertex="1">
          <mxGeometry x="340" y="800" width="80" height="40" as="geometry" />
        </mxCell>
        <mxCell id="56hUY3rq-z1i1fkAoYBw-29" style="edgeStyle=orthogonalEdgeStyle;rounded=0;orthogonalLoop=1;jettySize=auto;html=1;exitX=0.5;exitY=0;exitDx=0;exitDy=0;entryX=0.5;entryY=1;entryDx=0;entryDy=0;" parent="1" source="56hUY3rq-z1i1fkAoYBw-21" target="56hUY3rq-z1i1fkAoYBw-18" edge="1">
          <mxGeometry relative="1" as="geometry" />
        </mxCell>
        <mxCell id="56hUY3rq-z1i1fkAoYBw-21" value="灾难" style="rounded=0;whiteSpace=wrap;html=1;fontSize=16;" parent="1" vertex="1">
          <mxGeometry x="220" y="800" width="80" height="40" as="geometry" />
        </mxCell>
        <mxCell id="56hUY3rq-z1i1fkAoYBw-30" style="edgeStyle=orthogonalEdgeStyle;rounded=0;orthogonalLoop=1;jettySize=auto;html=1;entryX=0.5;entryY=1;entryDx=0;entryDy=0;exitX=0.5;exitY=0;exitDx=0;exitDy=0;" parent="1" source="56hUY3rq-z1i1fkAoYBw-22" target="56hUY3rq-z1i1fkAoYBw-18" edge="1">
          <mxGeometry relative="1" as="geometry" />
        </mxCell>
        <mxCell id="56hUY3rq-z1i1fkAoYBw-22" value="金钱" style="rounded=0;whiteSpace=wrap;html=1;fontSize=16;" parent="1" vertex="1">
          <mxGeometry x="460" y="800" width="80" height="40" as="geometry" />
        </mxCell>
        <mxCell id="56hUY3rq-z1i1fkAoYBw-24" value="" style="endArrow=none;html=1;rounded=1;entryX=0;entryY=0.5;entryDx=0;entryDy=0;exitX=1;exitY=0.25;exitDx=0;exitDy=0;startArrow=openAsync;startFill=0;endFill=0;strokeWidth=2;jumpStyle=none;shape=link;" parent="1" target="56hUY3rq-z1i1fkAoYBw-18" edge="1">
          <mxGeometry width="50" height="50" relative="1" as="geometry">
            <mxPoint x="240" y="721" as="sourcePoint" />
            <mxPoint x="520" y="721" as="targetPoint" />
          </mxGeometry>
        </mxCell>
        <mxCell id="56hUY3rq-z1i1fkAoYBw-18" value="爱情" style="rounded=0;whiteSpace=wrap;html=1;fontSize=16;" parent="1" vertex="1">
          <mxGeometry x="340" y="691" width="80" height="60" as="geometry" />
        </mxCell>
        <mxCell id="56hUY3rq-z1i1fkAoYBw-34" value="抑&amp;nbsp; 制" style="text;html=1;strokeColor=none;fillColor=none;align=center;verticalAlign=middle;whiteSpace=wrap;rounded=0;" parent="1" vertex="1">
          <mxGeometry x="350" y="753" width="60" height="30" as="geometry" />
        </mxCell>
        <mxCell id="56hUY3rq-z1i1fkAoYBw-33" value="促&amp;nbsp; 进" style="text;html=1;strokeColor=none;fillColor=none;align=center;verticalAlign=middle;whiteSpace=wrap;rounded=0;" parent="1" vertex="1">
          <mxGeometry x="350" y="661" width="60" height="30" as="geometry" />
        </mxCell>
        <mxCell id="dOCUE5VOTNGdwwZbVnWe-1" value="" style="rounded=0;whiteSpace=wrap;html=1;strokeColor=#000000;strokeWidth=3;fontSize=15;fillColor=none;dashed=1;" parent="1" vertex="1">
          <mxGeometry x="40" y="960" width="680" height="200" as="geometry" />
        </mxCell>
        <mxCell id="dOCUE5VOTNGdwwZbVnWe-2" value="你" style="ellipse;whiteSpace=wrap;html=1;aspect=fixed;fontSize=16;strokeWidth=2;fontStyle=1" parent="1" vertex="1">
          <mxGeometry x="80" y="1020" width="80" height="80" as="geometry" />
        </mxCell>
        <mxCell id="dOCUE5VOTNGdwwZbVnWe-3" value="我" style="ellipse;whiteSpace=wrap;html=1;aspect=fixed;fontSize=16;strokeWidth=2;fontStyle=1" parent="1" vertex="1">
          <mxGeometry x="340" y="1020" width="80" height="80" as="geometry" />
        </mxCell>
        <mxCell id="dOCUE5VOTNGdwwZbVnWe-4" value="她" style="ellipse;whiteSpace=wrap;html=1;aspect=fixed;fontSize=16;strokeWidth=2;fontStyle=1" parent="1" vertex="1">
          <mxGeometry x="600" y="1020" width="80" height="80" as="geometry" />
        </mxCell>
        <mxCell id="dOCUE5VOTNGdwwZbVnWe-6" value="" style="endArrow=classic;startArrow=classic;html=1;fontColor=#FF3333;rounded=0;entryX=0;entryY=0.5;entryDx=0;entryDy=0;exitX=1;exitY=0.5;exitDx=0;exitDy=0;strokeWidth=2;" parent="1" source="dOCUE5VOTNGdwwZbVnWe-3" target="dOCUE5VOTNGdwwZbVnWe-4" edge="1">
          <mxGeometry width="50" height="50" relative="1" as="geometry">
            <mxPoint x="470" y="1070" as="sourcePoint" />
            <mxPoint x="520" y="1020" as="targetPoint" />
          </mxGeometry>
        </mxCell>
        <mxCell id="dOCUE5VOTNGdwwZbVnWe-7" value="" style="endArrow=classic;startArrow=classic;html=1;fontColor=#FF3333;rounded=0;entryX=0;entryY=0.5;entryDx=0;entryDy=0;exitX=1;exitY=0.5;exitDx=0;exitDy=0;strokeWidth=2;" parent="1" edge="1">
          <mxGeometry width="50" height="50" relative="1" as="geometry">
            <mxPoint x="160" y="1059.5" as="sourcePoint" />
            <mxPoint x="340" y="1059.5" as="targetPoint" />
          </mxGeometry>
        </mxCell>
      </root>
    </mxGraphModel>
  </diagram>
  <diagram id="PS1mqXviffIfBXn_b39c" name="profile-niece">
    <mxGraphModel dx="765" dy="533" grid="1" gridSize="10" guides="1" tooltips="1" connect="1" arrows="1" fold="1" page="1" pageScale="1" pageWidth="1169" pageHeight="827" math="0" shadow="0">
      <root>
        <mxCell id="0" />
        <mxCell id="1" parent="0" />
        <mxCell id="u0y-YBwfnYlXiZcnyPXw-35" value="" style="edgeStyle=orthogonalEdgeStyle;rounded=0;orthogonalLoop=1;jettySize=auto;html=1;" parent="1" source="u0y-YBwfnYlXiZcnyPXw-1" target="u0y-YBwfnYlXiZcnyPXw-33" edge="1">
          <mxGeometry relative="1" as="geometry" />
        </mxCell>
        <mxCell id="u0y-YBwfnYlXiZcnyPXw-1" value="张旭彤&lt;br&gt;2010" style="ellipse;whiteSpace=wrap;html=1;" parent="1" vertex="1">
          <mxGeometry x="40" y="58" width="120" height="80" as="geometry" />
        </mxCell>
        <mxCell id="u0y-YBwfnYlXiZcnyPXw-5" value="" style="edgeStyle=orthogonalEdgeStyle;rounded=0;orthogonalLoop=1;jettySize=auto;html=1;" parent="1" source="u0y-YBwfnYlXiZcnyPXw-2" target="u0y-YBwfnYlXiZcnyPXw-4" edge="1">
          <mxGeometry relative="1" as="geometry" />
        </mxCell>
        <mxCell id="u0y-YBwfnYlXiZcnyPXw-2" value="构思小说&lt;br style=&quot;border-color: var(--border-color);&quot;&gt;2022.12" style="rounded=0;whiteSpace=wrap;html=1;" parent="1" vertex="1">
          <mxGeometry x="960" y="160" width="80" height="40" as="geometry" />
        </mxCell>
        <mxCell id="u0y-YBwfnYlXiZcnyPXw-7" value="" style="edgeStyle=orthogonalEdgeStyle;rounded=0;orthogonalLoop=1;jettySize=auto;html=1;" parent="1" source="u0y-YBwfnYlXiZcnyPXw-4" target="u0y-YBwfnYlXiZcnyPXw-6" edge="1">
          <mxGeometry relative="1" as="geometry" />
        </mxCell>
        <mxCell id="u0y-YBwfnYlXiZcnyPXw-4" value="广播站&lt;br style=&quot;border-color: var(--border-color);&quot;&gt;2023.02" style="rounded=0;whiteSpace=wrap;html=1;" parent="1" vertex="1">
          <mxGeometry x="840" y="160" width="80" height="40" as="geometry" />
        </mxCell>
        <mxCell id="u0y-YBwfnYlXiZcnyPXw-9" value="" style="edgeStyle=orthogonalEdgeStyle;rounded=0;orthogonalLoop=1;jettySize=auto;html=1;" parent="1" source="u0y-YBwfnYlXiZcnyPXw-6" target="u0y-YBwfnYlXiZcnyPXw-8" edge="1">
          <mxGeometry relative="1" as="geometry" />
        </mxCell>
        <mxCell id="u0y-YBwfnYlXiZcnyPXw-6" value="牙套&lt;br style=&quot;border-color: var(--border-color);&quot;&gt;2023.03" style="rounded=0;whiteSpace=wrap;html=1;" parent="1" vertex="1">
          <mxGeometry x="720" y="160" width="80" height="40" as="geometry" />
        </mxCell>
        <mxCell id="u0y-YBwfnYlXiZcnyPXw-22" value="" style="edgeStyle=orthogonalEdgeStyle;rounded=0;orthogonalLoop=1;jettySize=auto;html=1;" parent="1" source="u0y-YBwfnYlXiZcnyPXw-8" target="u0y-YBwfnYlXiZcnyPXw-21" edge="1">
          <mxGeometry relative="1" as="geometry" />
        </mxCell>
        <mxCell id="u0y-YBwfnYlXiZcnyPXw-8" value="&lt;span style=&quot;color: rgb(0, 0, 0); font-family: Helvetica; font-size: 12px; font-style: normal; font-variant-ligatures: normal; font-variant-caps: normal; font-weight: 400; letter-spacing: normal; orphans: 2; text-align: center; text-indent: 0px; text-transform: none; widows: 2; word-spacing: 0px; -webkit-text-stroke-width: 0px; background-color: rgb(251, 251, 251); text-decoration-thickness: initial; text-decoration-style: initial; text-decoration-color: initial; float: none; display: inline !important;&quot;&gt;厌学&lt;/span&gt;&lt;br style=&quot;border-color: var(--border-color); color: rgb(0, 0, 0); font-family: Helvetica; font-size: 12px; font-style: normal; font-variant-ligatures: normal; font-variant-caps: normal; font-weight: 400; letter-spacing: normal; orphans: 2; text-align: center; text-indent: 0px; text-transform: none; widows: 2; word-spacing: 0px; -webkit-text-stroke-width: 0px; background-color: rgb(251, 251, 251); text-decoration-thickness: initial; text-decoration-style: initial; text-decoration-color: initial;&quot;&gt;&lt;span style=&quot;color: rgb(0, 0, 0); font-family: Helvetica; font-size: 12px; font-style: normal; font-variant-ligatures: normal; font-variant-caps: normal; font-weight: 400; letter-spacing: normal; orphans: 2; text-align: center; text-indent: 0px; text-transform: none; widows: 2; word-spacing: 0px; -webkit-text-stroke-width: 0px; background-color: rgb(251, 251, 251); text-decoration-thickness: initial; text-decoration-style: initial; text-decoration-color: initial; float: none; display: inline !important;&quot;&gt;2023.03&lt;/span&gt;" style="rounded=0;whiteSpace=wrap;html=1;" parent="1" vertex="1">
          <mxGeometry x="600" y="160" width="80" height="40" as="geometry" />
        </mxCell>
        <mxCell id="u0y-YBwfnYlXiZcnyPXw-17" value="" style="edgeStyle=orthogonalEdgeStyle;rounded=0;orthogonalLoop=1;jettySize=auto;html=1;" parent="1" source="u0y-YBwfnYlXiZcnyPXw-15" target="u0y-YBwfnYlXiZcnyPXw-16" edge="1">
          <mxGeometry relative="1" as="geometry" />
        </mxCell>
        <mxCell id="u0y-YBwfnYlXiZcnyPXw-15" value="搬家&lt;br&gt;2019" style="rounded=0;whiteSpace=wrap;html=1;" parent="1" vertex="1">
          <mxGeometry x="600" y="78" width="80" height="40" as="geometry" />
        </mxCell>
        <mxCell id="u0y-YBwfnYlXiZcnyPXw-25" value="" style="edgeStyle=orthogonalEdgeStyle;rounded=0;orthogonalLoop=1;jettySize=auto;html=1;" parent="1" source="u0y-YBwfnYlXiZcnyPXw-16" target="u0y-YBwfnYlXiZcnyPXw-19" edge="1">
          <mxGeometry relative="1" as="geometry" />
        </mxCell>
        <mxCell id="u0y-YBwfnYlXiZcnyPXw-16" value="四-六年级&lt;br&gt;2019-2022" style="rounded=0;whiteSpace=wrap;html=1;" parent="1" vertex="1">
          <mxGeometry x="720" y="78" width="80" height="40" as="geometry" />
        </mxCell>
        <mxCell id="u0y-YBwfnYlXiZcnyPXw-24" value="" style="edgeStyle=orthogonalEdgeStyle;rounded=0;orthogonalLoop=1;jettySize=auto;html=1;" parent="1" source="u0y-YBwfnYlXiZcnyPXw-19" target="u0y-YBwfnYlXiZcnyPXw-20" edge="1">
          <mxGeometry relative="1" as="geometry" />
        </mxCell>
        <mxCell id="u0y-YBwfnYlXiZcnyPXw-19" value="初一班委&lt;br style=&quot;border-color: var(--border-color);&quot;&gt;2022.11" style="rounded=0;whiteSpace=wrap;html=1;" parent="1" vertex="1">
          <mxGeometry x="840" y="78" width="80" height="40" as="geometry" />
        </mxCell>
        <mxCell id="u0y-YBwfnYlXiZcnyPXw-23" value="" style="edgeStyle=orthogonalEdgeStyle;rounded=0;orthogonalLoop=1;jettySize=auto;html=1;" parent="1" source="u0y-YBwfnYlXiZcnyPXw-20" target="u0y-YBwfnYlXiZcnyPXw-2" edge="1">
          <mxGeometry relative="1" as="geometry" />
        </mxCell>
        <mxCell id="u0y-YBwfnYlXiZcnyPXw-20" value="鸡血&lt;br style=&quot;border-color: var(--border-color);&quot;&gt;2022.11" style="rounded=0;whiteSpace=wrap;html=1;" parent="1" vertex="1">
          <mxGeometry x="960" y="78" width="80" height="40" as="geometry" />
        </mxCell>
        <mxCell id="u0y-YBwfnYlXiZcnyPXw-28" value="" style="edgeStyle=orthogonalEdgeStyle;rounded=0;orthogonalLoop=1;jettySize=auto;html=1;" parent="1" source="u0y-YBwfnYlXiZcnyPXw-21" target="u0y-YBwfnYlXiZcnyPXw-27" edge="1">
          <mxGeometry relative="1" as="geometry" />
        </mxCell>
        <mxCell id="u0y-YBwfnYlXiZcnyPXw-21" value="羽毛球、八卦&lt;br style=&quot;border-color: var(--border-color);&quot;&gt;2023.03" style="rounded=0;whiteSpace=wrap;html=1;" parent="1" vertex="1">
          <mxGeometry x="480" y="160" width="80" height="40" as="geometry" />
        </mxCell>
        <mxCell id="2eSGGgYftwC2F6efk227-2" value="" style="edgeStyle=orthogonalEdgeStyle;rounded=0;orthogonalLoop=1;jettySize=auto;html=1;" parent="1" source="u0y-YBwfnYlXiZcnyPXw-27" target="2eSGGgYftwC2F6efk227-1" edge="1">
          <mxGeometry relative="1" as="geometry" />
        </mxCell>
        <mxCell id="u0y-YBwfnYlXiZcnyPXw-27" value="短发&lt;br&gt;2023.05" style="rounded=0;whiteSpace=wrap;html=1;" parent="1" vertex="1">
          <mxGeometry x="360" y="160" width="80" height="40" as="geometry" />
        </mxCell>
        <mxCell id="u0y-YBwfnYlXiZcnyPXw-30" value="" style="edgeStyle=orthogonalEdgeStyle;rounded=0;orthogonalLoop=1;jettySize=auto;html=1;" parent="1" source="u0y-YBwfnYlXiZcnyPXw-29" target="u0y-YBwfnYlXiZcnyPXw-15" edge="1">
          <mxGeometry relative="1" as="geometry" />
        </mxCell>
        <mxCell id="u0y-YBwfnYlXiZcnyPXw-29" value="口才&lt;br&gt;2017-2021" style="rounded=0;whiteSpace=wrap;html=1;" parent="1" vertex="1">
          <mxGeometry x="480" y="78" width="80" height="40" as="geometry" />
        </mxCell>
        <mxCell id="u0y-YBwfnYlXiZcnyPXw-32" value="" style="edgeStyle=orthogonalEdgeStyle;rounded=0;orthogonalLoop=1;jettySize=auto;html=1;" parent="1" source="u0y-YBwfnYlXiZcnyPXw-31" target="u0y-YBwfnYlXiZcnyPXw-29" edge="1">
          <mxGeometry relative="1" as="geometry" />
        </mxCell>
        <mxCell id="u0y-YBwfnYlXiZcnyPXw-31" value="小学&lt;br&gt;2016" style="rounded=0;whiteSpace=wrap;html=1;" parent="1" vertex="1">
          <mxGeometry x="360" y="78" width="80" height="40" as="geometry" />
        </mxCell>
        <mxCell id="u0y-YBwfnYlXiZcnyPXw-34" value="" style="edgeStyle=orthogonalEdgeStyle;rounded=0;orthogonalLoop=1;jettySize=auto;html=1;" parent="1" source="u0y-YBwfnYlXiZcnyPXw-33" target="u0y-YBwfnYlXiZcnyPXw-31" edge="1">
          <mxGeometry relative="1" as="geometry" />
        </mxCell>
        <mxCell id="u0y-YBwfnYlXiZcnyPXw-33" value="幼儿园&lt;br&gt;2013" style="rounded=0;whiteSpace=wrap;html=1;" parent="1" vertex="1">
          <mxGeometry x="240" y="78" width="80" height="40" as="geometry" />
        </mxCell>
        <mxCell id="sDltmBfJr-5fXImPttAX-2" value="" style="edgeStyle=orthogonalEdgeStyle;rounded=0;orthogonalLoop=1;jettySize=auto;html=1;" parent="1" source="2eSGGgYftwC2F6efk227-1" target="sDltmBfJr-5fXImPttAX-1" edge="1">
          <mxGeometry relative="1" as="geometry" />
        </mxCell>
        <mxCell id="2eSGGgYftwC2F6efk227-1" value="开始补课&lt;br&gt;2020" style="rounded=0;whiteSpace=wrap;html=1;" parent="1" vertex="1">
          <mxGeometry x="240" y="160" width="80" height="40" as="geometry" />
        </mxCell>
        <mxCell id="2eSGGgYftwC2F6efk227-3" value="" style="edgeStyle=orthogonalEdgeStyle;rounded=0;orthogonalLoop=1;jettySize=auto;html=1;" parent="1" source="2eSGGgYftwC2F6efk227-4" target="2eSGGgYftwC2F6efk227-30" edge="1">
          <mxGeometry relative="1" as="geometry" />
        </mxCell>
        <mxCell id="2eSGGgYftwC2F6efk227-4" value="张旭晨&lt;br&gt;2014" style="ellipse;whiteSpace=wrap;html=1;" parent="1" vertex="1">
          <mxGeometry x="41" y="483" width="120" height="80" as="geometry" />
        </mxCell>
        <mxCell id="2eSGGgYftwC2F6efk227-5" value="" style="edgeStyle=orthogonalEdgeStyle;rounded=0;orthogonalLoop=1;jettySize=auto;html=1;" parent="1" source="2eSGGgYftwC2F6efk227-6" target="2eSGGgYftwC2F6efk227-8" edge="1">
          <mxGeometry relative="1" as="geometry" />
        </mxCell>
        <mxCell id="2eSGGgYftwC2F6efk227-6" value="羽毛球训练&lt;br style=&quot;border-color: var(--border-color);&quot;&gt;2023.07" style="rounded=0;whiteSpace=wrap;html=1;" parent="1" vertex="1">
          <mxGeometry x="961" y="585" width="80" height="40" as="geometry" />
        </mxCell>
        <mxCell id="2eSGGgYftwC2F6efk227-7" value="" style="edgeStyle=orthogonalEdgeStyle;rounded=0;orthogonalLoop=1;jettySize=auto;html=1;" parent="1" source="2eSGGgYftwC2F6efk227-8" target="2eSGGgYftwC2F6efk227-10" edge="1">
          <mxGeometry relative="1" as="geometry" />
        </mxCell>
        <mxCell id="2eSGGgYftwC2F6efk227-8" value="房屋设计&lt;br&gt;2023.09" style="rounded=0;whiteSpace=wrap;html=1;" parent="1" vertex="1">
          <mxGeometry x="841" y="585" width="80" height="40" as="geometry" />
        </mxCell>
        <mxCell id="2eSGGgYftwC2F6efk227-9" value="" style="edgeStyle=orthogonalEdgeStyle;rounded=0;orthogonalLoop=1;jettySize=auto;html=1;" parent="1" source="2eSGGgYftwC2F6efk227-10" target="2eSGGgYftwC2F6efk227-12" edge="1">
          <mxGeometry relative="1" as="geometry" />
        </mxCell>
        <mxCell id="2eSGGgYftwC2F6efk227-10" value="" style="rounded=0;whiteSpace=wrap;html=1;" parent="1" vertex="1">
          <mxGeometry x="721" y="585" width="80" height="40" as="geometry" />
        </mxCell>
        <mxCell id="2eSGGgYftwC2F6efk227-11" value="" style="edgeStyle=orthogonalEdgeStyle;rounded=0;orthogonalLoop=1;jettySize=auto;html=1;" parent="1" source="2eSGGgYftwC2F6efk227-12" target="2eSGGgYftwC2F6efk227-22" edge="1">
          <mxGeometry relative="1" as="geometry" />
        </mxCell>
        <mxCell id="2eSGGgYftwC2F6efk227-12" value="" style="rounded=0;whiteSpace=wrap;html=1;" parent="1" vertex="1">
          <mxGeometry x="601" y="585" width="80" height="40" as="geometry" />
        </mxCell>
        <mxCell id="2eSGGgYftwC2F6efk227-13" value="" style="edgeStyle=orthogonalEdgeStyle;rounded=0;orthogonalLoop=1;jettySize=auto;html=1;" parent="1" source="2eSGGgYftwC2F6efk227-14" target="2eSGGgYftwC2F6efk227-16" edge="1">
          <mxGeometry relative="1" as="geometry" />
        </mxCell>
        <mxCell id="2eSGGgYftwC2F6efk227-14" value="一-二年级&lt;br&gt;2021-2023" style="rounded=0;whiteSpace=wrap;html=1;" parent="1" vertex="1">
          <mxGeometry x="601" y="503" width="80" height="40" as="geometry" />
        </mxCell>
        <mxCell id="2eSGGgYftwC2F6efk227-15" value="" style="edgeStyle=orthogonalEdgeStyle;rounded=0;orthogonalLoop=1;jettySize=auto;html=1;" parent="1" source="2eSGGgYftwC2F6efk227-16" target="2eSGGgYftwC2F6efk227-18" edge="1">
          <mxGeometry relative="1" as="geometry" />
        </mxCell>
        <mxCell id="2eSGGgYftwC2F6efk227-16" value="平板，手机&lt;br style=&quot;border-color: var(--border-color);&quot;&gt;2023" style="rounded=0;whiteSpace=wrap;html=1;" parent="1" vertex="1">
          <mxGeometry x="721" y="503" width="80" height="40" as="geometry" />
        </mxCell>
        <mxCell id="2eSGGgYftwC2F6efk227-17" value="" style="edgeStyle=orthogonalEdgeStyle;rounded=0;orthogonalLoop=1;jettySize=auto;html=1;" parent="1" source="2eSGGgYftwC2F6efk227-18" target="2eSGGgYftwC2F6efk227-20" edge="1">
          <mxGeometry relative="1" as="geometry" />
        </mxCell>
        <mxCell id="2eSGGgYftwC2F6efk227-18" value="羽毛球&lt;br style=&quot;border-color: var(--border-color);&quot;&gt;2023.03" style="rounded=0;whiteSpace=wrap;html=1;" parent="1" vertex="1">
          <mxGeometry x="841" y="503" width="80" height="40" as="geometry" />
        </mxCell>
        <mxCell id="2eSGGgYftwC2F6efk227-19" value="" style="edgeStyle=orthogonalEdgeStyle;rounded=0;orthogonalLoop=1;jettySize=auto;html=1;" parent="1" source="2eSGGgYftwC2F6efk227-20" target="2eSGGgYftwC2F6efk227-6" edge="1">
          <mxGeometry relative="1" as="geometry" />
        </mxCell>
        <mxCell id="2eSGGgYftwC2F6efk227-20" value="乐高/芭比娃娃&lt;br&gt;2023.05" style="rounded=0;whiteSpace=wrap;html=1;" parent="1" vertex="1">
          <mxGeometry x="961" y="503" width="80" height="40" as="geometry" />
        </mxCell>
        <mxCell id="2eSGGgYftwC2F6efk227-21" value="" style="edgeStyle=orthogonalEdgeStyle;rounded=0;orthogonalLoop=1;jettySize=auto;html=1;" parent="1" source="2eSGGgYftwC2F6efk227-22" target="2eSGGgYftwC2F6efk227-24" edge="1">
          <mxGeometry relative="1" as="geometry" />
        </mxCell>
        <mxCell id="2eSGGgYftwC2F6efk227-22" value="" style="rounded=0;whiteSpace=wrap;html=1;" parent="1" vertex="1">
          <mxGeometry x="481" y="585" width="80" height="40" as="geometry" />
        </mxCell>
        <mxCell id="2eSGGgYftwC2F6efk227-23" value="" style="edgeStyle=orthogonalEdgeStyle;rounded=0;orthogonalLoop=1;jettySize=auto;html=1;" parent="1" source="2eSGGgYftwC2F6efk227-24" target="2eSGGgYftwC2F6efk227-31" edge="1">
          <mxGeometry relative="1" as="geometry" />
        </mxCell>
        <mxCell id="2eSGGgYftwC2F6efk227-24" value="" style="rounded=0;whiteSpace=wrap;html=1;" parent="1" vertex="1">
          <mxGeometry x="361" y="585" width="80" height="40" as="geometry" />
        </mxCell>
        <mxCell id="2eSGGgYftwC2F6efk227-25" value="" style="edgeStyle=orthogonalEdgeStyle;rounded=0;orthogonalLoop=1;jettySize=auto;html=1;" parent="1" source="2eSGGgYftwC2F6efk227-26" target="2eSGGgYftwC2F6efk227-14" edge="1">
          <mxGeometry relative="1" as="geometry" />
        </mxCell>
        <mxCell id="2eSGGgYftwC2F6efk227-26" value="画画&lt;br&gt;2020-2026" style="rounded=0;whiteSpace=wrap;html=1;" parent="1" vertex="1">
          <mxGeometry x="481" y="503" width="80" height="40" as="geometry" />
        </mxCell>
        <mxCell id="2eSGGgYftwC2F6efk227-27" value="" style="edgeStyle=orthogonalEdgeStyle;rounded=0;orthogonalLoop=1;jettySize=auto;html=1;" parent="1" source="2eSGGgYftwC2F6efk227-28" target="2eSGGgYftwC2F6efk227-26" edge="1">
          <mxGeometry relative="1" as="geometry" />
        </mxCell>
        <mxCell id="2eSGGgYftwC2F6efk227-28" value="小学&lt;br&gt;2021" style="rounded=0;whiteSpace=wrap;html=1;" parent="1" vertex="1">
          <mxGeometry x="361" y="503" width="80" height="40" as="geometry" />
        </mxCell>
        <mxCell id="2eSGGgYftwC2F6efk227-29" value="" style="edgeStyle=orthogonalEdgeStyle;rounded=0;orthogonalLoop=1;jettySize=auto;html=1;" parent="1" source="2eSGGgYftwC2F6efk227-30" target="2eSGGgYftwC2F6efk227-28" edge="1">
          <mxGeometry relative="1" as="geometry" />
        </mxCell>
        <mxCell id="2eSGGgYftwC2F6efk227-30" value="幼儿园&lt;br&gt;2018" style="rounded=0;whiteSpace=wrap;html=1;" parent="1" vertex="1">
          <mxGeometry x="241" y="503" width="80" height="40" as="geometry" />
        </mxCell>
        <mxCell id="2eSGGgYftwC2F6efk227-31" value="" style="rounded=0;whiteSpace=wrap;html=1;" parent="1" vertex="1">
          <mxGeometry x="241" y="585" width="80" height="40" as="geometry" />
        </mxCell>
        <mxCell id="sDltmBfJr-5fXImPttAX-4" value="" style="edgeStyle=orthogonalEdgeStyle;rounded=0;orthogonalLoop=1;jettySize=auto;html=1;" parent="1" source="sDltmBfJr-5fXImPttAX-1" target="sDltmBfJr-5fXImPttAX-3" edge="1">
          <mxGeometry relative="1" as="geometry" />
        </mxCell>
        <mxCell id="sDltmBfJr-5fXImPttAX-1" value="西安之旅&lt;br&gt;2023.08" style="rounded=0;whiteSpace=wrap;html=1;" parent="1" vertex="1">
          <mxGeometry x="240" y="240" width="80" height="40" as="geometry" />
        </mxCell>
        <mxCell id="sDltmBfJr-5fXImPttAX-6" value="" style="edgeStyle=orthogonalEdgeStyle;rounded=0;orthogonalLoop=1;jettySize=auto;html=1;" parent="1" source="sDltmBfJr-5fXImPttAX-3" target="sDltmBfJr-5fXImPttAX-5" edge="1">
          <mxGeometry relative="1" as="geometry" />
        </mxCell>
        <mxCell id="sDltmBfJr-5fXImPttAX-3" value="社牛，美食&lt;br&gt;2023.09" style="rounded=0;whiteSpace=wrap;html=1;" parent="1" vertex="1">
          <mxGeometry x="360" y="240" width="80" height="40" as="geometry" />
        </mxCell>
        <mxCell id="sDltmBfJr-5fXImPttAX-8" value="" style="edgeStyle=orthogonalEdgeStyle;rounded=0;orthogonalLoop=1;jettySize=auto;html=1;" parent="1" source="sDltmBfJr-5fXImPttAX-5" target="sDltmBfJr-5fXImPttAX-7" edge="1">
          <mxGeometry relative="1" as="geometry" />
        </mxCell>
        <mxCell id="sDltmBfJr-5fXImPttAX-5" value="人事管理&lt;br&gt;2023.09" style="rounded=0;whiteSpace=wrap;html=1;" parent="1" vertex="1">
          <mxGeometry x="480" y="240" width="80" height="40" as="geometry" />
        </mxCell>
        <mxCell id="sDltmBfJr-5fXImPttAX-10" value="" style="edgeStyle=orthogonalEdgeStyle;rounded=0;orthogonalLoop=1;jettySize=auto;html=1;" parent="1" source="sDltmBfJr-5fXImPttAX-7" target="sDltmBfJr-5fXImPttAX-9" edge="1">
          <mxGeometry relative="1" as="geometry" />
        </mxCell>
        <mxCell id="sDltmBfJr-5fXImPttAX-7" value="上电视&lt;br&gt;2024.01" style="rounded=0;whiteSpace=wrap;html=1;" parent="1" vertex="1">
          <mxGeometry x="600" y="240" width="80" height="40" as="geometry" />
        </mxCell>
        <mxCell id="sDltmBfJr-5fXImPttAX-12" value="" style="edgeStyle=orthogonalEdgeStyle;rounded=0;orthogonalLoop=1;jettySize=auto;html=1;" parent="1" source="sDltmBfJr-5fXImPttAX-9" target="sDltmBfJr-5fXImPttAX-11" edge="1">
          <mxGeometry relative="1" as="geometry" />
        </mxCell>
        <mxCell id="sDltmBfJr-5fXImPttAX-9" value="" style="rounded=0;whiteSpace=wrap;html=1;" parent="1" vertex="1">
          <mxGeometry x="721" y="240" width="80" height="40" as="geometry" />
        </mxCell>
        <mxCell id="sDltmBfJr-5fXImPttAX-14" value="" style="edgeStyle=orthogonalEdgeStyle;rounded=0;orthogonalLoop=1;jettySize=auto;html=1;" parent="1" source="sDltmBfJr-5fXImPttAX-11" target="sDltmBfJr-5fXImPttAX-13" edge="1">
          <mxGeometry relative="1" as="geometry" />
        </mxCell>
        <mxCell id="sDltmBfJr-5fXImPttAX-11" value="" style="rounded=0;whiteSpace=wrap;html=1;" parent="1" vertex="1">
          <mxGeometry x="841" y="240" width="80" height="40" as="geometry" />
        </mxCell>
        <mxCell id="sDltmBfJr-5fXImPttAX-13" value="" style="rounded=0;whiteSpace=wrap;html=1;" parent="1" vertex="1">
          <mxGeometry x="961" y="240" width="80" height="40" as="geometry" />
        </mxCell>
      </root>
    </mxGraphModel>
  </diagram>
  <diagram id="G8BSR3UiuLuiR0L2doUB" name="vision">
    <mxGraphModel dx="765" dy="533" grid="1" gridSize="10" guides="1" tooltips="1" connect="1" arrows="1" fold="1" page="1" pageScale="1" pageWidth="827" pageHeight="1169" math="0" shadow="0">
      <root>
        <mxCell id="0" />
        <mxCell id="1" parent="0" />
        <mxCell id="GyIqMkJp3bm2QPfaUsGH-12" value="" style="rounded=1;whiteSpace=wrap;html=1;fillColor=#f5f5f5;arcSize=5;dashed=1;strokeWidth=2;fontColor=#333333;strokeColor=#666666;" parent="1" vertex="1">
          <mxGeometry x="80" y="110" width="440" height="240" as="geometry" />
        </mxCell>
        <mxCell id="GyIqMkJp3bm2QPfaUsGH-15" value="" style="edgeStyle=orthogonalEdgeStyle;rounded=0;orthogonalLoop=1;jettySize=auto;html=1;endArrow=block;endFill=1;startArrow=block;startFill=1;strokeWidth=2;" parent="1" source="u624JPMu-GJl_fh2mhks-1" target="u624JPMu-GJl_fh2mhks-2" edge="1">
          <mxGeometry relative="1" as="geometry" />
        </mxCell>
        <mxCell id="u624JPMu-GJl_fh2mhks-1" value="Teaching" style="rounded=1;whiteSpace=wrap;html=1;fillColor=#dae8fc;strokeColor=#6c8ebf;" parent="1" vertex="1">
          <mxGeometry x="80" y="40" width="120" height="60" as="geometry" />
        </mxCell>
        <mxCell id="GyIqMkJp3bm2QPfaUsGH-16" value="" style="edgeStyle=orthogonalEdgeStyle;rounded=0;orthogonalLoop=1;jettySize=auto;html=1;startArrow=block;startFill=1;endArrow=block;endFill=1;strokeWidth=2;" parent="1" source="u624JPMu-GJl_fh2mhks-2" target="GyIqMkJp3bm2QPfaUsGH-1" edge="1">
          <mxGeometry relative="1" as="geometry" />
        </mxCell>
        <mxCell id="u624JPMu-GJl_fh2mhks-2" value="Research" style="rounded=1;whiteSpace=wrap;html=1;fillColor=#d5e8d4;strokeColor=#82b366;" parent="1" vertex="1">
          <mxGeometry x="240" y="40" width="120" height="60" as="geometry" />
        </mxCell>
        <mxCell id="GyIqMkJp3bm2QPfaUsGH-1" value="Administration" style="rounded=1;whiteSpace=wrap;html=1;fillColor=#f8cecc;strokeColor=#b85450;" parent="1" vertex="1">
          <mxGeometry x="400" y="40" width="120" height="60" as="geometry" />
        </mxCell>
        <mxCell id="GyIqMkJp3bm2QPfaUsGH-2" value="courses" style="rounded=0;whiteSpace=wrap;html=1;" parent="1" vertex="1">
          <mxGeometry x="110" y="130" width="80" height="40" as="geometry" />
        </mxCell>
        <mxCell id="GyIqMkJp3bm2QPfaUsGH-3" value="projects" style="rounded=0;whiteSpace=wrap;html=1;" parent="1" vertex="1">
          <mxGeometry x="110" y="210" width="80" height="40" as="geometry" />
        </mxCell>
        <mxCell id="GyIqMkJp3bm2QPfaUsGH-4" value="human resouce" style="rounded=0;whiteSpace=wrap;html=1;" parent="1" vertex="1">
          <mxGeometry x="110" y="290" width="80" height="40" as="geometry" />
        </mxCell>
        <mxCell id="GyIqMkJp3bm2QPfaUsGH-5" value="fund" style="rounded=0;whiteSpace=wrap;html=1;" parent="1" vertex="1">
          <mxGeometry x="210" y="290" width="80" height="40" as="geometry" />
        </mxCell>
        <mxCell id="GyIqMkJp3bm2QPfaUsGH-6" value="conference" style="rounded=0;whiteSpace=wrap;html=1;" parent="1" vertex="1">
          <mxGeometry x="210" y="210" width="80" height="40" as="geometry" />
        </mxCell>
        <mxCell id="GyIqMkJp3bm2QPfaUsGH-7" value="writing" style="rounded=0;whiteSpace=wrap;html=1;" parent="1" vertex="1">
          <mxGeometry x="310" y="210" width="80" height="40" as="geometry" />
        </mxCell>
        <mxCell id="GyIqMkJp3bm2QPfaUsGH-8" value="presentation" style="rounded=0;whiteSpace=wrap;html=1;" parent="1" vertex="1">
          <mxGeometry x="210" y="130" width="80" height="40" as="geometry" />
        </mxCell>
        <mxCell id="GyIqMkJp3bm2QPfaUsGH-9" value="exams" style="rounded=0;whiteSpace=wrap;html=1;" parent="1" vertex="1">
          <mxGeometry x="310" y="130" width="80" height="40" as="geometry" />
        </mxCell>
        <mxCell id="GyIqMkJp3bm2QPfaUsGH-10" value="seminars" style="rounded=0;whiteSpace=wrap;html=1;" parent="1" vertex="1">
          <mxGeometry x="410" y="130" width="80" height="40" as="geometry" />
        </mxCell>
        <mxCell id="GyIqMkJp3bm2QPfaUsGH-11" value="collaboration" style="rounded=0;whiteSpace=wrap;html=1;" parent="1" vertex="1">
          <mxGeometry x="410" y="210" width="80" height="40" as="geometry" />
        </mxCell>
        <mxCell id="GyIqMkJp3bm2QPfaUsGH-13" value="activities&lt;br&gt;(&lt;font style=&quot;font-size: 8px;&quot;&gt;challenge&lt;/font&gt;)" style="rounded=0;whiteSpace=wrap;html=1;" parent="1" vertex="1">
          <mxGeometry x="310" y="290" width="80" height="40" as="geometry" />
        </mxCell>
        <mxCell id="GyIqMkJp3bm2QPfaUsGH-14" value="jobs&lt;br&gt;(&lt;font style=&quot;font-size: 8px;&quot;&gt;internship&lt;/font&gt;)" style="rounded=0;whiteSpace=wrap;html=1;" parent="1" vertex="1">
          <mxGeometry x="410" y="290" width="80" height="40" as="geometry" />
        </mxCell>
      </root>
    </mxGraphModel>
  </diagram>
  <diagram id="9fB8Nf-4Ucei9gPXUen_" name="Math-ML">
    <mxGraphModel dx="765" dy="533" grid="1" gridSize="10" guides="1" tooltips="1" connect="1" arrows="1" fold="1" page="1" pageScale="1" pageWidth="827" pageHeight="1169" math="0" shadow="0">
      <root>
        <mxCell id="0" />
        <mxCell id="1" parent="0" />
        <mxCell id="pZ-Y6fwxMVKAhLvrS-m9-1" value="y = ax + b" style="rounded=1;whiteSpace=wrap;html=1;" parent="1" vertex="1">
          <mxGeometry x="80" y="40" width="200" height="40" as="geometry" />
        </mxCell>
        <mxCell id="pZ-Y6fwxMVKAhLvrS-m9-2" value="y = a1x1 + a2x2 + a3x3 + b" style="rounded=1;whiteSpace=wrap;html=1;" parent="1" vertex="1">
          <mxGeometry x="80" y="100" width="200" height="40" as="geometry" />
        </mxCell>
        <mxCell id="pZ-Y6fwxMVKAhLvrS-m9-3" value="(y_true - y_pred)&lt;sup&gt;2&lt;/sup&gt;" style="rounded=1;whiteSpace=wrap;html=1;" parent="1" vertex="1">
          <mxGeometry x="80" y="160" width="200" height="40" as="geometry" />
        </mxCell>
        <mxCell id="pZ-Y6fwxMVKAhLvrS-m9-4" value="y&#39; = y / x" style="rounded=1;whiteSpace=wrap;html=1;" parent="1" vertex="1">
          <mxGeometry x="80" y="220" width="200" height="40" as="geometry" />
        </mxCell>
        <mxCell id="pZ-Y6fwxMVKAhLvrS-m9-5" value="sensitive analysis" style="rounded=1;whiteSpace=wrap;html=1;" parent="1" vertex="1">
          <mxGeometry x="80" y="280" width="200" height="40" as="geometry" />
        </mxCell>
        <mxCell id="pZ-Y6fwxMVKAhLvrS-m9-6" value="boundary condition" style="rounded=1;whiteSpace=wrap;html=1;" parent="1" vertex="1">
          <mxGeometry x="80" y="340" width="200" height="40" as="geometry" />
        </mxCell>
        <mxCell id="pZ-Y6fwxMVKAhLvrS-m9-7" value="partial weifen equation" style="rounded=1;whiteSpace=wrap;html=1;" parent="1" vertex="1">
          <mxGeometry x="80" y="400" width="200" height="40" as="geometry" />
        </mxCell>
        <mxCell id="pZ-Y6fwxMVKAhLvrS-m9-8" value="Math" style="text;html=1;strokeColor=none;fillColor=none;align=center;verticalAlign=middle;whiteSpace=wrap;rounded=0;" parent="1" vertex="1">
          <mxGeometry x="150" y="10" width="60" height="30" as="geometry" />
        </mxCell>
        <mxCell id="pZ-Y6fwxMVKAhLvrS-m9-9" value="Machine learning" style="text;html=1;strokeColor=none;fillColor=none;align=center;verticalAlign=middle;whiteSpace=wrap;rounded=0;" parent="1" vertex="1">
          <mxGeometry x="450" y="10" width="100" height="30" as="geometry" />
        </mxCell>
        <mxCell id="pZ-Y6fwxMVKAhLvrS-m9-10" value="y = ax + b" style="rounded=1;whiteSpace=wrap;html=1;" parent="1" vertex="1">
          <mxGeometry x="400" y="40" width="200" height="40" as="geometry" />
        </mxCell>
      </root>
    </mxGraphModel>
  </diagram>
  <diagram id="q58V1kydwdGWghs5HzcQ" name="cat-law">
    <mxGraphModel dx="765" dy="533" grid="1" gridSize="10" guides="1" tooltips="1" connect="1" arrows="1" fold="1" page="1" pageScale="1" pageWidth="827" pageHeight="1169" math="0" shadow="0">
      <root>
        <mxCell id="0" />
        <mxCell id="1" parent="0" />
        <mxCell id="kmWRbr5FFgh-QFFcwmQb-1" value="" style="rounded=0;whiteSpace=wrap;html=1;strokeWidth=3;dashed=1;fillColor=#f5f5f5;fontColor=#333333;strokeColor=#666666;" parent="1" vertex="1">
          <mxGeometry x="40" y="40" width="700" height="440" as="geometry" />
        </mxCell>
        <mxCell id="kmWRbr5FFgh-QFFcwmQb-3" value="" style="rounded=1;whiteSpace=wrap;html=1;" parent="1" vertex="1">
          <mxGeometry x="90" y="90" width="100" height="40" as="geometry" />
        </mxCell>
        <mxCell id="kmWRbr5FFgh-QFFcwmQb-4" value="有法律保障" style="text;html=1;strokeColor=none;fillColor=none;align=center;verticalAlign=middle;whiteSpace=wrap;rounded=0;fontSize=18;fontStyle=1" parent="1" vertex="1">
          <mxGeometry x="60" y="50" width="110" height="30" as="geometry" />
        </mxCell>
        <mxCell id="kmWRbr5FFgh-QFFcwmQb-6" value="" style="rounded=0;whiteSpace=wrap;html=1;strokeWidth=3;dashed=1;fillColor=#f5f5f5;fontColor=#333333;strokeColor=#666666;" parent="1" vertex="1">
          <mxGeometry x="40" y="519" width="700" height="440" as="geometry" />
        </mxCell>
        <mxCell id="kmWRbr5FFgh-QFFcwmQb-7" value="" style="rounded=1;whiteSpace=wrap;html=1;" parent="1" vertex="1">
          <mxGeometry x="90" y="569" width="100" height="40" as="geometry" />
        </mxCell>
        <mxCell id="kmWRbr5FFgh-QFFcwmQb-8" value="无法律保障" style="text;html=1;strokeColor=none;fillColor=none;align=center;verticalAlign=middle;whiteSpace=wrap;rounded=0;fontSize=18;fontStyle=1" parent="1" vertex="1">
          <mxGeometry x="60" y="529" width="110" height="30" as="geometry" />
        </mxCell>
      </root>
    </mxGraphModel>
  </diagram>
  <diagram id="Zxnz0IbEwQqyzcw1GMYB" name="儒释道">
    <mxGraphModel dx="765" dy="533" grid="1" gridSize="10" guides="1" tooltips="1" connect="1" arrows="1" fold="1" page="1" pageScale="1" pageWidth="827" pageHeight="1169" math="0" shadow="0">
      <root>
        <mxCell id="0" />
        <mxCell id="1" parent="0" />
        <mxCell id="wNlE-yCXK2OfZYN6OgSY-3" value="" style="edgeStyle=orthogonalEdgeStyle;rounded=0;orthogonalLoop=1;jettySize=auto;html=1;" edge="1" parent="1" source="wNlE-yCXK2OfZYN6OgSY-1" target="wNlE-yCXK2OfZYN6OgSY-2">
          <mxGeometry relative="1" as="geometry" />
        </mxCell>
        <mxCell id="wNlE-yCXK2OfZYN6OgSY-1" value="低水平重复" style="rounded=0;whiteSpace=wrap;html=1;" vertex="1" parent="1">
          <mxGeometry x="40" y="40" width="80" height="40" as="geometry" />
        </mxCell>
        <mxCell id="wNlE-yCXK2OfZYN6OgSY-5" value="" style="edgeStyle=orthogonalEdgeStyle;rounded=0;orthogonalLoop=1;jettySize=auto;html=1;" edge="1" parent="1" source="wNlE-yCXK2OfZYN6OgSY-2" target="wNlE-yCXK2OfZYN6OgSY-4">
          <mxGeometry relative="1" as="geometry" />
        </mxCell>
        <mxCell id="wNlE-yCXK2OfZYN6OgSY-2" value="自我觉察" style="rounded=0;whiteSpace=wrap;html=1;" vertex="1" parent="1">
          <mxGeometry x="160" y="40" width="80" height="40" as="geometry" />
        </mxCell>
        <mxCell id="wNlE-yCXK2OfZYN6OgSY-7" value="" style="edgeStyle=orthogonalEdgeStyle;rounded=0;orthogonalLoop=1;jettySize=auto;html=1;" edge="1" parent="1" source="wNlE-yCXK2OfZYN6OgSY-4" target="wNlE-yCXK2OfZYN6OgSY-6">
          <mxGeometry relative="1" as="geometry" />
        </mxCell>
        <mxCell id="wNlE-yCXK2OfZYN6OgSY-4" value="自我和解" style="rounded=0;whiteSpace=wrap;html=1;" vertex="1" parent="1">
          <mxGeometry x="280" y="40" width="80" height="40" as="geometry" />
        </mxCell>
        <mxCell id="wNlE-yCXK2OfZYN6OgSY-9" value="" style="edgeStyle=orthogonalEdgeStyle;rounded=0;orthogonalLoop=1;jettySize=auto;html=1;" edge="1" parent="1" source="wNlE-yCXK2OfZYN6OgSY-6" target="wNlE-yCXK2OfZYN6OgSY-8">
          <mxGeometry relative="1" as="geometry" />
        </mxCell>
        <mxCell id="wNlE-yCXK2OfZYN6OgSY-6" value="自我超越" style="rounded=0;whiteSpace=wrap;html=1;" vertex="1" parent="1">
          <mxGeometry x="400" y="40" width="80" height="40" as="geometry" />
        </mxCell>
        <mxCell id="wNlE-yCXK2OfZYN6OgSY-8" value="无我无相" style="rounded=0;whiteSpace=wrap;html=1;" vertex="1" parent="1">
          <mxGeometry x="520" y="40" width="80" height="40" as="geometry" />
        </mxCell>
        <mxCell id="wNlE-yCXK2OfZYN6OgSY-11" style="edgeStyle=orthogonalEdgeStyle;rounded=0;orthogonalLoop=1;jettySize=auto;html=1;entryX=0.5;entryY=1;entryDx=0;entryDy=0;" edge="1" parent="1" source="wNlE-yCXK2OfZYN6OgSY-10" target="wNlE-yCXK2OfZYN6OgSY-2">
          <mxGeometry relative="1" as="geometry" />
        </mxCell>
        <mxCell id="wNlE-yCXK2OfZYN6OgSY-12" style="edgeStyle=orthogonalEdgeStyle;rounded=0;orthogonalLoop=1;jettySize=auto;html=1;entryX=0.5;entryY=1;entryDx=0;entryDy=0;" edge="1" parent="1" source="wNlE-yCXK2OfZYN6OgSY-10" target="wNlE-yCXK2OfZYN6OgSY-4">
          <mxGeometry relative="1" as="geometry" />
        </mxCell>
        <mxCell id="wNlE-yCXK2OfZYN6OgSY-10" value="正念-禅修" style="rounded=0;whiteSpace=wrap;html=1;" vertex="1" parent="1">
          <mxGeometry x="220" y="120" width="80" height="40" as="geometry" />
        </mxCell>
      </root>
    </mxGraphModel>
  </diagram>
</mxfile>
